<svg xmlns="http://www.w3.org/2000/svg" xmlns:xlink="http://www.w3.org/1999/xlink" width="500" height="500" viewBox="0 0 500 500">
  <defs>
    <clipPath id="clip-category-8">
      <rect width="500" height="500"/>
    </clipPath>
  </defs>
  <g id="category-8" clip-path="url(#clip-category-8)">
    <g id="Group_18" data-name="Group 18" transform="translate(48.326 0)">
      <path id="Path_51" data-name="Path 51" d="M365.332,484.333H24.2A16.667,16.667,0,0,1,9.907,459.091l7.5-12.5a16.667,16.667,0,0,0,2.358-8.542V47.283a16.667,16.667,0,0,0-2.375-8.575l-7.5-12.5A16.667,16.667,0,0,1,24.2,1H365.332a16.667,16.667,0,0,1,14.292,25.242l-7.5,12.5a16.667,16.667,0,0,0-2.358,8.542V438.049a16.667,16.667,0,0,0,2.375,8.575l7.5,12.5a16.667,16.667,0,0,1-14.308,25.208Z" transform="translate(7.371 7.334)" fill="#b8bdff"/>
      <path id="Path_53" data-name="Path 53" d="M17.39,446.624l-7.5,12.5A16.667,16.667,0,0,0,24.2,484.333h25a16.667,16.667,0,0,1-14.292-25.242l7.5-12.5a16.667,16.667,0,0,0,2.358-8.542V47.283a16.667,16.667,0,0,0-2.375-8.575l-7.5-12.5A16.667,16.667,0,0,1,49.2,1h-25A16.667,16.667,0,0,0,9.907,26.242l7.5,12.5a16.667,16.667,0,0,1,2.358,8.542V438.049a16.667,16.667,0,0,1-2.375,8.575Z" transform="translate(7.371 7.334)" fill="#b8bdff"/>
      <path id="Path_54" data-name="Path 54" d="M8,45.446H24.667v66.667H8Z" transform="translate(10.803 333.271)" fill="#b8bdff"/>
      <g id="Group_17" data-name="Group 17" transform="translate(6.527 0)">
        <circle id="Ellipse_9" data-name="Ellipse 9" cx="8.333" cy="8.333" r="8.333" transform="translate(12.277 403.717)" fill="#3e4493"/>
        <path id="Path_55" data-name="Path 55" d="M17.612,449.667l-7.5,12.5A25,25,0,0,0,31.57,500H372.7a25,25,0,0,0,21.433-37.858l-7.5-12.5a8.333,8.333,0,0,1-1.167-4.258V54.617a8.258,8.258,0,0,1,1.192-4.283l7.5-12.5a24.692,24.692,0,0,0,.317-25.175A24.708,24.708,0,0,0,372.7,0H31.57A24.708,24.708,0,0,0,9.82,12.684a24.692,24.692,0,0,0,.317,25.175l7.5,12.5A8.333,8.333,0,0,1,18.8,54.617v324.1a8.333,8.333,0,0,0,16.667,0V54.617A25,25,0,0,0,31.9,41.753l-7.5-12.5A8.333,8.333,0,0,1,31.57,16.667H372.7a8.333,8.333,0,0,1,7.142,12.617l-7.5,12.5A25,25,0,0,0,368.8,54.617V445.383a25,25,0,0,0,3.565,12.865l7.5,12.5a8.333,8.333,0,0,1-7.167,12.583H31.57a8.333,8.333,0,0,1-7.142-12.617l7.5-12.5a25,25,0,0,0,3.542-12.833,8.333,8.333,0,0,0-16.667,0,8.258,8.258,0,0,1-1.192,4.283Z" transform="translate(-6.527 0)" fill="#3e4493"/>
        <path id="Path_56" data-name="Path 56" d="M312,13.333A8.333,8.333,0,0,0,303.666,5H20.333a8.333,8.333,0,0,0,0,16.667H303.666A8.333,8.333,0,0,0,312,13.333ZM20.333,421.666H303.666a8.333,8.333,0,0,0,0-16.667H20.333a8.333,8.333,0,1,0,0,16.667ZM284.558,190.775a8.333,8.333,0,0,0-11.783,0L258.55,205H182.116l41.667-41.667h20.125a8.333,8.333,0,0,0,0-16.667H228.666V131.425a8.333,8.333,0,1,0-16.667,0V151.55l-41.667,41.667V116.783l14.225-14.225a8.333,8.333,0,1,0-11.784-11.784L162,101.55,151.225,90.775a8.333,8.333,0,1,0-11.784,11.784l14.226,14.224v76.433L112,151.55V131.425a8.333,8.333,0,0,0-16.667,0v15.242H80.092a8.333,8.333,0,0,0,0,16.667h20.125L141.883,205H65.45L51.225,190.775a8.333,8.333,0,1,0-11.784,11.784l10.776,10.774L39.442,224.108a8.333,8.333,0,1,0,11.784,11.784L65.45,221.666h76.433l-41.667,41.667H80.092a8.333,8.333,0,0,0,0,16.667H95.333v15.242a8.333,8.333,0,0,0,16.667,0V275.116l41.667-41.667v76.433l-14.225,14.225a8.333,8.333,0,1,0,11.784,11.784L162,325.116l10.775,10.775a8.333,8.333,0,1,0,11.784-11.784l-14.226-14.224V233.45L212,275.116v20.125a8.333,8.333,0,0,0,16.667,0V280h15.242a8.333,8.333,0,0,0,0-16.667H223.783l-41.667-41.667H258.55l14.225,14.225a8.333,8.333,0,1,0,11.784-11.784l-10.776-10.774,10.775-10.775a8.333,8.333,0,0,0,0-11.783Z" transform="translate(33.61 36.667)" fill="#3e4493"/>
      </g>
    </g>
  </g>
</svg>
