<svg xmlns="http://www.w3.org/2000/svg" xmlns:xlink="http://www.w3.org/1999/xlink" width="500" height="500" viewBox="0 0 500 500">
  <defs>
    <clipPath id="clip-category-10">
      <rect width="500" height="500"/>
    </clipPath>
  </defs>
  <g id="category-10" clip-path="url(#clip-category-10)">
    <g id="Group_14" data-name="Group 14" transform="translate(-5.023 -5.091)">
      <path id="Path_32" data-name="Path 32" d="M465.466,134.132a38.808,38.808,0,0,1-39.484,38.017L215.09,178.043a38.765,38.765,0,0,1-7.527-76.63c-30.9-33.369,12.3-83.75,50.038-58.4a38.718,38.718,0,0,1,74-1.588A38.934,38.934,0,0,1,377.58,53.739c23.226-28.3,69.5-11.6,68.85,25.161a38.4,38.4,0,0,1-5.193,18.611,38.73,38.73,0,0,1,24.229,36.621Z" fill="#b8bdff"/>
      <path id="Path_33" data-name="Path 33" d="M248.213,497.128h11.243L228.183,172.633c-1.409-14.618-12.611-27.007-27.229-28.41a30.3,30.3,0,0,0-32.94,34.947l46.453,289.2A34.177,34.177,0,0,0,248.213,497.128Z" fill="#b8bdff"/>
      <path id="Path_34" data-name="Path 34" d="M299.826,497.128l-10.4-323.734a30.29,30.29,0,0,0-30.274-29.317h-.372a30.289,30.289,0,0,0-30.15,33.195l30.826,319.856Z" fill="#fff"/>
      <path id="Path_35" data-name="Path 35" d="M340.2,497.128l10.337-321.789a30.289,30.289,0,0,0-30.274-31.262h-.5a30.29,30.29,0,0,0-30.274,31.262l10.337,321.789Z" fill="#b8bdff"/>
      <path id="Path_36" data-name="Path 36" d="M380.567,497.128l30.826-319.856a30.289,30.289,0,0,0-30.15-33.2h-.372A30.289,30.289,0,0,0,350.6,173.394L340.2,497.128Z" fill="#fff"/>
      <path id="Path_37" data-name="Path 37" d="M425.557,468.37l46.226-287.784c2.7-16.779-8.152-33.589-24.953-36.148a30.3,30.3,0,0,0-34.876,27.023L380.567,497.129H391.81a34.181,34.181,0,0,0,33.747-28.759Z" fill="#b8bdff"/>
      <path id="Path_38" data-name="Path 38" d="M122.487,394.375A29.4,29.4,0,0,1,142,445.752a29.394,29.394,0,1,1-48.565,26.46,29.414,29.414,0,0,1-34.674-28.941c0-19.309,18.293-32.916,35.776-28.665a29.357,29.357,0,0,1,27.949-20.231Zm5.564-114.167a29.4,29.4,0,0,1-22.53,50.127A29.394,29.394,0,1,1,52.47,314.7a29.413,29.413,0,0,1-4.054-44.982c13.654-13.654,36.21-10.34,45.567,5.028A29.357,29.357,0,0,1,128.051,280.208Z" fill="#fff"/>
      <g id="Group_13" data-name="Group 13">
        <path id="Path_39" data-name="Path 39" d="M423.783,34.672a46.08,46.08,0,0,0-46.024,7.858A47.1,47.1,0,0,0,336,31.888,46.525,46.525,0,0,0,253.655,32c-20.737-8.941-41.3-.235-52.747,13.16C189.8,58.15,184.371,78.9,195.1,97.574a46.1,46.1,0,0,0-24.863,50.673c-.021.023-.047.042-.068.065a37.814,37.814,0,0,0-9.829,32.093l46.45,289.2a41.776,41.776,0,0,0,41.429,35.306H391.811a41.789,41.789,0,0,0,41.429-35.3l46.222-287.787a39.617,39.617,0,0,0-9.188-32.383,45.751,45.751,0,0,0,2.967-15.168,46.8,46.8,0,0,0-21.808-40.255,46.32,46.32,0,0,0-27.65-59.339ZM222.146,467.137l-46.45-289.2a22.494,22.494,0,0,1,22.264-26.081c12.127,0,21.343,9.722,22.484,21.52l30.451,315.976h-2.68A26.291,26.291,0,0,1,222.146,467.137Zm44.376,22.214L236.366,176.459a22.693,22.693,0,1,1,45.287-2.814l10.141,315.706Zm66.139,0h-25.3l-10.1-314.263a22.754,22.754,0,1,1,45.5-.017l-10.1,314.28Zm25.7-315.706a22.7,22.7,0,1,1,45.287,2.883L373.5,489.351h-25.28C354.379,297.8,341.5,698.6,358.366,173.645ZM464.1,179.35,417.881,467.137a26.3,26.3,0,0,1-26.07,22.215h-2.68L419.7,172.206a22.509,22.509,0,0,1,25.963-20.076c12.448,1.893,20.462,14.639,18.444,27.22Zm-6.419-45.36v0a29.292,29.292,0,0,1-.716,5.5,37.126,37.126,0,0,0-45.308,12.334A37.335,37.335,0,0,0,380.874,136.3a37.842,37.842,0,0,0-30.4,15.2,38.12,38.12,0,0,0-60.938.014A38.231,38.231,0,0,0,258.783,136.3a37.213,37.213,0,0,0-30.505,15.64A37.391,37.391,0,0,0,184.861,138.6a30.789,30.789,0,0,1,24.35-29.582,7.783,7.783,0,0,0,4.056-12.89c-12.739-13.756-9.449-30.426-.539-40.844,10.106-11.811,26.224-15.431,40.54-5.815a7.778,7.778,0,0,0,11.819-4.337,30.939,30.939,0,0,1,59.12-1.295,7.78,7.78,0,0,0,10.353,4.782A30.994,30.994,0,0,1,371.4,58.46a7.813,7.813,0,0,0,12.2.213c10.315-12.575,24.748-13.1,34.813-9.4,9.974,3.665,20.524,13.339,20.243,29.484a30.6,30.6,0,0,1-4.14,14.835,7.788,7.788,0,0,0,3.828,11.136A31.06,31.06,0,0,1,457.684,133.99ZM87.583,480.506a37.162,37.162,0,0,0,72.064-12.815,37.087,37.087,0,0,0-7.171-21.941,37.195,37.195,0,1,0-62.728-39.67,37.231,37.231,0,1,0-2.165,74.426ZM92.7,422.165A7.8,7.8,0,0,0,101.939,417a21.621,21.621,0,1,1,34.919,22.918,7.776,7.776,0,0,0,0,11.668,21.627,21.627,0,0,1-14.372,37.767,21.733,21.733,0,0,1-21.36-18.31,7.78,7.78,0,0,0-9.168-6.468c-12.671,2.49-25.416-7.489-25.416-21.3,0-14.1,13.388-24.214,26.16-21.107Zm-42.811-63.8a37.2,37.2,0,0,0,63.04-20.623,37.194,37.194,0,1,0-16.3-72.406A37.234,37.234,0,1,0,42.461,316.43a37.482,37.482,0,0,0,7.43,41.935Zm4.026-83.142c9.99-9.981,26.605-7.631,33.423,3.574a7.787,7.787,0,0,0,10.186,2.883A21.62,21.62,0,1,1,106,322.573a7.78,7.78,0,0,0-8.249,8.253,21.453,21.453,0,0,1-6.267,16.5A21.613,21.613,0,0,1,58.733,319.31a7.776,7.776,0,0,0-1.914-11.052c-10.776-7.278-12.627-23.3-2.9-33.035Z" fill="#3e4493"/>
      </g>
    </g>
  </g>
</svg>
