<svg xmlns="http://www.w3.org/2000/svg" xmlns:xlink="http://www.w3.org/1999/xlink" width="500" height="500" viewBox="0 0 500 500">
  <defs>
    <clipPath id="clip-category-16">
      <rect width="500" height="500"/>
    </clipPath>
  </defs>
  <g id="category-16" clip-path="url(#clip-category-16)">
    <g id="Group_4" data-name="Group 4" transform="translate(-6.293 -6.338)">
      <path id="Path_7" data-name="Path 7" d="M117.171,200.857,137.7,449.833a55.16,55.16,0,0,0,54.973,50.628H309.594a55.159,55.159,0,0,0,54.973-50.628l20.524-248.976Z" fill="#b8bdff"/>
      <path id="Path_10" data-name="Path 10" d="M400.517,27.391a15.857,15.857,0,0,1-4.645,11.192L357.316,77.139a64.245,64.245,0,0,0-25.35-19.362L373.488,16.2a15.837,15.837,0,0,1,27.029,11.192ZM160.728,52.8a83.52,83.52,0,0,0-19.81,24.958l-24.79-24.79a15.828,15.828,0,0,1,22.384-22.384Z" fill="#b8bdff"/>
      <path id="Path_11" data-name="Path 11" d="M399.548,42.26a21.028,21.028,0,1,0-29.74-29.737l-39.2,39.248a67.326,67.326,0,0,0-52.324,2.408,88.257,88.257,0,0,0-117.11-8.287L142.189,26.9a21.029,21.029,0,0,0-29.74,29.74l22.238,22.238a88.019,88.019,0,0,0-8.094,32.178,20.467,20.467,0,0,0-20.217,22.149l26.136,317.053a60.7,60.7,0,0,0,60.158,55.4H309.592a60.7,60.7,0,0,0,60.158-55.4l26.136-317.053a20.468,20.468,0,0,0-20.219-22.149,68.191,68.191,0,0,0-11.591-33.321Zm-22.364-22.4a10.626,10.626,0,0,1,15.01,15.045L357.606,69.5a69.6,69.6,0,0,0-16.828-13.181ZM331.168,63.183a59.91,59.91,0,0,1,20.863,15.835c.064.076.134.145.2.221a57.957,57.957,0,0,1,13.035,31.8H303.452a88.124,88.124,0,0,0-18.133-48.678,57.669,57.669,0,0,1,45.849.824ZM293.05,111.037H137a77.774,77.774,0,0,1,8.967-31.623C183.086,9.861,287.887,33.029,293.05,111.037ZM139.779,69.262,119.8,49.287a10.628,10.628,0,1,1,15.03-15.03L153.2,52.624a98.1,98.1,0,0,0-13.422,16.638Zm52.891,426a50.244,50.244,0,0,1-49.791-45.854l-20.06-243.348H379.443l-20.06,243.348a50.247,50.247,0,0,1-49.791,45.854ZM385.519,132.353l-5.218,63.3H121.962l-5.218-63.3a10.075,10.075,0,0,1,10.05-10.911H375.47a10.076,10.076,0,0,1,10.049,10.913Z" fill="#3e4493"/>
    </g>
  </g>
</svg>
