<svg xmlns="http://www.w3.org/2000/svg" xmlns:xlink="http://www.w3.org/1999/xlink" width="500" height="500" viewBox="0 0 500 500">
  <defs>
    <clipPath id="clip-category-11">
      <rect width="500" height="500"/>
    </clipPath>
  </defs>
  <g id="category-11" clip-path="url(#clip-category-11)">
    <g id="Group_12" data-name="Group 12" transform="translate(-5.88 -5.016)">
      <path id="Path_27" data-name="Path 27" d="M390.97,216.648H297.38V485.281L415.245,388.7a62.471,62.471,0,0,0,22.947-48.454V263.87a47.258,47.258,0,0,0-47.222-47.222Zm18.348,123.6a33.906,33.906,0,0,1-12.375,26.171l-70.69,57.937V245.475h64.716a18.373,18.373,0,0,1,18.348,18.395v76.38Z" fill="#fff"/>
      <path id="Path_28" data-name="Path 28" d="M337.47,214.7V458.393a34.664,34.664,0,0,1-34.664,34.664H108.471a34.664,34.664,0,0,1-34.664-34.664V214.7a15.33,15.33,0,0,1,15.33-15.33h233A15.331,15.331,0,0,1,337.47,214.7Z" fill="#b8bdff"/>
      <path id="Path_29" data-name="Path 29" d="M73.808,431.918v26.475a34.664,34.664,0,0,0,34.664,34.664H302.807a34.664,34.664,0,0,0,34.664-34.664V431.918Z" fill="#fff"/>
      <path id="Path_30" data-name="Path 30" d="M193.265,278v57.7a6.687,6.687,0,0,1-6.687,6.687H132.263a6.687,6.687,0,0,1-6.687-6.687V278.382a13.017,13.017,0,0,1,5.08-10.317l30.4-23.387,27.606,23.395a13.02,13.02,0,0,1,4.6,9.931Z" fill="#fefdfe"/>
      <g id="Group_11" data-name="Group 11">
        <path id="Path_31" data-name="Path 31" d="M67.88,214.7V458.394a40.636,40.636,0,0,0,40.591,40.589H302.807a40.632,40.632,0,0,0,40.587-40.589v-3.155L419,393.287A68.4,68.4,0,0,0,444.12,340.25V263.871a53.211,53.211,0,0,0-53.153-53.148H342.991a21.272,21.272,0,0,0-20.854-17.279h-233A21.282,21.282,0,0,0,67.88,214.7ZM331.541,458.394a28.767,28.767,0,0,1-28.734,28.736H108.472a28.768,28.768,0,0,1-28.739-28.736v-20.55H331.541ZM343.394,251.4h47.573a12.46,12.46,0,0,1,12.422,12.469V340.25a27.909,27.909,0,0,1-10.2,21.587l-49.8,40.81V251.4Zm88.873,12.469V340.25a56.587,56.587,0,0,1-20.78,43.872l-68.094,55.8V417.97l57.32-46.977a39.731,39.731,0,0,0,14.529-30.743V263.871a24.326,24.326,0,0,0-24.275-24.321H343.394V222.576h47.573a41.342,41.342,0,0,1,41.3,41.295ZM331.541,214.7V425.991H79.733V214.7a9.414,9.414,0,0,1,9.4-9.4h66v36.466l-28.1,21.608a19.069,19.069,0,0,0-7.39,15.013V335.7a12.626,12.626,0,0,0,12.612,12.614h54.319A12.627,12.627,0,0,0,199.191,335.7V278a18.892,18.892,0,0,0-6.7-14.45l-25.511-21.622V205.3H322.137a9.414,9.414,0,0,1,9.4,9.4ZM161.059,277.9a5.926,5.926,0,0,0,5.926-5.926v-14.5L184.834,272.6a7.063,7.063,0,0,1,2.505,5.406v57.7a.764.764,0,0,1-.759.762H132.261a.763.763,0,0,1-.759-.762V278.385a7.154,7.154,0,0,1,2.764-5.621l20.867-16.048v15.259a5.926,5.926,0,0,0,5.925,5.925ZM265.739,13.375a5.931,5.931,0,0,0-7.6,3.537c-12.344,33.836-12.172,58.472.537,75.282,9.038,17.816,8.857,38.459-.556,64.908a5.927,5.927,0,1,0,11.168,3.972c10.524-29.572,10.418-54.035-.319-74.784a5.954,5.954,0,0,0-.583-.907c-10.2-13.154-9.908-34.822.884-64.41a5.922,5.922,0,0,0-3.533-7.6Zm-57.458,0a5.941,5.941,0,0,0-7.6,3.537c-12.339,33.841-12.163,58.477.542,75.282,9.038,17.812,8.857,38.455-.556,64.908a5.927,5.927,0,1,0,11.168,3.972c10.524-29.577,10.422-54.039-.319-74.784a5.859,5.859,0,0,0-.583-.907c-10.2-13.149-9.9-34.82.889-64.41a5.928,5.928,0,0,0-3.543-7.6Zm-57.445,0a5.931,5.931,0,0,0-7.6,3.537c-12.344,33.836-12.172,58.472.537,75.282,9.038,17.816,8.857,38.459-.556,64.908a5.927,5.927,0,0,0,11.168,3.972c10.524-29.572,10.418-54.035-.319-74.784a5.955,5.955,0,0,0-.583-.907c-10.205-13.154-9.908-34.822.884-64.41a5.923,5.923,0,0,0-3.533-7.6Z" fill="#3e4493"/>
      </g>
    </g>
  </g>
</svg>
