<svg xmlns="http://www.w3.org/2000/svg" xmlns:xlink="http://www.w3.org/1999/xlink" width="500" height="500" viewBox="0 0 500 500">
  <defs>
    <clipPath id="clip-category-15">
      <rect width="500" height="500"/>
    </clipPath>
  </defs>
  <g id="category-15" clip-path="url(#clip-category-15)">
    <g id="Group_6" data-name="Group 6" transform="translate(-5.546 -6.421)">
      <path id="Path_12" data-name="Path 12" d="M413.39,18.122a15.837,15.837,0,0,1-.3,22.687L277.8,162.6l-12.955-6.3L390.7,18.42A15.836,15.836,0,0,1,413.39,18.122Zm62.885,70.752a15.837,15.837,0,0,1-6.2,21.824L323.316,188.156l-11.9-14.705L454.3,83.247a15.837,15.837,0,0,1,21.98,5.627Z" fill="#b8bdff"/>
      <path id="Path_14" data-name="Path 14" d="M345.335,259.3a15.3,15.3,0,0,1,15.3,15.3v62.316a125.307,125.307,0,0,1-1.285,17.752,122.457,122.457,0,0,1-74.677,95.365H109.628a122.457,122.457,0,0,1-74.677-95.365,125.305,125.305,0,0,1-1.285-17.752V274.6a15.3,15.3,0,0,1,15.3-15.3Z" fill="#b8bdff"/>
      <g id="Group_5" data-name="Group 5">
        <path id="Path_16" data-name="Path 16" d="M27.6,274.6c-.034,3.009-.422,68.567,1.345,80.944a128.809,128.809,0,0,0,74.626,98.414v20.2A30.455,30.455,0,0,0,134,504.578H259.672A30.455,30.455,0,0,0,290.1,474.157V454.24a128.828,128.828,0,0,0,75.256-98.718c1.778-12.416,1.351-80.436,1.345-80.923a21.23,21.23,0,0,0-7.082-15.772c-1.928-7.668,4.79-24.458-11.988-36.338a25.928,25.928,0,0,0-11.517-32.519l136.844-73.937a21.9,21.9,0,1,0-21.817-37.96L310.554,163.858a27.948,27.948,0,0,0-15.564-2.638L417.265,45.207A21.9,21.9,0,1,0,386.3,14.246L257.541,149.955a28.6,28.6,0,0,0-7.731,3.1,28.727,28.727,0,0,0-35.975-4.088,29.659,29.659,0,0,0-37.041,2.581q-1.478.036-2.951.1a28.447,28.447,0,0,0-40.475,3.666A26.815,26.815,0,0,0,97,161.164c-14.688-1.97-27.165,9.7-27.259,24.015-16.853-.871-29.936,15.877-24.275,32.2a29.415,29.415,0,0,0-11.213,41.806A21.265,21.265,0,0,0,27.605,274.6Zm12.126,0a9.242,9.242,0,0,1,9.232-9.234H345.335a9.246,9.246,0,0,1,9.236,9.234V303.6H39.731ZM353.907,348.6H40.392c-.968-9.7-.564-10.036-.661-32.872h314.84C354.324,334.495,355.06,337.049,353.907,348.6ZM277.97,474.158a18.317,18.317,0,0,1-18.3,18.3H134a18.317,18.317,0,0,1-18.3-18.3V456.1H277.97Zm5.489-30.189H110.842A116.74,116.74,0,0,1,42.2,360.73H352.1A116.755,116.755,0,0,1,283.459,443.969Zm174-355.547a9.761,9.761,0,0,1,13.561,3.472v0a9.761,9.761,0,0,1-3.822,13.466L326.5,181.382a30.142,30.142,0,0,0-5.549-9.663ZM395.1,22.592a9.776,9.776,0,1,1,13.821,13.819L282.715,156.15a28.34,28.34,0,0,0-9.232-5.378ZM55.39,226.55a6.063,6.063,0,0,0,3.467-9.609c-8.224-10.7,4.491-24.905,16.015-17.826a6.063,6.063,0,0,0,8.512-8.031,12.127,12.127,0,0,1,14.523-17.3,6.078,6.078,0,0,0,7.252-2.953,14.735,14.735,0,0,1,24.787-2.307A6.06,6.06,0,0,0,140.3,167.1a16.342,16.342,0,0,1,26.9-5.063,6.123,6.123,0,0,0,4.741,1.857c2.468-.149,4.945-.242,7.446-.253a6.059,6.059,0,0,0,4.481-2.011A17.513,17.513,0,0,1,209.384,161a6.063,6.063,0,0,0,8.441.154,16.65,16.65,0,0,1,25.27,2.724c1.889,2.723,7.2,4.147,10.331,1.449a16.229,16.229,0,0,1,26.194,7.216,6.065,6.065,0,0,0,8.914,3.268,17.96,17.96,0,0,1,27.359,16.652,6.055,6.055,0,0,0,1.767,4.748,6.142,6.142,0,0,0,4.76,1.745,13.766,13.766,0,0,1,12.088,22.184,6.064,6.064,0,0,0,2.572,9.331c12.568,4.978,9.794,15.524,8.948,22.837-.509-.017-297.236-.337-300.846.313A17.253,17.253,0,0,1,55.39,226.55Z" fill="#3e4493"/>
        <path id="Path_17" data-name="Path 17" d="M100.132,215.961a6.062,6.062,0,0,0,8.573-8.573l-7.564-7.564a6.062,6.062,0,0,0-8.573,8.573Zm63.13-12.967,7.564-7.562a6.062,6.062,0,0,0-8.573-8.573l-7.564,7.562a6.062,6.062,0,0,0,8.573,8.573Zm-30.148,44.669,7.564-7.564a6.062,6.062,0,0,0-8.573-8.573l-7.564,7.564a6.062,6.062,0,1,0,8.573,8.573ZM279.4,227.3l7.564-7.562a6.062,6.062,0,0,0-8.573-8.573l-7.564,7.562A6.062,6.062,0,0,0,279.4,227.3Zm-75.2,16.578a6.062,6.062,0,0,0,8.573-8.573l-7.56-7.562a6.062,6.062,0,0,0-8.573,8.573Zm26.942-40.887a6.062,6.062,0,0,0,8.573-8.573l-7.56-7.562a6.062,6.062,0,1,0-8.573,8.573Z" fill="#3e4493"/>
      </g>
    </g>
  </g>
</svg>
