<svg xmlns="http://www.w3.org/2000/svg" xmlns:xlink="http://www.w3.org/1999/xlink" width="500" height="500" viewBox="0 0 500 500">
  <defs>
    <clipPath id="clip-category-9">
      <rect width="500" height="500"/>
    </clipPath>
  </defs>
  <g id="category-9" clip-path="url(#clip-category-9)">
    <g id="Group_16" data-name="Group 16" transform="translate(0 -0.118)">
      <path id="Path_41" data-name="Path 41" d="M354.75,491.288c-5.219,1.929-43.29,3.379-48.771,4.333H305.9a112.5,112.5,0,0,1-38-13.667,122.2,122.2,0,0,0-60.418-16.667,108.232,108.232,0,0,0-16.667,1.25,108.206,108.206,0,0,0-16.667-1.25c-21.246.209-28.737,15.288-47.085,26-11.739,6.811-37.947,2.107-51.334,4.333H75.64a91.815,91.815,0,0,1-16.083-4.333c-49.5-18.083-61.751-86.169-45-130.5,18.833-49.668,67.168-74,118.085-85.752L333.98,288.382c31.251,14.25,53.488,38.9,66.154,72.4C416.886,405.12,404.251,473.205,354.75,491.288Z" transform="translate(0.801 -6.414)" fill="#b8bdff"/>
      <path id="Path_42" data-name="Path 42" d="M320.611,327.173q1.956.967,3.833,2.083a64.218,64.218,0,0,1,10.25,7.417c11.083,9.833,22,23.75,17.917,38.918-2.75,10.333-14,21.25-25.5,18a23.285,23.285,0,0,1-14.75-13.25,27.847,27.847,0,0,0-8.917-11.083,28.328,28.328,0,0,0-13.333-4.917,25.075,25.075,0,0,1-10.083-3.167l40.584-34Z" transform="translate(-5.581 -7.635)" fill="#f5f5f5"/>
      <path id="Path_44" data-name="Path 44" d="M487.955,146.812c-10.794,22.323-39.434,38.889-62.308,48.462-5.275,2.272-4.456,6.192-10,7.692-42.015,10.681-73.165,37.216-83.846,79.231-7.412,29.84-59.378,57.3-86.953,70.9a66.075,66.075,0,0,1-12.75,4.417A119.787,119.787,0,0,1,154.346,292.6c-28.668-63.334,9.25-131.753,50.584-182.671a269.319,269.319,0,0,1,39.584-39.584c34-27.584,75.835-53.668,118.752-59.418,10.445,1.525,20.449-4.335,30.073,0C405.58,16.446,439.7,23.581,454.108,34.5c35.824,27.167,49.74,78.011,33.846,112.308Z" transform="translate(-2.403 -0.23)" fill="#b8bdff"/>
      <g id="Group_15" data-name="Group 15" transform="translate(247.113 52.428)">
        <path id="Path_45" data-name="Path 45" d="M363.244,99a27.6,27.6,0,0,1,14.092,1.525A23.628,23.628,0,0,0,397.2,99.429c10.384-5.833,10.651-21.484,5.292-30.767-7.85-13.616-25.392-15.7-40.209-14.833a61.02,61.02,0,0,0-12.5,2.033C335.47,59.754,319.494,67.3,316.378,82.7c-2.125,10.517,3.1,25.242,14.8,27.5a23.624,23.624,0,0,0,19.167-5.276A27.7,27.7,0,0,1,363.244,99Z" transform="translate(-253.534 -53.659)" fill="#f5f5f5"/>
        <circle id="Ellipse_8" data-name="Ellipse 8" cx="20.833" cy="20.833" r="20.833" transform="translate(0 56.405)" fill="#f5f5f5"/>
      </g>
      <path id="Path_48" data-name="Path 48" d="M195.443,128.277a8.333,8.333,0,0,0,11.609-1.559,8.621,8.621,0,0,0,1.708-6.067l-.366-1.55a6.429,6.429,0,0,0-.708-1.525,5.375,5.375,0,0,0-.833-1.325,13.006,13.006,0,0,0-1.191-1.175,7.927,7.927,0,0,0-9.234-.684,8.086,8.086,0,0,0-3.092,11.45,8.311,8.311,0,0,0,2.107,2.434Z" transform="translate(-4.498 -3.602)" fill="#3e4493"/>
      <path id="Path_49" data-name="Path 49" d="M428.224,12.914C373.789-11.653,309.4,5.756,236.854,64.649A280.27,280.27,0,0,0,211.612,87.89a8.267,8.267,0,0,0,.325,11.875,8.477,8.477,0,0,0,11.667-.316A261,261,0,0,1,247.364,77.59c67.251-54.56,125.811-71.226,173.995-49.484a113.586,113.586,0,0,1,56.926,60.926,67.239,67.239,0,0,1-.566,52.126,96.03,96.03,0,0,1-63.135,50.7,126.152,126.152,0,0,0-91.3,91.3,96.02,96.02,0,0,1-50.709,63.126,67.252,67.252,0,0,1-52.117.575,113.613,113.613,0,0,1-60.926-56.893,115.927,115.927,0,0,1-8.75-32.876,133.959,133.959,0,0,1,1.842-34.326,190.478,190.478,0,0,1,10.442-33.5A269.172,269.172,0,0,1,179.421,157.6c1.342-2.342,2.892-4.575,4.316-6.866a8.526,8.526,0,0,0-2.5-11.475,8.209,8.209,0,0,0-11.575,2.5c-1.509,2.417-3.125,4.759-4.542,7.234a285.371,285.371,0,0,0-17.451,33.817,206.469,206.469,0,0,0-11.45,36.817,149.93,149.93,0,0,0-2.075,39.093c.075.733.225,1.45.316,2.175C67.725,275.628,24.982,306.37,7.566,352.421A131.155,131.155,0,0,0,10.9,448.664a82.619,82.619,0,0,0,46.609,45,112.5,112.5,0,0,0,94.511-9.925,114.81,114.81,0,0,1,56.26-15.533,114.757,114.757,0,0,1,56.277,15.567,119.06,119.06,0,0,0,58.918,16.159,103.169,103.169,0,0,0,35.584-6.234,82.712,82.712,0,0,0,46.668-45.1,131.068,131.068,0,0,0,3.333-96.177,132,132,0,0,0-67.834-71.051,112.775,112.775,0,0,1,26.9-44.609,114.725,114.725,0,0,1,50.834-28.793,112.65,112.65,0,0,0,73.868-59.777,82.877,82.877,0,0,0,1.066-64.952,131.151,131.151,0,0,0-65.669-70.326ZM317.23,331.5a53.858,53.858,0,0,1,6.35,4.776c8.7,7.717,18.434,19.276,15.4,30.534a19.414,19.414,0,0,1-8.475,10.984,8.668,8.668,0,0,1-6.767,1.134,15,15,0,0,1-9.366-8.651,36.323,36.323,0,0,0-11.667-14.442,34.8,34.8,0,0,0-7.217-3.866A107.246,107.246,0,0,0,317.23,331.5Zm76.259,26.817a113.6,113.6,0,0,1-2.9,83.335,67.158,67.158,0,0,1-37.267,36.392,95.918,95.918,0,0,1-80.493-8.741,128.254,128.254,0,0,0-129.111,0,95.956,95.956,0,0,1-80.5,8.741,67.065,67.065,0,0,1-37.2-36.326,113.662,113.662,0,0,1-2.858-83.4c15.259-40.35,53.793-67.577,114.46-81.077a142.055,142.055,0,0,0,6.667,19.567,131.139,131.139,0,0,0,70.3,65.652,92.268,92.268,0,0,0,32.234,6.083,77.433,77.433,0,0,0,27.442-5.05,32.808,32.808,0,0,0,9.342,2.5,20.165,20.165,0,0,1,9.333,3.333,19.544,19.544,0,0,1,6.208,7.75,31.474,31.474,0,0,0,20.092,17.859,23.716,23.716,0,0,0,6.5.908,26.166,26.166,0,0,0,12.984-3.6,35.887,35.887,0,0,0,16.333-21.159c2.892-10.75,1.667-27.684-20.409-47.293a71.686,71.686,0,0,0-8.116-6.134,121.6,121.6,0,0,0,9.55-20.292A114.955,114.955,0,0,1,393.49,358.313Z" transform="translate(0 -1)" fill="#3e4493"/>
      <path id="Path_50" data-name="Path 50" d="M328.914,119.18a29.4,29.4,0,0,0,5.533.525,32.642,32.642,0,0,0,20.467-7.5,18.335,18.335,0,0,1,18.809-3.066,31.933,31.933,0,0,0,26.867-1.667,25.059,25.059,0,0,0,11.833-15.7A35.878,35.878,0,0,0,409.007,65.3c-8.042-13.984-24.168-20.4-47.9-18.992a69.676,69.676,0,0,0-14.167,2.316C324,54.854,310.746,66.038,307.546,81.855a35.9,35.9,0,0,0,5.2,26.2,25.008,25.008,0,0,0,16.168,11.124Zm-5.059-34.017C325.705,76,334.931,69.146,351.281,64.7a53.126,53.126,0,0,1,10.833-1.759q2.622-.164,5.25-.167c13.942,0,23.092,3.642,27.251,10.833a19.5,19.5,0,0,1,1.767,13.767,8.7,8.7,0,0,1-3.934,5.583,15.334,15.334,0,0,1-12.859.542,35,35,0,0,0-35.134,5.734A15.3,15.3,0,0,1,332.1,102.8a8.683,8.683,0,0,1-5.509-4.042,19.489,19.489,0,0,1-2.731-13.6Zm-70.8,25.9a29.167,29.167,0,1,0,41.25,0,29.884,29.884,0,0,0-41.25,0Zm29.459,29.476a12.5,12.5,0,1,1,0-17.684,12.5,12.5,0,0,1,0,17.684Z" transform="translate(-5.726 -2.03)" fill="#3e4493"/>
    </g>
  </g>
</svg>
