<svg xmlns="http://www.w3.org/2000/svg" xmlns:xlink="http://www.w3.org/1999/xlink" width="500" height="500" viewBox="0 0 500 500">
  <defs>
    <clipPath id="clip-category-3">
      <rect width="500" height="500"/>
    </clipPath>
  </defs>
  <g id="category-3" clip-path="url(#clip-category-3)">
    <g id="Group_25" data-name="Group 25" transform="translate(-5.421 -5.49)">
      <path id="Path_73" data-name="Path 73" d="M226.892,201.072l-4.338,69.267-6.922,109.677-4.094,64.978a35.765,35.765,0,0,1-35.73,33.537H91.623a35.763,35.763,0,0,1-35.73-33.537l-4.1-64.978L44.876,270.339l-4.338-69.267Z" fill="#b8bdff"/>
      <path id="Path_74" data-name="Path 74" d="M44.974,271.9H222.456l-8.579,135.8H53.553m200.4-220.493a13.844,13.844,0,0,1-13.844,13.844H27.328a13.844,13.844,0,1,1,0-27.688H240.11A13.844,13.844,0,0,1,253.954,187.21Z" fill="#fff"/>
      <path id="Path_75" data-name="Path 75" d="M199.344,147.662v25.7H68.1v-25.7a20.647,20.647,0,0,1,20.646-20.646H178.7A20.647,20.647,0,0,1,199.344,147.662Z" fill="#b8bdff"/>
      <path id="Path_76" data-name="Path 76" d="M146.693,64.5l8.136,62.517h-42.22L120.745,64.5a5.149,5.149,0,0,1,5.106-4.484h15.737a5.148,5.148,0,0,1,5.1,4.484Z" fill="#fff"/>
      <path id="Path_77" data-name="Path 77" d="M117.268,91.221l-4.659,35.795h42.22l-4.658-35.795Z" fill="#fff"/>
      <circle id="Ellipse_11" data-name="Ellipse 11" cx="34.512" cy="34.512" r="34.512" transform="translate(94.804 308.823)" fill="#b8daff"/>
      <path id="Path_78" data-name="Path 78" d="M458.046,199.224h-11.67L431.407,43.6a21.063,21.063,0,0,0-20.966-19.046H384.4A21.063,21.063,0,0,0,363.436,43.6L348.467,199.224H336.8a40.47,40.47,0,0,0-40.47,40.47V446.976a40.47,40.47,0,0,0,40.47,40.47H458.046a40.47,40.47,0,0,0,40.47-40.47V239.694A40.47,40.47,0,0,0,458.046,199.224Z" fill="#fff"/>
      <path id="Path_79" data-name="Path 79" d="M458.046,199.224h-11.67L431.407,43.6a21.063,21.063,0,0,0-20.966-19.046H384.4A21.063,21.063,0,0,0,363.436,43.6L348.467,199.224H336.8a40.47,40.47,0,0,0-40.47,40.47V446.976a40.47,40.47,0,0,0,40.47,40.47H458.046a40.47,40.47,0,0,0,40.47-40.47V239.694A40.47,40.47,0,0,0,458.046,199.224Z" fill="#fff"/>
      <path id="Path_80" data-name="Path 80" d="M473.025,258.729V433.3a24.332,24.332,0,0,1-24.332,24.332H346.15A24.332,24.332,0,0,1,321.818,433.3V258.729A24.332,24.332,0,0,1,346.15,234.4H448.693A24.332,24.332,0,0,1,473.025,258.729ZM434.463,75.373,431.407,43.6a21.062,21.062,0,0,0-20.966-19.046H384.4A21.063,21.063,0,0,0,363.436,43.6L360.38,75.373Z" fill="#b8bdff"/>
      <g id="Group_24" data-name="Group 24">
        <path id="Path_81" data-name="Path 81" d="M27.329,207.118h7.518l14.99,238.251a41.911,41.911,0,0,0,41.787,39.224h84.184a41.9,41.9,0,0,0,41.777-39.217l15-238.258h7.519a19.907,19.907,0,1,0,0-39.814h-34.7V156.253h29.618a28.205,28.205,0,0,0,0-56.411H157.4l-4.7-36.124a11.234,11.234,0,0,0-11.117-9.767H125.85a11.235,11.235,0,0,0-11.117,9.767l-7.227,55.523-.223,1.712H88.74a26.74,26.74,0,0,0-26.71,26.708V167.3h-34.7a19.907,19.907,0,1,0,0,39.814ZM208.184,401.64H59.245L56.7,361.347l-5.247-83.386H215.978L208.184,401.64ZM50.69,265.836,47,207.135H220.438l-3.7,58.7ZM175.809,472.467H91.624a29.769,29.769,0,0,1-29.685-27.854L60,413.766H207.426l-1.943,30.854A29.756,29.756,0,0,1,175.809,472.467Zm59.217-360.5a16.08,16.08,0,0,1,0,32.16h-29.88A26.732,26.732,0,0,0,178.7,120.954H160.153l-1.17-8.985h76.043ZM122.592,97.285h22.253l3.084,23.669h-28.42Zm4.06-31.208h14.134l2.484,19.082h-19.1Zm-52.5,81.584A14.6,14.6,0,0,1,88.74,133.079H178.7a14.6,14.6,0,0,1,14.584,14.582V167.3H74.156ZM27.329,179.43h212.78a7.781,7.781,0,1,1,0,15.562H27.329a7.781,7.781,0,1,1,0-15.562Z" fill="#3e4493"/>
        <path id="Path_82" data-name="Path 82" d="M138.569,382.84a40.627,40.627,0,0,0,30.253-48.757v0a40.221,40.221,0,0,0-8.1-16.353c1.623-3.91,3.591-6.4,6.112-7.577a6.063,6.063,0,1,0-5.135-10.984,23.044,23.044,0,0,0-10.368,10.15,40.552,40.552,0,1,0-12.761,73.523Zm-15.74-67.2a28.448,28.448,0,1,1-21.215,34.189,28.487,28.487,0,0,1,21.215-34.189Zm381.75-75.943a46.586,46.586,0,0,0-46.533-46.533h-6.162L441.443,84.616h3.738a6.063,6.063,0,0,0,0-12.126h-4.9l-2.835-29.474a27.014,27.014,0,0,0-27-24.526H384.4a27.015,27.015,0,0,0-27,24.526L354.567,72.49h-4.9a6.063,6.063,0,0,0,0,12.126H353.4L342.96,193.161H336.8a46.586,46.586,0,0,0-46.533,46.533V446.977A46.586,46.586,0,0,0,336.8,493.51H458.047a46.586,46.586,0,0,0,46.533-46.533V239.694ZM384.4,30.616h26.042a14.941,14.941,0,0,1,14.93,13.561l2.416,25.133H367.056l2.416-25.133A14.94,14.94,0,0,1,384.4,30.616ZM492.453,446.977a34.447,34.447,0,0,1-34.407,34.407H336.8a34.447,34.447,0,0,1-34.407-34.407V239.694A34.447,34.447,0,0,1,336.8,205.287h11.671a6.063,6.063,0,0,0,6.034-5.482L365.581,84.616h63.681L440.34,199.8a6.063,6.063,0,0,0,6.034,5.483h11.671a34.447,34.447,0,0,1,34.407,34.407V446.977Z" fill="#3e4493"/>
        <path id="Path_83" data-name="Path 83" d="M448.691,228.333H346.148a30.43,30.43,0,0,0-30.395,30.4V433.3A30.43,30.43,0,0,0,346.148,463.7H448.692A30.43,30.43,0,0,0,479.087,433.3V258.728A30.431,30.431,0,0,0,448.691,228.333ZM466.961,433.3a18.288,18.288,0,0,1-18.269,18.269H346.148A18.288,18.288,0,0,1,327.879,433.3V258.728a18.288,18.288,0,0,1,18.269-18.269H448.692a18.288,18.288,0,0,1,18.269,18.269Z" fill="#3e4493"/>
        <path id="Path_84" data-name="Path 84" d="M445.182,288.365H349.663a6.063,6.063,0,1,0,0,12.126h95.519a6.063,6.063,0,0,0,0-12.126Zm0,51.587H349.663a6.063,6.063,0,1,0,0,12.126h95.519a6.063,6.063,0,0,0,0-12.126Zm-13.869,51.589H363.532a6.063,6.063,0,0,0,0,12.126h67.781a6.063,6.063,0,0,0,0-12.126Z" fill="#3e4493"/>
      </g>
    </g>
  </g>
</svg>
