<svg xmlns="http://www.w3.org/2000/svg" xmlns:xlink="http://www.w3.org/1999/xlink" width="500" height="500" viewBox="0 0 500 500">
  <defs>
    <clipPath id="clip-category-17">
      <rect width="500" height="500"/>
    </clipPath>
  </defs>
  <g id="category-17" clip-path="url(#clip-category-17)">
    <g id="Group_1" data-name="Group 1" transform="translate(-6.326 -6.094)">
      <path id="Path_2" data-name="Path 2" d="M391.895,436.881V277.222H323.643a28.017,28.017,0,0,0-28.017,28.017V408.863a28.017,28.017,0,0,0,28.017,28.017H391.9Z" fill="#b8bdff"/>
      <path id="Path_4" data-name="Path 4" d="M350.188,63.727V78.313a11.536,11.536,0,0,1-11.536,11.536H264.3a11.536,11.536,0,0,1-11.536-11.536V63.727A11.536,11.536,0,0,1,264.3,52.191h74.348A11.536,11.536,0,0,1,350.188,63.727ZM134.859,293.637c-9.2,23.059-14.755,48.1-14.755,63.474a62.436,62.436,0,0,0,124.872,0c0-15.373-5.558-40.415-14.755-63.474Z" fill="#b8bdff"/>
      <path id="Path_5" data-name="Path 5" d="M174.762,426.8v62.544H138.043a7.778,7.778,0,0,0,0,15.556H369.608a30.1,30.1,0,0,0,30.065-30.065V255.748a76.272,76.272,0,0,0-33.761-63.389,60.711,60.711,0,0,1-26.886-50.472v-44.3a19.316,19.316,0,0,0,18.941-19.275V63.726a19.316,19.316,0,0,0-18.941-19.275V30.182A23.115,23.115,0,0,0,315.934,7.094H287.02a23.114,23.114,0,0,0-23.088,23.088V44.45a19.314,19.314,0,0,0-18.941,19.275V78.313a19.312,19.312,0,0,0,18.941,19.275v44.3a60.738,60.738,0,0,1-26.89,50.476,76.27,76.27,0,0,0-33.761,63.385V285.86H134.86a7.778,7.778,0,0,0-7.224,4.9c-9.3,23.312-15.31,49.359-15.31,66.355A70.259,70.259,0,0,0,174.762,426.8Zm15.557,0a69.775,69.775,0,0,0,12.963-2.673v50.711a29.7,29.7,0,0,0,3.9,14.506H190.319Zm193.8,2.3H323.64a20.261,20.261,0,0,1-20.236-20.24V305.241A20.261,20.261,0,0,1,323.64,285h60.476ZM279.489,30.182a7.542,7.542,0,0,1,7.531-7.531h28.914a7.542,7.542,0,0,1,7.535,7.531V44.409H279.488V30.182ZM260.548,78.314V63.726A3.762,3.762,0,0,1,264.3,59.97H338.65a3.762,3.762,0,0,1,3.76,3.756V78.314a3.762,3.762,0,0,1-3.76,3.756H264.3a3.762,3.762,0,0,1-3.756-3.756Zm-41.71,177.435a60.732,60.732,0,0,1,26.89-50.476,76.27,76.27,0,0,0,33.761-63.385V97.642H323.47v44.247a76.26,76.26,0,0,0,33.761,63.385,60.723,60.723,0,0,1,26.886,50.476v13.7H323.641a35.836,35.836,0,0,0-35.792,35.8V408.863a35.836,35.836,0,0,0,35.792,35.8h60.476v30.183a14.526,14.526,0,0,1-14.508,14.508H233.347a14.526,14.526,0,0,1-14.508-14.508v-57.8a70.091,70.091,0,0,0,33.916-59.934c0-17-6.008-43.043-15.31-66.355a7.777,7.777,0,0,0-7.224-4.9H218.838ZM140.2,301.417h84.681c7.444,20.038,12.317,41.881,12.317,55.694a54.657,54.657,0,0,1-109.314,0C127.884,343.3,132.756,321.455,140.2,301.417Z" fill="#3e4493"/>
    </g>
  </g>
</svg>
