<svg xmlns="http://www.w3.org/2000/svg" xmlns:xlink="http://www.w3.org/1999/xlink" width="500" height="500" viewBox="0 0 500 500">
  <defs>
    <clipPath id="clip-category-14">
      <rect width="500" height="500"/>
    </clipPath>
  </defs>
  <g id="category-14" clip-path="url(#clip-category-14)">
    <g id="Group_8" data-name="Group 8" transform="translate(-5.981 -5.982)">
      <circle id="Ellipse_1" data-name="Ellipse 1" cx="58.882" cy="58.882" r="58.882" transform="matrix(0.811, -0.585, 0.585, 0.811, 150.497, 265.877)" fill="#b8bdff"/>
      <path id="Path_19" data-name="Path 19" d="M273.839,62.351,311.07,25.12,486.852,200.9,449.62,238.131Z" fill="#b8bdff"/>
      <path id="Path_21" data-name="Path 21" d="M39.848,394.06,64.506,369.4l78,78-24.658,24.658Z" fill="#b8bdff"/>
      <g id="Group_7" data-name="Group 7">
        <path id="Path_22" data-name="Path 22" d="M27.74,397.627a29.861,29.861,0,0,0,0,42.255L72.121,484.26a29.859,29.859,0,0,0,42.252,0l28.942-28.942a27.627,27.627,0,0,0,30.65-1.747L453.354,242.988a5.893,5.893,0,0,0,.482-.452c.048-.045.111-.058.158-.1L491.232,205.2a6.09,6.09,0,0,0,0-8.618L315.424,20.768a6.093,6.093,0,0,0-8.619,0L269.569,58c-.049.049-.063.115-.11.166a6.119,6.119,0,0,0-.447.477L58.426,338.04a27.889,27.889,0,0,0-1.746,30.646Zm90.168,65.862-69.394-69.4,16.043-16.043,69.395,69.4ZM80.74,475.642,36.359,431.264a17.683,17.683,0,0,1,0-25.018l3.537-3.537,69.394,69.4-3.534,3.534a18.113,18.113,0,0,1-25.016,0ZM311.114,33.695,478.3,200.885,449.684,229.5,282.5,62.312ZM68.159,345.373,274.526,71.579,440.419,237.474,166.627,443.839a15.7,15.7,0,0,1-20.459-1.417L69.59,365.843A15.709,15.709,0,0,1,68.159,345.373Z" fill="#3e4493"/>
        <path id="Path_23" data-name="Path 23" d="M278.619,325.274a64.977,64.977,0,1,0-91.89,0A64.927,64.927,0,0,0,278.619,325.274ZM195.345,242a52.788,52.788,0,1,1,0,74.653,52.849,52.849,0,0,1,0-74.653Z" fill="#3e4493"/>
      </g>
    </g>
  </g>
</svg>
