<svg xmlns="http://www.w3.org/2000/svg" xmlns:xlink="http://www.w3.org/1999/xlink" width="500" height="500" viewBox="0 0 500 500">
  <defs>
    <clipPath id="clip-category-2">
      <rect width="500" height="500"/>
    </clipPath>
  </defs>
  <g id="category-2" clip-path="url(#clip-category-2)">
    <g id="Group_26" data-name="Group 26" transform="translate(-5.529 -5.794)">
      <path id="Path_85" data-name="Path 85" d="M155.223,440.5c-41.746-17.358-72.29-56.942-83.423-100.761s-4.068-91.107,14.7-132.24,48.648-76.473,82.724-106.186,72.392-54.132,111.11-77.477c3.2-1.931,6.083-4.292,9.369-6.078-6.357,64.9,1.364,125.248,22.335,177.723,16.767,41.955,16.332,109.687-3.932,150.069a143.609,143.609,0,0,1-25.522,36.415c-17.73,18.127-35.824,36.532-58.13,48.59s-45.815,19.68-69.229,9.945Z" fill="#fefdfe"/>
      <path id="Path_86" data-name="Path 86" d="M115.347,467.741C88.155,431.621,81.884,382.018,94.493,338.6s42.664-80.6,79.686-106.552,80.693-41.272,125.127-49.618,89.841-9.979,135.049-10.483c3.739-.042,7.419-.617,11.157-.492-38.372,52.731-62.3,108.665-70.811,164.53-6.807,44.665-41.507,102.836-79.442,127.378A143.594,143.594,0,0,1,254.8,481.821c-24.471,6.641-49.4,13.338-74.737,12.429S130.6,488,115.347,467.741Z" fill="#b8bdff"/>
      <path id="Path_87" data-name="Path 87" d="M82.353,381.209c-.33,47.135,20.207,86.406,39.825,102.078,33.794,27,89.411,16.434,134.184,4.283a148.381,148.381,0,0,0,42.133-19.207c37.959-24.555,74.787-83.536,82.093-131.48,8.452-55.467,31.918-109.946,69.741-161.923a5.959,5.959,0,0,0-4.617-9.46c-.477-.014-81.745.375-134.863,8.916C295.3,127.1,290.105,74.736,295.627,18.333a5.957,5.957,0,0,0-8.778-5.813c-22.691,12.359-86.709,53.924-121.54,84.3-38.419,33.5-66.758,69.9-84.234,108.2C60.513,250.1,55.166,298.461,66.024,341.2a161.451,161.451,0,0,0,16.329,40.007Zm286.461-46.123c-6.865,45.024-41.31,100.323-76.788,123.275a136.747,136.747,0,0,1-38.783,17.709c-34.767,9.441-85.168,21.826-118.9.94q30.072-55.174,62.168-94.687a94.086,94.086,0,0,0,64.313,14.36,5.957,5.957,0,1,0-1.582-11.808A82.47,82.47,0,0,1,204.211,373.1c33.467-38.916,68.856-65.714,106.8-80.953a5.958,5.958,0,1,0-4.44-11.058,246.7,246.7,0,0,0-51.5,28.518c-9.986-18.172-15.5-34.871-17.148-52.068a5.957,5.957,0,0,0-11.859,1.136c1.853,19.331,8.085,37.933,19.388,58.123q-27.9,21.764-54,53.015c-1.456,1.24-15.331,18.853-25,32.536-10.374-18.6-16.086-35.627-17.764-53.159a5.957,5.957,0,1,0-11.859,1.135c1.987,20.767,8.959,40.677,21.944,62.66.055.093.136.159.2.248q-17.409,25.84-34.145,56.374c-24.236-24.412-39.55-77.885-24.607-129.344,11.542-39.748,39.025-76.448,77.388-103.337,33.072-23.18,74.391-39.546,122.8-48.64,41.519-7.8,83.322-9.8,133.237-10.372-34.836,50.534-56.627,103.353-64.827,157.175ZM91.919,209.968c16.759-36.744,44.088-71.792,81.218-104.17,31.839-27.764,66.861-50.671,109.6-76.46-3.809,52.8,1.7,102.1,16.218,147.109-.249.046-.5.081-.748.128-50.1,9.411-92.975,26.433-127.448,50.6-40.574,28.439-69.69,67.424-81.986,109.769a161.777,161.777,0,0,0-4.563,21.11,146.783,146.783,0,0,1-6.635-19.779c-10.191-40.121-5.1-85.687,14.345-128.3Z" fill="#3e4493"/>
    </g>
  </g>
</svg>
