<svg xmlns="http://www.w3.org/2000/svg" xmlns:xlink="http://www.w3.org/1999/xlink" width="500" height="500" viewBox="0 0 500 500">
  <defs>
    <clipPath id="clip-category-6">
      <rect width="500" height="500"/>
    </clipPath>
  </defs>
  <g id="category-6" clip-path="url(#clip-category-6)">
    <g id="Group_21" data-name="Group 21" transform="translate(-5.008 -5.526)">
      <path id="Path_62" data-name="Path 62" d="M274.183,16.09H84.269A24.181,24.181,0,0,0,60.428,44.345c26.894,156.636,48.478,303.817,48.192,412.064a31.937,31.937,0,0,0,26.618,31.584c81.974,13.737,163,14.124,243.006.145A31.917,31.917,0,0,0,404.6,456.875c.564-83.754,12.573-174.161,31.052-268.328a49.459,49.459,0,0,0-13.612-44.416Q364.8,86.817,307.328,29.742A47.049,47.049,0,0,0,274.183,16.09Z" fill="#b8bdff"/>
      <path id="Path_63" data-name="Path 63" d="M420.539,108.007l-11.132,11.132a8.58,8.58,0,0,1-12.134,0L346.227,68.093a8.58,8.58,0,0,1,0-12.134l11.132-11.132a8.58,8.58,0,0,1,12.134,0l51.046,51.046a8.58,8.58,0,0,1,0,12.134Z" fill="#fff"/>
      <path id="Path_64" data-name="Path 64" d="M448.895,57.287l-33.47,33.47L374.609,49.941l33.47-33.47a10.389,10.389,0,0,1,14.692,0L448.895,42.6a10.389,10.389,0,0,1,0,14.692Z" fill="#b8bdff"/>
      <ellipse id="Ellipse_10" data-name="Ellipse 10" cx="102.224" cy="70.339" rx="102.224" ry="70.339" transform="translate(146.096 134.641)" fill="#fff"/>
      <g id="Group_20" data-name="Group 20">
        <path id="Path_65" data-name="Path 65" d="M453.182,38.308l-26.123-26.12a16.847,16.847,0,0,0-23.266,0L374.607,41.368l-.83-.83a14.662,14.662,0,0,0-20.7,0L341.942,51.67a14.788,14.788,0,0,0-1.794,2.182c-9.522-9.475-19.068-18.994-28.549-28.409a52.777,52.777,0,0,0-37.415-15.415H84.269A30.247,30.247,0,0,0,54.452,45.37c23.958,139.511,48.4,297.44,48.1,411.022a37.845,37.845,0,0,0,31.679,37.581c85.521,14.331,167.88,13.623,245.05.137a37.95,37.95,0,0,0,31.376-37.194c.512-76.314,10.634-163.717,30.94-267.2a55.419,55.419,0,0,0-15.271-49.867c-4.879-4.885-9.823-9.81-14.72-14.708,2.094-1.442,1.9-1.654,13.214-12.845a14.63,14.63,0,0,0,0-20.709L424,90.759l29.185-29.185a16.474,16.474,0,0,0,0-23.266ZM429.7,187.38c-20.453,104.235-30.646,192.374-31.167,269.456A25.824,25.824,0,0,1,377.2,482.165c-77.989,13.632-159.052,13.578-240.962-.152a25.764,25.764,0,0,1-21.556-25.587c.3-114.508-24.237-273.086-48.281-413.109A18.118,18.118,0,0,1,84.27,22.154H274.186a40.715,40.715,0,0,1,28.87,11.9c38.13,37.862,76.719,76.34,114.693,114.366A43.3,43.3,0,0,1,429.7,187.38ZM416.25,103.719v0l-11.131,11.131a2.522,2.522,0,0,1-3.562,0L350.515,63.8a2.51,2.51,0,0,1,0-3.557l11.131-11.133a2.528,2.528,0,0,1,3.562,0l51.042,51.049a2.51,2.51,0,0,1,0,3.557ZM444.609,53,415.427,82.183,383.181,49.94l29.191-29.184a4.416,4.416,0,0,1,6.11,0l9.885,9.884L409.255,47.554a6.062,6.062,0,1,0,8.033,9.08l19.669-17.4,7.652,7.651a4.335,4.335,0,0,1,0,6.12Z" fill="#3e4493"/>
        <path id="Path_66" data-name="Path 66" d="M140.033,204.981c0,42.128,48.579,76.4,108.289,76.4s108.284-34.272,108.284-76.4-48.574-76.4-108.284-76.4-108.289,34.274-108.289,76.4Zm204.448,0c0,35.44-43.137,64.274-96.159,64.274s-96.163-28.834-96.163-64.274,43.137-64.276,96.163-64.276S344.481,169.539,344.481,204.981Zm-5.85,137.275h-175.3a6.063,6.063,0,1,0,0,12.126h175.3a6.063,6.063,0,0,0,0-12.126Zm-76.762,56.435H158.009a6.063,6.063,0,1,0,0,12.126h103.86a6.063,6.063,0,0,0,0-12.126Z" fill="#3e4493"/>
        <path id="Path_67" data-name="Path 67" d="M213.508,169.575v70.81c0,8.015,12.126,8.028,12.126,0V186.66l17.98,22.144a6.069,6.069,0,0,0,9.3.142L271.006,188v52.387c0,8.015,12.126,8.028,12.126,0V171.7a6.07,6.07,0,0,0-10.653-3.965l-24.015,27.8-24.185-29.789a6.069,6.069,0,0,0-10.771,3.823Z" fill="#3e4493"/>
      </g>
    </g>
  </g>
</svg>
