<svg xmlns="http://www.w3.org/2000/svg" xmlns:xlink="http://www.w3.org/1999/xlink" width="500" height="500" viewBox="0 0 500 500">
  <defs>
    <clipPath id="clip-category-7">
      <rect width="500" height="500"/>
    </clipPath>
  </defs>
  <g id="category-7" clip-path="url(#clip-category-7)">
    <g id="Group_19" data-name="Group 19" transform="translate(-5.093 -5.823)">
      <path id="Path_57" data-name="Path 57" d="M212.145,179.856a63.245,63.245,0,0,0-125.1,0c-4.042,25.965-9.7,47.705-32.432,74.952-24.542,29.42-39.741,76.735-39.741,106.031,0,58.318,60.348,105.563,134.722,105.563,74.466,0,134.723-47.245,134.723-105.563,0-29.289-15.191-76.64-39.723-106.048-21.585-25.876-28.1-46.97-32.449-74.935Z" fill="#b8bdff"/>
      <path id="Path_59" data-name="Path 59" d="M497.13,316.444c0,54.344-44.176,149.958-98.605,149.958-11.558,0-22.652-4.328-32.942-11.647a35.978,35.978,0,0,0-41.436,0c-10.29,7.318-21.384,11.647-32.942,11.647-54.429,0-98.52-95.615-98.52-149.958a98.523,98.523,0,0,1,152.18-82.712A98.589,98.589,0,0,1,497.13,316.444Z" fill="#b8bdff"/>
      <path id="Path_61" data-name="Path 61" d="M149.6,474.177c34.092,0,65.268-9.708,89.8-25.658,15.087,15.548,32.645,25.658,51.813,25.658,12.655,0,25.249-4.406,37.441-13.08a28.369,28.369,0,0,1,32.42-.008c12.207,8.682,24.809,13.088,37.456,13.088,61.459,0,106.382-103.739,106.382-157.732a106.333,106.333,0,0,0-152.429-95.871c.534-18,4.6-49.623,26.381-54.128a7.781,7.781,0,0,0-3.16-15.238c-18.045,3.736-27.757,17.709-33.007,33.15a87.447,87.447,0,0,0-18.023-27.065C298.378,131,258.1,129.674,256.4,129.628a8.361,8.361,0,0,0-5.7,2.279,7.787,7.787,0,0,0-2.279,5.7c.663,24.765,11.811,55.465,32.784,72.966A105.406,105.406,0,0,0,234.543,226.6c-8.16-14.994-11.874-29.711-14.709-47.936v-.008a70.9,70.9,0,0,0-63.259-60.117c-.657-10.819.593-33.349,21-41.207a7.781,7.781,0,1,0-5.591-14.523,44.98,44.98,0,0,0-24.492,22,76.118,76.118,0,0,0-15.326-22.7C109.093,39.031,73.787,37.861,72.29,37.823a8.14,8.14,0,0,0-5.7,2.279,7.787,7.787,0,0,0-2.279,5.7c.038,1.489,1.193,36.818,24.269,59.9,9.552,9.558,21.184,15.318,31.665,18.833a71.084,71.084,0,0,0-40.887,54.127c-3.6,23.107-8.4,44.414-30.718,71.175C22.634,281,7.093,330.749,7.093,360.837c0,62.492,63.929,113.34,142.5,113.34ZM489.35,316.445c0,53.484-43.989,142.175-90.826,142.175-9.351,0-18.914-3.433-28.44-10.209a43.561,43.561,0,0,0-50.453.008c-9.51,6.768-19.074,10.2-28.424,10.2-46.792,0-90.742-88.691-90.742-142.175a90.746,90.746,0,0,1,140.154-76.2,7.943,7.943,0,0,0,8.492,0,90.811,90.811,0,0,1,140.239,76.2ZM264.91,146.12c12.025,1.808,33.658,7.072,48.759,22.173s20.373,36.757,22.188,48.782c-12-1.785-33.605-7.011-48.782-22.188-15.1-15.1-20.357-36.743-22.165-48.767ZM80.881,54.375c10.46,1.709,27.893,6.335,40.289,18.732,12.328,12.336,16.977,29.822,18.717,40.312-10.467-1.709-27.908-6.327-40.305-18.724-12.328-12.336-16.969-29.83-18.7-40.32Zm-20.3,205.419c24.839-29.776,30.331-54.243,34.152-78.748a55.465,55.465,0,0,1,109.725.008v-.008c3.172,20.37,7.638,37.355,17.528,54.835a106.133,106.133,0,0,0-37.08,80.564c0,33.186,16.978,85.137,44.308,120.27-21.8,13.623-49.427,21.9-79.622,21.9-70,0-126.945-43.867-126.945-97.784,0-27.315,14.188-72.579,37.934-101.042Z" fill="#3e4493"/>
    </g>
  </g>
</svg>
