<svg xmlns="http://www.w3.org/2000/svg" xmlns:xlink="http://www.w3.org/1999/xlink" width="500" height="500" viewBox="0 0 500 500">
  <defs>
    <clipPath id="clip-category-4">
      <rect width="500" height="500"/>
    </clipPath>
  </defs>
  <g id="category-4" clip-path="url(#clip-category-4)">
    <g id="Group_23" data-name="Group 23" transform="translate(-5.338 -5.338)">
      <path id="Path_68" data-name="Path 68" d="M83.211,347.481a19.011,19.011,0,0,0,0,26.99L100,391.262c-10.593,8.226-22.877,14.03-36.062,15.945a243.374,243.374,0,0,1-52.4-151.234c0-135.008,109.425-244.433,244.489-244.433A243.31,243.31,0,0,1,406.981,63.717a80.683,80.683,0,0,1-15.552,36.343l-16.9-16.9a19.131,19.131,0,0,0-27.046,0l-17.073,17.13L100.341,330.351ZM500.46,255.974c0,135.063-109.426,244.488-244.432,244.488a243.174,243.174,0,0,1-151.01-52.234,81.5,81.5,0,0,1,15.608-36.343l16.9,16.9a19.01,19.01,0,0,0,26.99,0l17.13-17.13L411.714,181.6l17.129-17.073a19.13,19.13,0,0,0,0-27.047l-16.735-16.735c10.537-8.283,22.821-14.087,36.006-16A243.337,243.337,0,0,1,500.46,255.974Z" fill="#fefdfe"/>
      <path id="Path_69" data-name="Path 69" d="M330.4,100.287,100.341,330.351a171.267,171.267,0,0,1-16.848-74.377c0-95.283,77.251-172.478,172.534-172.478A172.043,172.043,0,0,1,330.4,100.287Zm98.1,155.687A172.5,172.5,0,0,1,181.65,411.659L411.714,181.6a172.043,172.043,0,0,1,16.791,74.378Z" fill="#b8bdff"/>
      <g id="Group_22" data-name="Group 22">
        <path id="Path_70" data-name="Path 70" d="M391.38,100.092l20.65,20.65c11.749-9.186,25.694-15.356,40.629-16.5a41.811,41.811,0,0,0,25.913-71.767c-16.112-15.607-42.909-15.4-58.768.547A41.653,41.653,0,0,0,407.9,57.8c-1.74,15.464-7.078,30.235-16.519,42.3ZM120.64,411.911l-20.65-20.65c-11.749,9.186-25.694,15.356-40.629,16.5a41.811,41.811,0,0,0-25.913,71.767c16.112,15.607,42.909,15.4,58.768-.547a41.653,41.653,0,0,0,11.9-24.778c1.74-15.464,7.078-30.236,16.519-42.3Z" fill="#fefdfe"/>
        <path id="Path_71" data-name="Path 71" d="M428.836,164.513,164.545,428.8a19.032,19.032,0,0,1-27.011,0L83.208,374.479a19.031,19.031,0,0,1,0-27.013L347.5,83.175a19.088,19.088,0,0,1,27.014,0L428.837,137.5A19.086,19.086,0,0,1,428.836,164.513Z" fill="#fefdfe"/>
      </g>
      <path id="Path_72" data-name="Path 72" d="M29.264,416.2a47.023,47.023,0,0,0,.564,67.063c18.055,17.489,48.311,17.24,66.065-.6a46.439,46.439,0,0,0,12.947-25.035,246.811,246.811,0,0,0,147.188,48.034c137.649,0,249.634-112.008,249.634-249.687A246.885,246.885,0,0,0,457.723,108.83a47.006,47.006,0,0,0,24.47-80.094c-18.072-17.5-48.328-17.222-66.065.6a46.441,46.441,0,0,0-12.944,25,246.773,246.773,0,0,0-147.156-48c-137.679,0-249.69,111.985-249.69,249.636A246.878,246.878,0,0,0,54.362,403.158a46.8,46.8,0,0,0-25.1,13.046Zm59.264,59.114c-13.818,13.895-37.384,14.111-51.459.48a36.609,36.609,0,0,1,22.692-62.847c14.22-1.093,28.067-6.6,39.726-14.837L113.8,412.43a90.546,90.546,0,0,0-14.85,41.176,36.325,36.325,0,0,1-10.426,21.712ZM425.159,160.835c1.581-1.582-17.961,17.923-264.316,264.275a14.145,14.145,0,0,1-19.634,0c-3.447-3.428-53.527-53.524-54.319-54.316a13.737,13.737,0,0,1,0-19.637L351.175,86.851a13.922,13.922,0,0,1,19.66,0c3.388,3.461,53.789,53.793,54.324,54.327A13.923,13.923,0,0,1,425.159,160.835Zm-15.08,29.791C469.148,329.652,327.4,468.4,190.668,410.038ZM101.97,321.349C42.8,182.733,184.2,43.685,321.365,101.917Zm154.058,173.91A236.613,236.613,0,0,1,110.74,446.087a77,77,0,0,1,10.582-26.141l12.535,12.535a24.327,24.327,0,0,0,34.367,0l14.6-14.6c148.865,67.659,302.249-86.638,235.1-235.1L432.522,168.2c8.759-8.763,10.023-24.38,0-34.4l-12.439-12.439a71,71,0,0,1,25.873-10.921,236.683,236.683,0,0,1,49.3,145.537C495.259,387.917,387.94,495.259,256.028,495.259ZM423.493,36.685c13.816-13.892,37.382-14.113,51.459-.48A36.61,36.61,0,0,1,452.26,99.052c-14.126,1.092-27.885,6.494-39.7,14.819L398.235,99.542c7.614-11.065,13.05-25.328,14.83-41.146a36.311,36.311,0,0,1,10.428-21.711ZM256.028,16.741A236.573,236.573,0,0,1,401.283,65.879,77.055,77.055,0,0,1,390.73,92.006L378.2,79.479a24.362,24.362,0,0,0-34.41,0L329.212,94.068C180.406,26.78,26.676,180.821,94.131,329.189l-14.6,14.6a24.327,24.327,0,0,0,0,34.367L92,390.624l-.023.015a72.306,72.306,0,0,1-25.671,10.878c-.058.013-.117.024-.175.036A236.683,236.683,0,0,1,16.741,255.975c0-131.915,107.342-239.234,239.287-239.234Z" fill="#3e4493"/>
    </g>
  </g>
</svg>
