<svg xmlns="http://www.w3.org/2000/svg" xmlns:xlink="http://www.w3.org/1999/xlink" width="500" height="500" viewBox="0 0 500 500">
  <defs>
    <clipPath id="clip-category-13">
      <rect width="500" height="500"/>
    </clipPath>
  </defs>
  <g id="category-13" clip-path="url(#clip-category-13)">
    <g id="Group_10" data-name="Group 10" transform="translate(-5.338 -5.338)">
      <circle id="Ellipse_2" data-name="Ellipse 2" cx="210.567" cy="210.567" r="210.567" transform="translate(11.54 79.327)" fill="#fefdfe"/>
      <g id="Group_9" data-name="Group 9">
        <path id="Path_24" data-name="Path 24" d="M500.461,213.018a201.289,201.289,0,0,1-87.588,166.189,210.078,210.078,0,0,0,19.8-89.314c0-116.328-94.291-210.567-210.568-210.567a210.085,210.085,0,0,0-89.315,19.8A201.161,201.161,0,0,1,298.982,11.54c111.25,0,201.479,90.178,201.479,201.478Z" fill="#b8bdff"/>
        <circle id="Ellipse_3" data-name="Ellipse 3" cx="25.317" cy="25.317" r="25.317" transform="translate(197.505 138.241)" fill="#b8bdff"/>
        <circle id="Ellipse_4" data-name="Ellipse 4" cx="34.936" cy="34.936" r="34.936" transform="translate(140.947 241.384)" fill="#b8bdff"/>
        <circle id="Ellipse_5" data-name="Ellipse 5" cx="28.149" cy="28.149" r="28.149" transform="translate(278.839 220.022)" fill="#b8bdff"/>
        <circle id="Ellipse_6" data-name="Ellipse 6" cx="20.908" cy="20.908" r="20.908" transform="translate(140.947 363.765)" fill="#b8bdff"/>
        <circle id="Ellipse_7" data-name="Ellipse 7" cx="32.12" cy="32.12" r="32.12" transform="translate(260.575 352.553)" fill="#b8bdff"/>
      </g>
      <path id="Path_25" data-name="Path 25" d="M222.108,505.662c85.755,0,159.971-50.291,194.739-122.924a206.78,206.78,0,0,0,88.815-169.72c0-113.964-92.717-206.68-206.68-206.68A206.7,206.7,0,0,0,129.253,95.159C56.626,129.93,6.338,204.143,6.338,289.895,6.338,408.869,103.131,505.662,222.108,505.662Zm-73.555-418.7A196.274,196.274,0,0,1,298.981,16.741c108.229,0,196.277,88.049,196.277,196.278a196.329,196.329,0,0,1-70.22,150.416A218.071,218.071,0,0,0,437.876,289.9c0-149.33-149.025-253.862-289.323-202.93Zm2.666,10.181C284.55,47.734,427.475,147.185,427.475,289.894c0,112.981-91.908,205.365-205.367,205.365-113.24,0-205.367-92.127-205.367-205.365,0-88.335,56.066-163.816,134.478-192.747Z" fill="#3e4493"/>
      <path id="Path_26" data-name="Path 26" d="M222.821,194.075A30.517,30.517,0,1,0,192.3,163.558,30.552,30.552,0,0,0,222.821,194.075Zm0-50.632a20.114,20.114,0,1,1-20.114,20.114A20.139,20.139,0,0,1,222.821,143.443ZM175.883,316.457a40.137,40.137,0,1,0-40.137-40.137A40.183,40.183,0,0,0,175.883,316.457Zm0-69.872a29.735,29.735,0,1,1-29.735,29.735,29.768,29.768,0,0,1,29.735-29.735Zm131.1,34.936a33.35,33.35,0,1,0-33.349-33.351A33.389,33.389,0,0,0,306.987,281.521Zm0-56.3a22.947,22.947,0,1,1-22.946,22.946,22.974,22.974,0,0,1,22.946-22.946ZM161.854,410.781a26.108,26.108,0,1,0-26.108-26.108A26.139,26.139,0,0,0,161.854,410.781Zm0-41.813a15.7,15.7,0,1,1-15.705,15.7A15.725,15.725,0,0,1,161.854,368.968ZM292.7,421.994a37.321,37.321,0,1,0-37.321-37.321A37.363,37.363,0,0,0,292.7,421.994Zm0-64.239a26.918,26.918,0,1,1-26.918,26.918A26.949,26.949,0,0,1,292.7,357.755Z" fill="#3e4493"/>
    </g>
  </g>
</svg>
