<svg xmlns="http://www.w3.org/2000/svg" xmlns:xlink="http://www.w3.org/1999/xlink" width="500" height="500" viewBox="0 0 500 500">
  <defs>
    <clipPath id="clip-category-1">
      <rect width="500" height="500"/>
    </clipPath>
  </defs>
  <g id="category-1" clip-path="url(#clip-category-1)">
    <g id="Group_28" data-name="Group 28" transform="translate(-5.963 -5.576)">
      <path id="Path_88" data-name="Path 88" d="M106.373,187.539V481.147L28.4,432.2V138.593Z" fill="#b8bdff"/>
      <path id="Path_89" data-name="Path 89" d="M280.84,77.962,107.072,188.221,29.108,139.3,202.876,29.01Z" fill="#fefdfe"/>
      <path id="Path_90" data-name="Path 90" d="M280.84,77.962V370.893L107.072,481.152V188.221Z" fill="#b8bdff"/>
      <path id="Path_91" data-name="Path 91" d="M146.184,203.5l83.4-52.92a11.331,11.331,0,0,1,17.4,9.567V190.58a11.331,11.331,0,0,1-5.26,9.567l-83.4,52.92a11.331,11.331,0,0,1-17.4-9.567V213.064A11.331,11.331,0,0,1,146.184,203.5Z" fill="#fff"/>
      <path id="Path_92" data-name="Path 92" d="M380.5,442.073,395.5,465.2a11.522,11.522,0,0,1-9.666,17.794H263.8a11.522,11.522,0,0,1-9.666-17.794l15-23.125Z" fill="#b8bdff"/>
      <path id="Path_93" data-name="Path 93" d="M455.677,317.411c0,78.7-58.594,142.5-130.861,142.5s-130.861-63.8-130.861-142.5" fill="#fff"/>
      <path id="Path_94" data-name="Path 94" d="M455.677,317.411c0,4.367-2.663,8.563-7.541,12.45-18.04,14.385-66.445,24.682-123.32,24.682s-105.28-10.3-123.32-24.682c-4.878-3.887-7.541-8.083-7.541-12.45,0-20.5,58.594-37.132,130.861-37.132s130.861,16.631,130.861,37.132Z" fill="#b8bdff"/>
      <path id="Path_95" data-name="Path 95" d="M448.136,329.861c-18.04,14.385-66.445,24.682-123.32,24.682s-105.28-10.3-123.32-24.682c2.478-18.721,56.751-33.7,123.32-33.7S445.658,311.14,448.136,329.861Z" fill="#fefdfe"/>
      <path id="Path_96" data-name="Path 96" d="M480.989,236.846a19.485,19.485,0,0,1-12.278,28.77,76.519,76.519,0,0,0-42.159,27.616c-4.988,6.628-9.392,15.12-14.938,22.453-13.318,17.612-41.692,23.228-47.675,9.449,29.18-5.5,38.936-42.571,51.761-62.315a94.97,94.97,0,0,1,40.425-34.512,19.331,19.331,0,0,1,24.5,7.918Z" fill="#b8bdff"/>
      <g id="Group_27" data-name="Group 27">
        <path id="Path_97" data-name="Path 97" d="M251.42,190.58V160.145a15.76,15.76,0,0,0-24.211-13.314l-83.4,52.92a15.683,15.683,0,0,0-7.32,13.311V243.5A15.759,15.759,0,0,0,160.7,256.811l83.4-52.92a15.692,15.692,0,0,0,7.316-13.311Zm-8.867,0a6.861,6.861,0,0,1-3.2,5.822l-83.4,52.92a6.893,6.893,0,0,1-10.592-5.822V213.062a6.861,6.861,0,0,1,3.2-5.822h0l83.4-52.92a6.894,6.894,0,0,1,10.592,5.826Z" fill="#3e4493"/>
        <path id="Path_98" data-name="Path 98" d="M454.3,224.264A100,100,0,0,0,411.982,260.4a187.078,187.078,0,0,0-9.639,17.723c-.743,1.484-1.5,2.986-2.263,4.492-22.692-4.446-49.267-6.771-75.264-6.771-13.218,0-26.594.6-39.542,1.767V77.951a4.632,4.632,0,0,0-2.076-3.744L205.234,25.256a4.428,4.428,0,0,0-4.733.01C152.29,55.563,51.42,120.728,26.251,134.712a4.43,4.43,0,0,0-2.288,3.879V432.2a4.438,4.438,0,0,0,2.076,3.755L104.015,484.9a4.445,4.445,0,0,0,2.357.679c.108,0,.213-.032.321-.04.126.011.25.047.377.047a4.453,4.453,0,0,0,2.376-.689l112.935-71.66a138.938,138.938,0,0,0,38.394,33.571l-10.367,15.978a15.947,15.947,0,0,0,13.387,24.64H385.837a15.946,15.946,0,0,0,13.385-24.64l-10.366-15.978c42.385-24.842,71.255-73.523,71.255-129.4,0-10.373-10.344-18.892-26.75-25.47A72.216,72.216,0,0,1,469.8,269.915c33.819-8.586,15.886-59.788-15.5-45.651ZM359.874,326.9c2.47,5.687,7.849,9.3,15.145,10.173,13.212,1.605,30.621-6.136,40.133-18.714,1.256-1.663,2.422-3.383,3.571-5.105,13.114,4.488,21.721,9.688,24.264,14.824-25.787,17.641-86.533,22.032-118.171,22.032-31.455,0-92.124-4.224-118.172-22.033,6.66-13.451,54.182-27.479,118.172-27.479a376.571,376.571,0,0,1,61.494,4.775c-6.124,7.681-13.529,13.584-23.19,15.4a4.432,4.432,0,0,0-3.246,6.123Zm35.946-36.19q-1.836,3.342-3.853,6.581a390.387,390.387,0,0,0-67.151-5.561c-54.666,0-111.272,10.367-124.788,30.262a8.28,8.28,0,0,1-1.638-4.583c0-15.465,51.921-32.7,126.427-32.7C352.006,284.714,376.078,287.043,395.82,290.711ZM202.888,34.254l69.644,43.727L151.441,154.816l-44.192,28.04L37.623,139.15ZM32.83,429.749V146.871l69.109,43.365V473.128Zm78.674,43.34V190.66l164.9-104.634V278.5c-47.452,5.333-86.884,18.6-86.884,38.908a154.489,154.489,0,0,0,27.528,88.707Zm280.28-5.476a7.084,7.084,0,0,1-5.947,10.945H263.8a7.083,7.083,0,0,1-5.947-10.945l10.768-16.6a125.112,125.112,0,0,0,112.4,0ZM324.815,455.48c-64.652,0-118.091-53.282-125.513-121.746,19.89,15.344,68.967,25.243,125.513,25.243,34.021,0,98.769-4.61,125.514-25.243C442.908,402.2,389.469,455.48,324.815,455.48ZM451.244,317.411a8.271,8.271,0,0,1-1.631,4.572c-4.477-6.553-13.65-12.065-25.88-16.519q2-3.2,4.107-6.32c14.916,5.552,23.4,12.045,23.4,18.267Zm16.376-56.093a80.6,80.6,0,0,0-44.608,29.247c-2.532,3.363-4.823,7.031-7.249,10.914s-4.943,7.907-7.684,11.534c-8.285,10.955-22.78,16.4-32.007,15.257a14.529,14.529,0,0,1-3.793-.942c19.121-7.544,29.482-28.235,37.992-45.231a181.672,181.672,0,0,1,9.147-16.864,91.007,91.007,0,0,1,38.529-32.883c19.7-8.9,30.992,23.565,9.673,28.968Z" fill="#3e4493"/>
      </g>
    </g>
  </g>
</svg>
