<svg width="512" height="512" viewBox="0 0 512 512" fill="none" xmlns="http://www.w3.org/2000/svg">
<g clip-path="url(#clip0_1094_874)">
<path d="M163.326 398.243C133.805 398.243 109.874 422.174 109.874 451.694C109.874 481.216 133.806 505.146 163.326 505.146C192.847 505.146 216.778 481.215 216.778 451.694C216.779 422.174 192.847 398.243 163.326 398.243ZM163.326 481.391C146.926 481.391 133.631 468.096 133.631 451.696C133.631 435.295 146.926 422 163.326 422C179.727 422 193.021 435.295 193.021 451.696C193.022 468.096 179.727 481.391 163.326 481.391ZM389.014 398.243C359.493 398.243 335.562 422.174 335.562 451.694C335.562 481.216 359.494 505.146 389.014 505.146C418.534 505.146 442.466 481.215 442.466 451.694C442.466 422.174 418.535 398.243 389.014 398.243ZM389.014 481.391C372.614 481.391 359.319 468.096 359.319 451.696C359.319 435.295 372.614 422 389.014 422C405.415 422 418.709 435.295 418.709 451.696C418.71 468.096 405.415 481.391 389.014 481.391ZM509.579 86.4381C507.105 83.7366 503.721 82.0443 500.076 81.6863L113.438 76.3411L102.748 43.6754C95.2164 21.8388 74.7678 7.09695 51.6705 6.85254H11.8783C5.3179 6.85254 0 12.1704 0 18.7309C0 25.2913 5.3179 30.6092 11.8783 30.6092H51.6705C57.9764 30.7487 64.0885 32.8154 69.185 36.5316C74.2815 40.2478 78.1181 45.4352 80.1789 51.3965L155.606 278.866L149.668 292.526C146.402 300.946 145.184 310.022 146.114 319.005C147.043 327.988 150.093 336.622 155.013 344.196C159.883 351.631 166.475 357.781 174.23 362.124C181.985 366.466 190.673 368.873 199.557 369.141H430.59C437.15 369.141 442.468 363.823 442.468 357.262C442.468 350.702 437.15 345.384 430.59 345.384H199.556C194.543 345.258 189.639 343.89 185.286 341.402C180.932 338.915 177.264 335.385 174.611 331.13C171.981 326.916 170.347 322.159 169.832 317.219C169.318 312.279 169.937 307.286 171.642 302.621L176.393 291.931L426.432 265.799C453.896 262.774 476.489 242.798 482.854 215.909L511.362 96.5328C511.993 94.8441 512.16 93.0174 511.847 91.2422C511.533 89.4671 510.75 87.8083 509.579 86.4381ZM459.691 210.565C455.835 227.874 441.139 240.641 423.462 242.043L176.393 267.581L121.159 100.098L485.229 105.443L459.691 210.565Z" fill="black"/>
</g>
<defs>
<clipPath id="clip0_1094_874">
<rect width="512" height="512" fill="white"/>
</clipPath>
</defs>
</svg>
