<svg width="36" height="36" viewBox="0 0 36 36" fill="none" xmlns="http://www.w3.org/2000/svg">
<path d="M32.295 21.7952L24.795 29.2952C24.692 29.4058 24.5678 29.4944 24.4298 29.5559C24.2918 29.6174 24.1428 29.6505 23.9918 29.6531C23.8407 29.6558 23.6907 29.628 23.5506 29.5714C23.4105 29.5148 23.2833 29.4306 23.1764 29.3238C23.0696 29.217 22.9854 29.0897 22.9288 28.9496C22.8722 28.8095 22.8444 28.6595 22.8471 28.5084C22.8498 28.3574 22.8828 28.2084 22.9443 28.0704C23.0058 27.9324 23.0945 27.8082 23.205 27.7052L28.7835 22.1252H8.99999C8.70162 22.1252 8.41547 22.0067 8.20449 21.7957C7.99351 21.5847 7.87499 21.2986 7.87499 21.0002C7.87499 20.7019 7.99351 20.4157 8.20449 20.2047C8.41547 19.9938 8.70162 19.8752 8.99999 19.8752H31.5C31.7223 19.8754 31.9397 19.9415 32.1245 20.0651C32.3093 20.1888 32.4534 20.3644 32.5384 20.5698C32.6235 20.7753 32.6458 21.0013 32.6024 21.2194C32.5591 21.4375 32.4521 21.6379 32.295 21.7952ZM28.125 13.5002C28.125 13.2019 28.0065 12.9157 27.7955 12.7047C27.5845 12.4938 27.2984 12.3752 27 12.3752H7.21649L12.795 6.79523C12.9055 6.69224 12.9942 6.56804 13.0557 6.43004C13.1171 6.29204 13.1502 6.14307 13.1529 5.99201C13.1555 5.84096 13.1278 5.69092 13.0712 5.55083C13.0146 5.41075 12.9304 5.2835 12.8235 5.17667C12.7167 5.06984 12.5895 4.98563 12.4494 4.92905C12.3093 4.87246 12.1593 4.84468 12.0082 4.84734C11.8572 4.85001 11.7082 4.88307 11.5702 4.94456C11.4322 5.00605 11.308 5.0947 11.205 5.20523L3.70499 12.7052C3.54785 12.8626 3.44087 13.0629 3.39754 13.281C3.35421 13.4991 3.37649 13.7252 3.46156 13.9306C3.54662 14.1361 3.69067 14.3117 3.87549 14.4353C4.06031 14.5589 4.27763 14.625 4.49999 14.6252H27C27.2984 14.6252 27.5845 14.5067 27.7955 14.2957C28.0065 14.0847 28.125 13.7986 28.125 13.5002Z" fill="black"/>
</svg>
