<svg width="36" height="36" viewBox="0 0 36 36" fill="none" xmlns="http://www.w3.org/2000/svg">
<path d="M18 19.125C13.245 19.125 9.37499 15.255 9.37499 10.5C9.37499 5.745 13.245 1.875 18 1.875C22.755 1.875 26.625 5.745 26.625 10.5C26.625 15.255 22.755 19.125 18 19.125ZM18 4.125C14.49 4.125 11.625 6.99 11.625 10.5C11.625 14.01 14.49 16.875 18 16.875C21.51 16.875 24.375 14.01 24.375 10.5C24.375 6.99 21.51 4.125 18 4.125ZM30.885 34.125C30.27 34.125 29.76 33.615 29.76 33C29.76 27.825 24.48 23.625 18 23.625C11.52 23.625 6.23999 27.825 6.23999 33C6.23999 33.615 5.72999 34.125 5.11499 34.125C4.49999 34.125 3.98999 33.615 3.98999 33C3.98999 26.595 10.275 21.375 18 21.375C25.725 21.375 32.01 26.595 32.01 33C32.01 33.615 31.5 34.125 30.885 34.125Z" fill="black"/>
</svg>
