<svg width="512" height="512" viewBox="0 0 512 512" fill="none" xmlns="http://www.w3.org/2000/svg">
<path d="M459.307 309.973L352.64 416.64C351.175 418.212 349.409 419.473 347.446 420.347C345.484 421.222 343.365 421.692 341.217 421.73C339.068 421.768 336.934 421.373 334.942 420.568C332.95 419.763 331.14 418.565 329.621 417.046C328.101 415.527 326.904 413.717 326.099 411.725C325.294 409.732 324.899 407.599 324.937 405.45C324.975 403.302 325.445 401.183 326.319 399.22C327.194 397.258 328.455 395.491 330.027 394.027L409.365 314.667H128C123.757 314.667 119.687 312.981 116.686 309.98C113.686 306.98 112 302.91 112 298.667C112 294.423 113.686 290.354 116.686 287.353C119.687 284.352 123.757 282.667 128 282.667H448C451.163 282.669 454.253 283.609 456.882 285.368C459.51 287.126 461.559 289.624 462.769 292.546C463.979 295.467 464.296 298.682 463.679 301.784C463.063 304.886 461.542 307.736 459.307 309.973ZM400 192C400 187.757 398.314 183.687 395.314 180.686C392.313 177.686 388.244 176 384 176H102.635L181.973 96.64C183.545 95.1752 184.806 93.4088 185.681 91.4461C186.555 89.4835 187.025 87.3648 187.063 85.2165C187.101 83.0681 186.706 80.9342 185.901 78.9419C185.097 76.9496 183.899 75.1398 182.38 73.6205C180.86 72.1012 179.05 70.9034 177.058 70.0987C175.066 69.294 172.932 68.8988 170.784 68.9367C168.635 68.9746 166.517 69.4448 164.554 70.3193C162.591 71.1938 160.825 72.4547 159.36 74.0266L52.6934 180.693C50.4586 182.931 48.937 185.781 48.3208 188.882C47.7046 191.984 48.0215 195.199 49.2313 198.121C50.4411 201.043 52.4897 203.541 55.1183 205.299C57.7469 207.057 60.8376 207.997 64.0001 208H384C388.244 208 392.313 206.314 395.314 203.314C398.314 200.313 400 196.243 400 192Z" fill="black"/>
</svg>
