<svg width="512" height="512" viewBox="0 0 512 512" fill="none" xmlns="http://www.w3.org/2000/svg">
<path fill-rule="evenodd" clip-rule="evenodd" d="M248 68C248 65.8783 248.843 63.8434 250.343 62.3431C251.843 60.8429 253.878 60 256 60C355.412 60 436 140.588 436 240C436 242.122 435.157 244.157 433.657 245.657C432.156 247.157 430.122 248 428 248C425.878 248 423.843 247.157 422.343 245.657C420.843 244.157 420 242.122 420 240C420 149.424 346.576 76 256 76C253.878 76 251.843 75.1571 250.343 73.6569C248.843 72.1566 248 70.1217 248 68ZM248 116C248 113.878 248.843 111.843 250.343 110.343C251.843 108.843 253.878 108 256 108C328.9 108 388 167.1 388 240C388 242.122 387.157 244.157 385.657 245.657C384.156 247.157 382.122 248 380 248C377.878 248 375.843 247.157 374.343 245.657C372.843 244.157 372 242.122 372 240C372 175.936 320.064 124 256 124C253.878 124 251.843 123.157 250.343 121.657C248.843 120.157 248 118.122 248 116ZM248 160C248 157.878 248.843 155.843 250.343 154.343C251.843 152.843 253.878 152 256 152C304.6 152 344 191.4 344 240C344 242.122 343.157 244.157 341.657 245.657C340.156 247.157 338.122 248 336 248C333.878 248 331.843 247.157 330.343 245.657C328.843 244.157 328 242.122 328 240C328 200.236 295.764 168 256 168C253.878 168 251.843 167.157 250.343 165.657C248.843 164.157 248 162.122 248 160ZM143.292 109.252C141.193 107.243 138.583 105.849 135.746 105.221C132.909 104.593 129.954 104.756 127.204 105.692C108.576 111.972 85.6278 119.712 63.0318 134.272C60.7362 135.735 58.8698 137.781 57.6232 140.202C56.3766 142.622 55.7943 145.329 55.9358 148.048C58.0678 186.612 83.3958 272.108 161.396 346.316C236.708 423.256 322.552 447.368 361.144 448.952C363.865 449.055 366.564 448.435 368.967 447.153C371.37 445.872 373.389 443.977 374.82 441.66C389.052 418.864 396.468 395.804 402.484 377.088C403.38 374.324 403.5 371.368 402.832 368.54C402.165 365.713 400.734 363.123 398.696 361.052C367.876 329.912 337.424 315.852 321.536 311.564C315.88 310.036 310.324 312.056 306.704 315.732L281.756 341.032C269.304 338.148 255.568 330.2 243.016 320.74C230.432 311.26 218 302 212 296C206 290 195.472 276.792 185.812 264.344C176.172 251.928 168.036 238.304 164.972 225.896L189.916 200.592C193.536 196.92 195.48 191.336 193.872 185.7C189.36 169.876 174.868 139.624 143.292 109.252ZM132.288 120.864C161.464 148.964 174.436 176.376 178.328 189.552L153.432 214.808C149.94 218.352 147.992 223.66 149.292 229.128C153.052 244.968 162.908 260.928 173.172 274.156C183.352 287.276 192.388 299.38 200 305.996C206.728 313.516 220.124 323.524 233.384 333.516C246.756 343.596 262.856 353.224 278.744 356.756C284.224 357.976 289.504 355.964 293 352.42L317.904 327.16C331.136 330.864 358.732 343.448 387.24 372.224C381.2 391.012 374.468 411.94 361.4 432.948C326.612 431.372 244.924 408.832 172.732 335.028C172.665 334.957 172.597 334.888 172.528 334.82C97.6998 263.688 73.9998 182.328 71.9358 147.568C92.7558 134.2 113.588 127.172 132.288 120.864Z" fill="black"/>
</svg>
