<svg width="36" height="36" viewBox="0 0 36 36" fill="none" xmlns="http://www.w3.org/2000/svg">
<path d="M18 1.40625C14.7181 1.40625 11.5098 2.37946 8.78101 4.2028C6.05219 6.02615 3.92532 8.61774 2.66938 11.6498C1.41344 14.682 1.08483 18.0184 1.7251 21.2373C2.36538 24.4562 3.94578 27.4129 6.26645 29.7336C8.58713 32.0542 11.5439 33.6346 14.7627 34.2749C17.9816 34.9152 21.318 34.5866 24.3502 33.3306C27.3823 32.0747 29.9739 29.9478 31.7972 27.219C33.6206 24.4902 34.5938 21.2819 34.5938 18C34.5893 13.6004 32.8396 9.38234 29.7286 6.27138C26.6177 3.16042 22.3996 1.41072 18 1.40625ZM18 32.9062C15.0518 32.9062 12.1699 32.032 9.71854 30.3941C7.26722 28.7562 5.35665 26.4281 4.22843 23.7044C3.10021 20.9806 2.80502 17.9835 3.38018 15.0919C3.95534 12.2004 5.37502 9.54437 7.4597 7.45969C9.54437 5.37501 12.2004 3.95533 15.0919 3.38017C17.9835 2.80501 20.9806 3.1002 23.7044 4.22842C26.4281 5.35664 28.7562 7.26721 30.3941 9.71853C32.032 12.1699 32.9063 15.0518 32.9063 18C32.9018 21.952 31.3299 25.7409 28.5354 28.5354C25.7409 31.3299 21.952 32.9018 18 32.9062Z" fill="black"/>
<path d="M18 14.2819C17.3291 14.2834 16.6862 14.5505 16.2118 15.0249C15.7374 15.4993 15.4702 16.1423 15.4688 16.8131V25.0087C15.4688 25.6801 15.7354 26.3239 16.2101 26.7986C16.6848 27.2733 17.3287 27.54 18 27.54C18.6713 27.54 19.3152 27.2733 19.7899 26.7986C20.2646 26.3239 20.5313 25.6801 20.5313 25.0087V16.8131C20.5298 16.1423 20.2626 15.4993 19.7882 15.0249C19.3138 14.5505 18.6709 14.2834 18 14.2819ZM18.8438 25.0087C18.8438 25.2325 18.7549 25.4471 18.5966 25.6054C18.4384 25.7636 18.2238 25.8525 18 25.8525C17.7762 25.8525 17.5616 25.7636 17.4034 25.6054C17.2451 25.4471 17.1563 25.2325 17.1563 25.0087V16.8131C17.1563 16.5893 17.2451 16.3747 17.4034 16.2165C17.5616 16.0583 17.7762 15.9694 18 15.9694C18.2238 15.9694 18.4384 16.0583 18.5966 16.2165C18.7549 16.3747 18.8438 16.5893 18.8438 16.8131V25.0087ZM18 8.4375C17.4994 8.4375 17.01 8.58596 16.5937 8.86409C16.1775 9.14223 15.853 9.53756 15.6614 10.0001C15.4698 10.4626 15.4197 10.9716 15.5174 11.4626C15.6151 11.9536 15.8561 12.4046 16.2101 12.7586C16.5641 13.1126 17.0152 13.3537 17.5062 13.4514C17.9972 13.549 18.5061 13.4989 18.9687 13.3073C19.4312 13.1157 19.8265 12.7913 20.1047 12.375C20.3828 11.9588 20.5313 11.4694 20.5313 10.9688C20.5313 10.2974 20.2646 9.65359 19.7899 9.17889C19.3152 8.70418 18.6713 8.4375 18 8.4375ZM18 11.8125C17.8331 11.8125 17.67 11.763 17.5312 11.6703C17.3925 11.5776 17.2843 11.4458 17.2205 11.2916C17.1566 11.1375 17.1399 10.9678 17.1725 10.8041C17.205 10.6405 17.2854 10.4901 17.4034 10.3721C17.5214 10.2541 17.6717 10.1738 17.8354 10.1412C17.9991 10.1087 18.1687 10.1254 18.3229 10.1892C18.4771 10.2531 18.6088 10.3612 18.7016 10.5C18.7943 10.6387 18.8438 10.8019 18.8438 10.9688C18.8438 11.1925 18.7549 11.4071 18.5966 11.5654C18.4384 11.7236 18.2238 11.8125 18 11.8125Z" fill="black"/>
</svg>
