<svg width="512" height="512" viewBox="0 0 512 512" fill="none" xmlns="http://www.w3.org/2000/svg">
<path d="M256 272C188.373 272 133.333 216.96 133.333 149.333C133.333 81.7065 188.373 26.6665 256 26.6665C323.627 26.6665 378.667 81.7065 378.667 149.333C378.667 216.96 323.627 272 256 272ZM256 58.6665C206.08 58.6665 165.333 99.4132 165.333 149.333C165.333 199.253 206.08 240 256 240C305.92 240 346.667 199.253 346.667 149.333C346.667 99.4132 305.92 58.6665 256 58.6665ZM439.253 485.333C430.507 485.333 423.253 478.08 423.253 469.333C423.253 395.733 348.16 336 256 336C163.84 336 88.7466 395.733 88.7466 469.333C88.7466 478.08 81.4932 485.333 72.7466 485.333C63.9999 485.333 56.7466 478.08 56.7466 469.333C56.7466 378.24 146.133 304 256 304C365.867 304 455.253 378.24 455.253 469.333C455.253 478.08 448 485.333 439.253 485.333Z" fill="black"/>
</svg>
