<svg width="36" height="36" viewBox="0 0 36 36" fill="none" xmlns="http://www.w3.org/2000/svg">
<path d="M11.5988 21.094H11.6004L11.6046 21.0938L29 18C26.6384 14.119 29.2292 18 29 18C28.937 18.2203 29.6825 15.6127 29 18L35.9594 5.5632C36.0042 5.40626 36.012 5.24106 35.9822 5.0806C35.9523 4.92013 35.8857 4.76878 35.7874 4.63845C35.6891 4.5081 35.5619 4.40235 35.4158 4.32953C35.2696 4.2567 35.1086 4.21878 34.9453 4.21875H9.16643L8.41254 0.825891C8.36044 0.59163 8.23002 0.382135 8.04282 0.231984C7.85561 0.0818335 7.6228 3.24118e-06 7.38281 0L1.05469 0C0.472148 0 0 0.472148 0 1.05469C0 1.63723 0.472148 2.10938 1.05469 2.10938H6.53688C6.67034 2.71055 10.1448 18.3458 10.3447 19.2452C9.22388 19.7325 8.4375 20.8502 8.4375 22.1484C8.4375 23.893 9.85697 25.3125 11.6016 25.3125H30.7266C31.3091 25.3125 31.7812 24.8404 31.7812 24.2578C31.7812 23.6753 31.3091 23.2031 30.7266 23.2031H11.6016C11.0201 23.2031 10.5469 22.7299 10.5469 22.1484C10.5469 21.5678 11.0185 21.0954 11.5988 21.094ZM33.5471 6.32812L28 16L12.4476 18.9844L9.63506 6.32812H33.5471ZM10.5469 28.4766C10.5469 30.2212 11.9663 31.6406 13.7109 31.6406C15.4555 31.6406 16.875 30.2212 16.875 28.4766C16.875 26.732 15.4555 25.3125 13.7109 25.3125C11.9663 25.3125 10.5469 26.732 10.5469 28.4766ZM13.7109 27.4219C14.2924 27.4219 14.7656 27.8951 14.7656 28.4766C14.7656 29.058 14.2924 29.5312 13.7109 29.5312C13.1295 29.5312 12.6562 29.058 12.6562 28.4766C12.6562 27.8951 13.1295 27.4219 13.7109 27.4219ZM25.4531 28.4766C25.4531 30.2212 26.8726 31.6406 28.6172 31.6406C30.3618 31.6406 31.7812 30.2212 31.7812 28.4766C31.7812 26.732 30.3618 25.3125 28.6172 25.3125C26.8726 25.3125 25.4531 26.732 25.4531 28.4766ZM28.6172 27.4219C29.1987 27.4219 29.6719 27.8951 29.6719 28.4766C29.6719 29.058 29.1987 29.5312 28.6172 29.5312C28.0357 29.5312 27.5625 29.058 27.5625 28.4766C27.5625 27.8951 28.0357 27.4219 28.6172 27.4219Z" fill="black"/>
<rect x="28" y="16" width="1" height="2" fill="black"/>
</svg>
