<svg width="36" height="36" viewBox="0 0 36 36" fill="none" xmlns="http://www.w3.org/2000/svg">
<g clip-path="url(#clip0_1098_833)">
<path d="M28.4513 22.3007C27.7143 21.5333 26.8254 21.123 25.8832 21.123C24.9487 21.123 24.0521 21.5257 23.2847 22.2931L20.8837 24.6865C20.6861 24.5801 20.4886 24.4813 20.2986 24.3826C20.0251 24.2458 19.7668 24.1166 19.5464 23.9799C17.2974 22.5514 15.2535 20.6899 13.2932 18.2813C12.3435 17.0809 11.7053 16.0703 11.2418 15.0446C11.8648 14.4747 12.4423 13.8821 13.0045 13.3122C13.2173 13.0995 13.43 12.8791 13.6428 12.6664C15.2383 11.0708 15.2383 9.00413 13.6428 7.40854L11.5685 5.33427C11.333 5.09873 11.0898 4.85559 10.8619 4.61246C10.406 4.14138 9.92731 3.6551 9.43344 3.19922C8.69643 2.46981 7.81505 2.08231 6.88809 2.08231C5.96113 2.08231 5.06456 2.46981 4.30476 3.19922L4.28956 3.21442L1.70623 5.82055C0.733675 6.7931 0.179018 7.97839 0.0574489 9.35364C-0.124904 11.5723 0.528528 13.6389 1.03 14.9914C2.26088 18.3117 4.09961 21.3889 6.8425 24.6865C10.1704 28.6603 14.1746 31.7983 18.7486 34.0093C20.4962 34.8375 22.8288 35.8176 25.4349 35.9848C25.5945 35.9924 25.7616 36 25.9136 36C27.6688 36 29.1428 35.3694 30.2977 34.1157C30.3053 34.1005 30.3205 34.0929 30.3281 34.0777C30.7232 33.599 31.1791 33.1659 31.6577 32.7024C31.9844 32.3909 32.3188 32.0642 32.6455 31.7223C33.3977 30.9397 33.7928 30.0279 33.7928 29.0934C33.7928 28.1512 33.3901 27.247 32.6227 26.4872L28.4513 22.3007ZM31.1715 30.3015C31.1639 30.3015 31.1639 30.3091 31.1715 30.3015C30.8751 30.6206 30.5712 30.9093 30.2445 31.2284C29.7506 31.6995 29.2491 32.1934 28.7781 32.748C28.0107 33.5686 27.1065 33.9561 25.9212 33.9561C25.8072 33.9561 25.6857 33.9561 25.5717 33.9485C23.3151 33.8042 21.218 32.9228 19.6452 32.1706C15.3447 30.0887 11.5685 27.1331 8.4305 23.3872C5.83956 20.2644 4.10721 17.3772 2.9599 14.2772C2.25328 12.3853 1.99495 10.9112 2.10892 9.52079C2.1849 8.63182 2.52681 7.89481 3.15745 7.26417L5.74839 4.67324C6.12069 4.32373 6.51579 4.13378 6.90329 4.13378C7.38197 4.13378 7.76947 4.4225 8.0126 4.66564L8.0354 4.68844C8.49888 5.12153 8.93957 5.56981 9.40305 6.04849C9.63859 6.29163 9.88172 6.53476 10.1249 6.7855L12.1991 8.85977C13.0045 9.66516 13.0045 10.4098 12.1991 11.2152C11.9788 11.4355 11.766 11.6558 11.5457 11.8686C10.9075 12.522 10.2996 13.1299 9.63859 13.7225C9.62339 13.7377 9.60819 13.7453 9.6006 13.7605C8.94716 14.4139 9.06873 15.0522 9.2055 15.4853L9.22829 15.5536C9.76775 16.8605 10.5276 18.0914 11.6825 19.5578L11.6901 19.5654C13.7871 22.1488 15.9982 24.1622 18.4371 25.7046C18.7486 25.9022 19.0678 26.0617 19.3717 26.2137C19.6452 26.3505 19.9035 26.4796 20.1239 26.6164C20.1543 26.6316 20.1847 26.6544 20.2151 26.6696C20.4734 26.7988 20.7165 26.8595 20.9673 26.8595C21.5979 26.8595 21.993 26.4644 22.1222 26.3353L24.7207 23.7367C24.979 23.4784 25.3893 23.1669 25.868 23.1669C26.3391 23.1669 26.7266 23.4632 26.9621 23.7215L26.9773 23.7367L31.1639 27.9233C31.9465 28.6983 31.9465 29.4961 31.1715 30.3015ZM19.4553 8.56344C21.446 8.89775 23.2543 9.83991 24.6979 11.2835C26.1415 12.7272 27.0761 14.5355 27.418 16.5262C27.5016 17.0277 27.9347 17.3772 28.4286 17.3772C28.4893 17.3772 28.5425 17.3696 28.6033 17.362C29.1656 17.2708 29.5379 16.7389 29.4467 16.1767C29.0364 13.7681 27.8967 11.5723 26.1567 9.83232C24.4168 8.09236 22.221 6.95266 19.8124 6.54236C19.2501 6.45118 18.7259 6.82349 18.6271 7.37815C18.5283 7.9328 18.893 8.47226 19.4553 8.56344ZM35.9582 15.8804C35.282 11.9142 33.4129 8.30511 30.5408 5.43305C27.6688 2.56098 24.0597 0.691864 20.0935 0.0156379C19.5388 -0.0831367 19.0146 0.296766 18.9158 0.851423C18.8246 1.41368 19.1969 1.93794 19.7592 2.03672C23.2999 2.63696 26.529 4.31613 29.0972 6.87667C31.6653 9.44481 33.3369 12.674 33.9371 16.2147C34.0207 16.7161 34.4538 17.0657 34.9477 17.0657C35.0085 17.0657 35.0617 17.0581 35.1224 17.0505C35.6771 16.9669 36.057 16.435 35.9582 15.8804Z" fill="black"/>
</g>
<defs>
<clipPath id="clip0_1098_833">
<rect width="36" height="36" fill="white"/>
</clipPath>
</defs>
</svg>
