<svg width="36" height="36" viewBox="0 0 36 36" fill="none" xmlns="http://www.w3.org/2000/svg">
<g clip-path="url(#clip0_1105_845)">
<path d="M35.6093 17.2221L33.4283 15.199C33.2796 15.0612 33.1656 14.8901 33.0955 14.6998L31.3827 10.049C31.1378 9.39356 30.6989 8.82833 30.1246 8.42865C29.5503 8.02897 28.8678 7.81382 28.1681 7.81187H25.573V7.08386C25.573 6.77078 25.4487 6.47052 25.2273 6.24914C25.0059 6.02775 24.7056 5.90338 24.3926 5.90338H8.70956C8.47621 5.90063 8.25099 5.989 8.08177 6.1497C7.91255 6.3104 7.81268 6.53076 7.80338 6.76394C7.8012 6.8805 7.82227 6.99632 7.86537 7.10465C7.90847 7.21297 7.97273 7.31161 8.05439 7.39482C8.13605 7.47802 8.23347 7.54411 8.34097 7.58924C8.44846 7.63436 8.56387 7.6576 8.68045 7.65761H23.8187V15.2687C23.8187 15.5818 23.9431 15.8821 24.1645 16.1034C24.3859 16.3248 24.6861 16.4492 24.9992 16.4492H32.1283L34.2457 18.3547V25.4626H32.3261C32.135 24.6262 31.6656 23.8795 30.9947 23.3446C30.3238 22.8097 29.4912 22.5185 28.6332 22.5185C27.7753 22.5185 26.9427 22.8097 26.2718 23.3446C25.6009 23.8795 25.1315 24.6262 24.9404 25.4626H19.0336C18.8425 24.6262 18.373 23.8795 17.7022 23.3446C17.0313 22.8097 16.1987 22.5185 15.3407 22.5185C14.4827 22.5185 13.6502 22.8097 12.9793 23.3446C12.3084 23.8795 11.839 24.6262 11.6479 25.4626H8.70949C8.47612 25.4599 8.25087 25.5483 8.08166 25.709C7.91244 25.8698 7.81261 26.0902 7.80338 26.3234C7.8012 26.44 7.82228 26.5558 7.86538 26.6641C7.90848 26.7724 7.97273 26.8711 8.05439 26.9543C8.13605 27.0375 8.23348 27.1035 8.34097 27.1487C8.44847 27.1938 8.56388 27.217 8.68045 27.217H11.6626C11.8658 28.0389 12.3384 28.769 13.005 29.2909C13.6716 29.8128 14.4939 30.0964 15.3405 30.0964C16.1871 30.0964 17.0093 29.8128 17.676 29.2909C18.3426 28.769 18.8152 28.0389 19.0184 27.217H24.9553C25.1584 28.0389 25.631 28.769 26.2977 29.2909C26.9643 29.8128 27.7865 30.0964 28.6331 30.0964C29.4798 30.0964 30.302 29.8128 30.9686 29.2909C31.6352 28.769 32.1078 28.0389 32.311 27.217H34.8195C35.1326 27.217 35.4329 27.0926 35.6542 26.8713C35.8756 26.6499 36 26.3497 36 26.0366V18.0994C35.9999 17.934 35.9651 17.7704 35.8978 17.6193C35.8304 17.4682 35.7322 17.3328 35.6093 17.2221ZM25.573 14.6952V9.56603H28.1681C28.5097 9.56697 28.8429 9.67201 29.1234 9.86716C29.4038 10.0623 29.6181 10.3383 29.7376 10.6583L31.2328 14.6952H25.573ZM15.3405 28.3419C14.9381 28.3419 14.5447 28.2226 14.2101 27.999C13.8755 27.7755 13.6148 27.4577 13.4608 27.0859C13.3068 26.7141 13.2665 26.305 13.345 25.9103C13.4235 25.5157 13.6173 25.1531 13.9018 24.8686C14.1864 24.584 14.5489 24.3902 14.9436 24.3117C15.3383 24.2333 15.7474 24.2736 16.1192 24.4276C16.491 24.5816 16.8087 24.8424 17.0323 25.177C17.2559 25.5116 17.3752 25.905 17.3752 26.3074C17.3745 26.8468 17.16 27.3639 16.7785 27.7454C16.3971 28.1268 15.8799 28.3413 15.3405 28.3419ZM28.6332 28.3419C28.2308 28.3419 27.8374 28.2226 27.5028 27.9991C27.1682 27.7755 26.9074 27.4577 26.7534 27.086C26.5994 26.7142 26.5591 26.3051 26.6376 25.9104C26.7161 25.5157 26.9098 25.1531 27.1944 24.8686C27.479 24.584 27.8415 24.3903 28.2362 24.3118C28.6309 24.2333 29.04 24.2735 29.4118 24.4276C29.7835 24.5816 30.1013 24.8424 30.3249 25.177C30.5484 25.5116 30.6677 25.9049 30.6677 26.3074C30.6671 26.8468 30.4526 27.3639 30.0711 27.7453C29.6897 28.1268 29.1726 28.3413 28.6332 28.3419Z" fill="black"/>
<path d="M4.93478 12.5645H14.8822C15.1148 12.5645 15.338 12.4721 15.5025 12.3076C15.667 12.1431 15.7594 11.9199 15.7594 11.6873C15.7594 11.4546 15.667 11.2315 15.5025 11.067C15.338 10.9025 15.1148 10.8101 14.8822 10.8101H4.93478C4.70213 10.8101 4.47901 10.9025 4.3145 11.067C4.14999 11.2315 4.05756 11.4546 4.05756 11.6873C4.05756 11.9199 4.14999 12.1431 4.3145 12.3076C4.47901 12.4721 4.70213 12.5645 4.93478 12.5645ZM15.7594 16.56C15.7594 16.3274 15.667 16.1042 15.5025 15.9397C15.338 15.7752 15.1148 15.6828 14.8822 15.6828H0.87726C0.761406 15.6817 0.646493 15.7037 0.539159 15.7473C0.431824 15.7909 0.334192 15.8554 0.251902 15.9369C0.169611 16.0185 0.104292 16.1155 0.0597152 16.2225C0.0151385 16.3294 -0.0078125 16.4441 -0.0078125 16.56C-0.0078125 16.6758 0.0151385 16.7905 0.0597152 16.8975C0.104292 17.0044 0.169611 17.1015 0.251902 17.183C0.334192 17.2646 0.431824 17.329 0.539159 17.3726C0.646493 17.4163 0.761406 17.4382 0.87726 17.4372H14.8822C15.1148 17.4372 15.3379 17.3447 15.5024 17.1802C15.6669 17.0158 15.7594 16.7926 15.7594 16.56ZM10.2051 21.4327C10.2051 21.3175 10.1824 21.2035 10.1383 21.0971C10.0942 20.9906 10.0296 20.8939 9.94815 20.8125C9.8667 20.731 9.77 20.6664 9.66358 20.6224C9.55716 20.5783 9.4431 20.5556 9.32791 20.5556H3.23104C2.99976 20.5577 2.77865 20.651 2.61584 20.8153C2.45302 20.9795 2.36168 21.2015 2.36168 21.4328C2.36168 21.6641 2.45302 21.886 2.61584 22.0503C2.77865 22.2145 2.99976 22.3079 3.23104 22.3099H9.32791C9.56055 22.3099 9.78366 22.2175 9.94815 22.053C10.1126 21.8885 10.2051 21.6654 10.2051 21.4327Z" fill="black"/>
</g>
<defs>
<clipPath id="clip0_1105_845">
<rect width="36" height="36" fill="white"/>
</clipPath>
</defs>
</svg>
