<svg width="36" height="36" viewBox="0 0 36 36" fill="none" xmlns="http://www.w3.org/2000/svg">
<g clip-path="url(#clip0_1098_860)">
<path d="M16.3709 22.7337C16.3709 25.4427 14.1545 27.6592 11.4454 27.6592L5.6989 30.9429V27.6592C2.9899 27.6592 0.773438 25.4428 0.773438 22.7337V16.9873C0.773438 14.2782 2.9899 12.0617 5.6989 12.0617H11.3103M16.0812 13.512H18.2404M18.975 10.6182H16.0812V15.6134" stroke="black" stroke-width="1.8" stroke-miterlimit="22.9256" stroke-linecap="round" stroke-linejoin="round"/>
<path fill-rule="evenodd" clip-rule="evenodd" d="M35.2266 20.6541C35.2266 21.798 34.2907 22.7338 33.147 22.7338V26.0174L27.4005 22.7338H13.3901C12.2462 22.7338 11.3104 21.7979 11.3104 20.6541V7.13627C11.3104 5.9925 12.2462 5.05664 13.3901 5.05664H33.147C34.2908 5.05664 35.2266 5.9925 35.2266 7.13627V20.6541Z" stroke="black" stroke-width="1.8" stroke-miterlimit="22.9256" stroke-linecap="round" stroke-linejoin="round"/>
<path d="M21.0111 14.3696H24.0678M20.5373 15.6136L22.4397 10.6186L22.6522 10.6184L24.5374 15.6136M30.0187 13.7711L31.5965 15.349M30.8677 14.634C30.4205 15.0877 29.7988 15.3689 29.1113 15.3689C27.7493 15.3689 26.6451 14.2648 26.6451 12.9027C26.6451 11.5407 27.7493 10.4365 29.1113 10.4365C30.4734 10.4365 31.5776 11.5407 31.5776 12.9027C31.5776 13.5774 31.3066 14.1887 30.8677 14.634Z" stroke="black" stroke-width="1.8" stroke-miterlimit="10" stroke-linecap="round" stroke-linejoin="round"/>
</g>
<defs>
<clipPath id="clip0_1098_860">
<rect width="36" height="36" fill="white"/>
</clipPath>
</defs>
</svg>
