<svg width="36" height="36" viewBox="0 0 36 36" fill="none" xmlns="http://www.w3.org/2000/svg">
<g clip-path="url(#clip0_1098_842)">
<path d="M35.1 15.6582L35.0971 15.6555L20.412 0.971016C19.786 0.344672 18.9538 0 18.0687 0C17.1834 0 16.3512 0.344672 15.725 0.970945L1.04747 15.648C1.04255 15.653 1.03735 15.6582 1.03271 15.6632C-0.252744 16.9559 -0.250494 19.0535 1.03904 20.343C1.62812 20.9325 2.40591 21.2736 3.23792 21.3095C3.27195 21.3128 3.30605 21.3145 3.34037 21.3145H3.92537V32.1212C3.92537 34.26 5.6656 35.9999 7.80437 35.9999H13.5497C14.1322 35.9999 14.6044 35.5275 14.6044 34.9452V26.4727C14.6044 25.4968 15.3984 24.703 16.3743 24.703H19.763C20.7389 24.703 21.5326 25.4969 21.5326 26.4727V34.9453C21.5326 35.5276 22.0047 36 22.5873 36H28.3326C30.4716 36 32.2116 34.26 32.2116 32.1213V21.3145H32.7543C33.6393 21.3145 34.4715 20.9698 35.098 20.3433C36.3889 19.0519 36.3895 16.9505 35.1 15.6582ZM33.6063 18.852C33.4947 18.9643 33.3619 19.0533 33.2157 19.1139C33.0695 19.1746 32.9126 19.2056 32.7543 19.2052H31.1568C30.5743 19.2052 30.1021 19.6773 30.1021 20.2599V32.1213C30.1021 33.0969 29.3084 33.8906 28.3325 33.8906H23.642V26.4727C23.642 24.3339 21.902 22.5937 19.7629 22.5937H16.3743C14.2353 22.5937 12.4951 24.3339 12.4951 26.4727V33.8906H7.80451C6.82885 33.8906 6.03481 33.0968 6.03481 32.1213V20.2598C6.03481 19.6772 5.56266 19.2052 4.98012 19.2052H3.41012C3.39366 19.204 3.37718 19.2032 3.36069 19.2029C3.04646 19.1974 2.75178 19.0728 2.531 18.8516C2.06131 18.3819 2.06131 17.6176 2.531 17.1477L2.53233 17.1463L17.2169 2.46234C17.3284 2.35006 17.4612 2.26104 17.6074 2.20044C17.7536 2.13985 17.9104 2.1089 18.0687 2.10938C18.3903 2.10938 18.6927 2.2346 18.9203 2.46234L33.6016 17.1433L33.6085 17.1499C34.0757 17.6205 34.0749 18.3832 33.6063 18.852Z" fill="black"/>
</g>
<defs>
<clipPath id="clip0_1098_842">
<rect width="36" height="36" fill="white"/>
</clipPath>
</defs>
</svg>
