<svg width="36" height="36" viewBox="0 0 36 36" fill="none" xmlns="http://www.w3.org/2000/svg">
<path d="M18 4.875C17.7016 4.875 17.4155 4.99353 17.2045 5.2045C16.9935 5.41548 16.875 5.70163 16.875 6C16.875 6.29837 16.9935 6.58452 17.2045 6.7955C17.4155 7.00647 17.7016 7.125 18 7.125C19.4281 7.125 20.8423 7.40629 22.1617 7.95281C23.4811 8.49933 24.6799 9.30038 25.6898 10.3102C26.6996 11.3201 27.5007 12.5189 28.0472 13.8383C28.5937 15.1577 28.875 16.5719 28.875 18C28.875 19.4281 28.5937 20.8423 28.0472 22.1617C27.5007 23.4811 26.6996 24.6799 25.6898 25.6898C24.6799 26.6996 23.4811 27.5007 22.1617 28.0472C20.8423 28.5937 19.4281 28.875 18 28.875C17.7016 28.875 17.4155 28.9935 17.2045 29.2045C16.9935 29.4155 16.875 29.7016 16.875 30C16.875 30.2984 16.9935 30.5845 17.2045 30.7955C17.4155 31.0065 17.7016 31.125 18 31.125C21.481 31.125 24.8194 29.7422 27.2808 27.2808C29.7422 24.8194 31.125 21.481 31.125 18C31.125 14.519 29.7422 11.1806 27.2808 8.71922C24.8194 6.25781 21.481 4.875 18 4.875Z" fill="black"/>
<path d="M15.705 14.2948C15.5063 14.0815 15.3981 13.7994 15.4032 13.508C15.4084 13.2165 15.5264 12.9385 15.7326 12.7323C15.9387 12.5262 16.2168 12.4081 16.5082 12.403C16.7997 12.3979 17.0817 12.5061 17.295 12.7048L21.795 17.2048C22.0057 17.4157 22.124 17.7016 22.124 17.9998C22.124 18.2979 22.0057 18.5838 21.795 18.7948L17.295 23.2948C17.192 23.4053 17.0678 23.494 16.9298 23.5554C16.7918 23.6169 16.6428 23.65 16.4918 23.6527C16.3407 23.6553 16.1907 23.6275 16.0506 23.571C15.9105 23.5144 15.7833 23.4302 15.6764 23.3233C15.5696 23.2165 15.4854 23.0893 15.4288 22.9492C15.3722 22.8091 15.3444 22.659 15.3471 22.508C15.3498 22.3569 15.3828 22.208 15.4443 22.07C15.5058 21.932 15.5945 21.8078 15.705 21.7048L18.285 19.1248H6C5.70163 19.1248 5.41548 19.0062 5.2045 18.7953C4.99353 18.5843 4.875 18.2981 4.875 17.9998C4.875 17.7014 4.99353 17.4153 5.2045 17.2043C5.41548 16.9933 5.70163 16.8748 6 16.8748H18.285L15.705 14.2948Z" fill="black"/>
</svg>
