<svg width="36" height="36" viewBox="0 0 36 36" fill="none" xmlns="http://www.w3.org/2000/svg">
<g clip-path="url(#clip0_1098_849)">
<path d="M35.9473 11.9199L35.9231 11.7847C35.9187 11.7639 35.9165 11.743 35.9121 11.7227L33.3875 5.62523V2.62549H2.57077V5.6253L0.0878912 11.7222C0.0824068 11.7464 0.0791021 11.7705 0.0746725 11.7941L0.05161 11.9199C0.0171394 12.1414 -0.000115352 12.3653 5.80306e-07 12.5895C5.80306e-07 14.2199 0.909704 15.6372 2.25 16.3617V33.3746H33.75V16.3617C35.0892 15.6371 36 14.2199 36 12.5895C36 12.3616 35.9813 12.138 35.9473 11.9199ZM34.2521 11.6255H28.7414L28.0789 7.17218H32.4383L34.2521 11.6255ZM4.07152 4.12511H31.8878V5.6253H4.07152V4.12511ZM27.4482 13.1251L27.5295 13.6695L27.0857 14.26C26.554 14.9686 25.741 15.375 24.8566 15.375C23.9722 15.375 23.1592 14.9686 22.6275 14.26L22.1748 13.6568L22.1484 13.1251H27.4482ZM22.0748 11.6255L21.8562 7.17218H26.5617L27.2253 11.6255H22.0748ZM20.6466 13.125L20.673 13.6689L20.2281 14.26C19.6964 14.9686 18.8833 15.375 18 15.375C17.1145 15.375 16.3026 14.9686 15.7698 14.26L15.3149 13.6529L15.3413 13.125H20.6466ZM15.4171 11.6255L15.6424 7.17218H20.3555L20.573 11.6255H15.4171ZM8.78245 11.6255L9.4372 7.17218H14.1415L13.9152 11.6255H8.78245ZM13.8383 13.1251L13.8109 13.675L13.3714 14.26C12.8386 14.9686 12.0267 15.375 11.1423 15.375C10.2579 15.375 9.44599 14.9686 8.91316 14.26L8.48032 13.6837L8.56273 13.1251H13.8383ZM3.5607 7.17218H7.9212L7.26645 11.6255H1.74691L3.5607 7.17218ZM1.55123 13.1251H7.04658L6.92902 13.7079L6.51481 14.26C5.98198 14.9686 5.17008 15.3751 4.28456 15.3751C2.93224 15.3751 1.80176 14.4061 1.55123 13.1251ZM29.25 31.8761H23.2493V26.6246H23.9996C24.4138 26.6246 24.75 26.2894 24.75 25.8753C24.75 25.4612 24.4138 25.1261 23.9996 25.1261H23.2493V19.8746H29.25V31.8761ZM32.2494 31.8761H30.7496V18.3761H21.7496V31.8761H3.74963V16.8418C3.92428 16.8638 4.10449 16.8754 4.28463 16.8754C5.68652 16.8754 6.93232 16.2019 7.71349 15.1609C8.49572 16.2019 9.74046 16.8754 11.1424 16.8754C12.5442 16.8754 13.789 16.2019 14.5712 15.1609C15.3523 16.2019 16.5982 16.8754 18.0001 16.8754C19.402 16.8754 20.6456 16.2019 21.4278 15.1609C22.21 16.2019 23.4548 16.8754 24.8567 16.8754C26.2586 16.8754 27.5033 16.2019 28.2855 15.1609C29.0677 16.2019 30.3114 16.8754 31.7133 16.8754C31.8925 16.8754 32.0716 16.8642 32.2494 16.8418V31.8761ZM31.7131 15.3751C30.8299 15.3751 30.0168 14.9686 29.4851 14.26L29.0489 13.6811L28.9643 13.1252H34.4465C34.1961 14.4061 33.0666 15.3751 31.7131 15.3751Z" fill="black"/>
<path d="M5.24927 18.376V28.8745H20.25V18.376H5.24927ZM18.7493 27.376H6.75002V19.8745H18.7493V27.376Z" fill="black"/>
<path d="M17.2441 23.6252C17.1456 23.6249 17.0479 23.6442 16.9568 23.6819C16.8657 23.7196 16.783 23.775 16.7135 23.845L15.2139 25.3457C15.144 25.415 15.0886 25.4975 15.0509 25.5884C15.0132 25.6793 14.9939 25.7768 14.9941 25.8752C14.9941 26.2894 15.3303 26.6245 15.7434 26.6245C15.842 26.6248 15.9397 26.6056 16.0308 26.5678C16.1219 26.5301 16.2045 26.4747 16.274 26.4048L17.7737 24.9063C17.8435 24.8365 17.8989 24.7536 17.9366 24.6624C17.9744 24.5711 17.9936 24.4733 17.9934 24.3746C17.9934 23.9614 17.6584 23.6252 17.2441 23.6252ZM17.2441 20.626C17.1456 20.6257 17.0479 20.6449 16.9568 20.6826C16.8657 20.7203 16.783 20.7758 16.7135 20.8457L12.2135 25.3446C12.0728 25.4854 11.9938 25.6762 11.9938 25.8752C11.9938 26.2894 12.3299 26.6245 12.7441 26.6245C12.9507 26.6245 13.1385 26.541 13.2737 26.4048L17.7737 21.9059C17.8435 21.8363 17.8989 21.7536 17.9366 21.6625C17.9744 21.5715 17.9936 21.4738 17.9934 21.3752C17.9935 21.2768 17.9741 21.1794 17.9365 21.0884C17.8989 20.9975 17.8437 20.9149 17.7741 20.8453C17.7045 20.7757 17.6219 20.7205 17.531 20.6829C17.44 20.6453 17.3426 20.6259 17.2441 20.626Z" fill="black"/>
</g>
<defs>
<clipPath id="clip0_1098_849">
<rect width="36" height="36" fill="white"/>
</clipPath>
</defs>
</svg>
