<svg width="36" height="36" viewBox="0 0 36 36" fill="none" xmlns="http://www.w3.org/2000/svg">
<path d="M32.7486 0.133784C32.6247 0.0572665 32.482 0.0166948 32.3364 0.0166016H8.83768C6.81749 0.0166016 5.17386 1.64413 5.17386 3.63884L5.03576 23.8748H0.789107C0.353283 23.8748 0 24.2281 0 24.6639V28.3095C0.00276187 30.9866 2.17217 33.156 4.8493 33.1591C4.90359 33.1591 4.95812 33.1536 5.01146 33.1425H24.6174C24.7342 33.1508 24.852 33.1563 24.9706 33.1563C27.6894 33.1514 29.8908 30.9468 29.8918 28.2281V16.3989H35.2108C35.6466 16.3989 35.9999 16.0456 35.9999 15.6098V3.89593C35.9904 2.01225 34.6109 0.415811 32.7486 0.133784ZM1.57821 28.3098V25.4533H20.0495V28.2284C20.0485 29.4647 20.5138 30.656 21.3524 31.5643H4.74143C4.7041 31.5645 4.66717 31.5674 4.63048 31.5729C2.91386 31.4561 1.58034 30.0304 1.57821 28.3098ZM28.3135 3.89593V28.2281C28.3121 29.11 27.9615 29.9555 27.3385 30.5797C26.7421 31.1916 25.9319 31.5487 25.0779 31.576C25.0352 31.5686 24.992 31.5648 24.9487 31.5645H24.6713C22.9526 31.3954 21.6391 29.9559 21.6277 28.2287V24.6639C21.6277 24.2283 21.2745 23.8748 20.8386 23.8748H6.61398L6.75207 3.64444C6.76351 2.50323 7.69624 1.58621 8.83768 1.59482H29.0974C28.589 2.25413 28.3133 3.06337 28.3135 3.89593ZM34.4216 14.8206H29.8917V3.89593C29.9123 2.65956 30.9203 1.66852 32.1567 1.66852C33.393 1.66852 34.401 2.65956 34.4216 3.89593V14.8206Z" fill="black"/>
<path d="M10.1311 8.56552H17.6048C18.0407 8.56552 18.3939 8.21231 18.3939 7.77641C18.3939 7.34059 18.0407 6.9873 17.6048 6.9873H10.1311C9.69524 6.9873 9.34204 7.34059 9.34204 7.77641C9.34204 8.21231 9.69524 8.56552 10.1311 8.56552ZM24.0725 12.6294H10.1311C9.69524 12.6294 9.34204 12.9827 9.34204 13.4185C9.34204 13.8541 9.69524 14.2076 10.1311 14.2076H24.0725C24.5083 14.2076 24.8616 13.8541 24.8616 13.4185C24.8616 12.9827 24.5083 12.6294 24.0725 12.6294ZM24.0725 18.2713H10.1311C9.69524 18.2713 9.34204 18.6248 9.34204 19.0604C9.34204 19.4962 9.69524 19.8495 10.1311 19.8495H24.0725C24.5083 19.8495 24.8616 19.4962 24.8616 19.0604C24.8616 18.6248 24.5083 18.2713 24.0725 18.2713Z" fill="black"/>
</svg>
