<svg width="512" height="512" viewBox="0 0 512 512" fill="none" xmlns="http://www.w3.org/2000/svg">
<path d="M432 107.04C391.84 66.88 320 52 256 112C240.408 95.991 220.955 84.2687 199.517 77.9631C178.078 71.6576 155.376 70.9815 133.6 76C113.358 81.3711 94.8766 91.9531 79.9979 106.691C65.1192 121.43 54.3626 139.81 48.7999 160C37.1199 203.68 51.9999 250.4 89.5999 288L230.24 428.48C233.615 431.876 237.629 434.571 242.05 436.41C246.471 438.249 251.212 439.196 256 439.196C260.788 439.196 265.529 438.249 269.95 436.41C274.371 434.571 278.384 431.876 281.76 428.48L422.4 288C488.16 223.04 473.44 148.48 432 107.04ZM411.04 277.44L270.4 418.08C266.546 421.833 261.379 423.933 256 423.933C250.621 423.933 245.454 421.833 241.6 418.08L100.96 277.44C66.8799 243.36 53.9199 203.36 64.3199 165.44C70.0292 143.438 82.8862 123.956 100.871 110.054C118.856 96.1532 140.949 88.6206 163.68 88.64C179.996 89.139 196.05 92.8755 210.91 99.6324C225.77 106.389 239.139 116.032 250.24 128C251.785 129.503 253.845 130.361 256 130.4C258.106 130.353 260.113 129.493 261.6 128C319.68 69.92 384.8 82.24 421.6 118.24C458.4 154.24 468.96 219.36 411.04 277.44Z" fill="black"/>
</svg>
