<svg width="36" height="36" viewBox="0 0 36 36" fill="none" xmlns="http://www.w3.org/2000/svg">
<path d="M18 32.7601C17.5156 32.7613 17.0359 32.6665 16.5884 32.4812C16.1409 32.2959 15.7345 32.0237 15.3928 31.6805L3.46641 19.7537C1.69557 17.9828 0.719971 15.6284 0.719971 13.1235V12.977C0.719971 10.4721 1.69557 8.11738 3.46641 6.3469C5.23725 4.57642 7.59237 3.6001 10.0962 3.6001H10.2438C12.7476 3.6001 15.1027 4.5757 16.8735 6.34654L18 7.47298L19.1264 6.34654C20.8973 4.5757 23.2524 3.6001 25.7562 3.6001H25.9038C28.4076 3.6001 30.7627 4.5757 32.5335 6.34654C34.3044 8.11738 35.28 10.4718 35.28 12.9767V13.1232C35.28 15.6281 34.3044 17.9828 32.5335 19.7533L20.6071 31.6801C20.2655 32.0235 19.8591 32.2957 19.4116 32.4811C18.9642 32.6665 18.4843 32.7613 18 32.7601ZM16.92 30.153C17.4988 30.7308 18.5022 30.7293 19.08 30.1526L31.0064 18.2269C31.6785 17.5581 32.2113 16.7628 32.5741 15.8868C32.9369 15.0109 33.1224 14.0717 33.12 13.1235V12.977C33.12 11.0492 32.369 9.23698 31.0064 7.87402C29.6438 6.51106 27.8309 5.7601 25.9038 5.7601H25.7562C24.8081 5.75743 23.869 5.94286 22.9931 6.30566C22.1172 6.66846 21.322 7.20141 20.6535 7.87366L18.7635 9.76366C18.6633 9.864 18.5443 9.94359 18.4132 9.9979C18.2822 10.0522 18.1418 10.0802 18 10.0802C17.8581 10.0802 17.7177 10.0522 17.5867 9.9979C17.4557 9.94359 17.3366 9.864 17.2364 9.76366L15.3464 7.87366C14.6779 7.20141 13.8827 6.66846 13.0068 6.30566C12.131 5.94286 11.1918 5.75743 10.2438 5.7601H10.0962C8.16909 5.7601 6.35613 6.51034 4.99353 7.87366C3.63093 9.23698 2.87997 11.0489 2.87997 12.9767V13.1232C2.87743 14.0713 3.06293 15.0104 3.42571 15.8863C3.7885 16.7623 4.32139 17.5575 4.99353 18.2262L16.92 30.153Z" fill="black"/>
</svg>
