<svg xmlns="http://www.w3.org/2000/svg" xmlns:xlink="http://www.w3.org/1999/xlink" version="1.1" id="Layer_1" x="0px" y="0px" width="100%" viewBox="0 0 2848 1219" enable-background="new 0 0 2848 1219" xml:space="preserve" data-google-analytics-opt-out="">
<path fill="#FEFEFE" opacity="1.000000" stroke="none" d=" M2205.000000,1220.000000   C1470.000000,1220.000000 735.500000,1220.000000 1.000000,1220.000000   C1.000000,813.666687 1.000000,407.333344 1.000000,1.000000   C950.333313,1.000000 1899.666626,1.000000 2849.000000,1.000000   C2849.000000,407.333344 2849.000000,813.666687 2849.000000,1220.000000   C2634.500000,1220.000000 2420.000000,1220.000000 2205.000000,1220.000000  M1986.415283,145.292160   C1936.765259,146.424484 1887.119263,147.798645 1837.464233,148.631714   C1765.482178,149.839340 1693.494873,151.365631 1621.507568,151.491974   C1470.354126,151.757278 1319.194580,151.834320 1168.046387,150.756195   C1067.069946,150.035950 966.105225,147.360748 865.142212,145.230286   C809.832397,144.063171 754.528442,142.466599 699.237366,140.601318   C632.959412,138.365356 566.695068,135.711655 500.430573,133.093643   C458.808960,131.449249 417.186462,129.766495 375.584625,127.694443   C308.526581,124.354477 241.479340,120.786583 174.438950,117.107201   C130.025742,114.669670 85.633545,111.850471 41.228405,109.262848   C37.163300,109.025963 33.072426,109.231323 28.647673,109.231323   C68.361732,471.097809 68.327904,832.666870 28.580578,1194.633911   C959.856934,1136.143677 1890.287720,1136.149902 2821.410645,1194.632324   C2781.638916,832.422485 2781.640625,470.739319 2821.366211,108.926407   C2819.001465,108.926407 2817.520752,108.851677 2816.049561,108.937210   C2768.316650,111.712212 2720.584717,114.493317 2672.853760,117.297043   C2660.221436,118.039070 2647.593262,118.857864 2634.187744,119.478302   C2630.195068,119.557358 2626.188721,119.891052 2622.211914,119.676102   C2582.010498,117.503113 2542.566406,110.402832 2504.010742,99.202660   C2452.461182,84.227852 2401.249268,68.091629 2349.902588,52.419682   C2314.333984,41.563438 2278.244141,33.258144 2240.997559,31.181051   C2191.854736,28.440521 2144.566650,36.637959 2099.243652,56.022305   C2063.258545,71.412880 2030.993530,92.065445 2005.398438,122.120995   C1999.044800,129.581696 1993.331665,137.587723 1986.415283,145.292160  z"/>
<path fill="#3E4493" opacity="1.000000" stroke="none" d=" M2634.963379,119.641396   C2647.593262,118.857864 2660.221436,118.039070 2672.853760,117.297043   C2720.584717,114.493317 2768.316650,111.712212 2816.049561,108.937210   C2817.520752,108.851677 2819.001465,108.926407 2821.366211,108.926407   C2781.640625,470.739319 2781.638916,832.422485 2821.410645,1194.632324   C1890.287720,1136.149902 959.856934,1136.143677 28.580578,1194.633911   C68.327904,832.666870 68.361732,471.097809 28.647673,109.231323   C33.072426,109.231323 37.163300,109.025963 41.228405,109.262848   C85.633545,111.850471 130.025742,114.669670 174.438950,117.107201   C241.479340,120.786583 308.526581,124.354477 375.584625,127.694443   C417.186462,129.766495 458.808960,131.449249 500.430573,133.093643   C566.695068,135.711655 632.959412,138.365356 699.237366,140.601318   C754.528442,142.466599 809.832397,144.063171 865.142212,145.230286   C966.105225,147.360748 1067.069946,150.035950 1168.046387,150.756195   C1319.194580,151.834320 1470.354126,151.757278 1621.507568,151.491974   C1693.494873,151.365631 1765.482178,149.839340 1837.464233,148.631714   C1887.119263,147.798645 1936.765259,146.424484 1986.730469,145.642242   C1979.649170,161.055908 1971.375122,175.761826 1965.055176,191.264374   C1954.795654,216.430511 1950.607056,243.077255 1949.226807,270.146362   C1948.933716,275.893127 1949.183960,281.667572 1949.183960,287.429291   C1949.683716,287.443848 1950.183472,287.458374 1950.683228,287.472931   C1951.585205,286.097931 1952.379028,284.635681 1953.406372,283.361847   C1961.859497,272.881958 1969.527710,261.607819 1979.002197,252.144531   C2002.757568,228.417023 2031.755981,212.951462 2063.221680,201.878113   C2108.620361,185.901459 2155.756592,179.906693 2203.508545,179.468277   C2232.247070,179.204422 2261.024414,181.598434 2289.758301,183.250336   C2299.501465,183.810471 2309.165039,185.756561 2318.864990,187.069305   C2318.831299,187.654846 2318.797607,188.240372 2318.764160,188.825912   C2308.117188,188.825912 2297.462891,188.570969 2286.824463,188.872940   C2252.677002,189.842178 2218.829346,193.729492 2185.264893,200.032852   C2146.373779,207.336533 2108.557617,218.174484 2072.667236,235.096741   C2037.839844,251.517715 2006.003906,272.181610 1980.802124,301.804962   C1974.400024,309.330261 1968.997681,317.706116 1962.584351,326.442688   C1965.685913,327.235901 1967.247192,327.711670 1968.839966,328.031036   C1996.020142,333.481598 2023.571411,335.755859 2051.193359,335.722748   C2077.474121,335.691254 2103.785889,334.572144 2130.022461,332.941223   C2150.250244,331.683838 2170.520508,329.763336 2190.525635,326.586304   C2223.009521,321.427582 2255.391357,315.495575 2287.636719,308.998718   C2346.434326,297.152069 2402.991943,278.224670 2457.273193,252.727783   C2523.411865,221.661423 2584.299561,182.554001 2638.214844,132.975784   C2642.492432,129.042221 2646.508789,124.824356 2650.646484,120.738655   C2650.410645,120.372902 2650.175049,120.007149 2649.939209,119.641396   C2644.947266,119.641396 2639.955322,119.641396 2634.963379,119.641396  M1224.092896,395.436035   C1230.272095,505.621307 1229.575317,615.772766 1221.710083,725.095825   C1248.508179,725.095825 1274.546631,725.095825 1300.438232,725.095825   C1298.935303,702.282593 1297.398926,678.962097 1295.928589,656.643066   C1322.537964,649.204529 1348.109863,642.056030 1374.333496,634.725342   C1374.808716,635.330139 1375.969360,636.720154 1377.036743,638.178406   C1397.694336,666.400574 1418.381592,694.601440 1438.928589,722.904114   C1441.025269,725.792236 1442.921631,726.956604 1446.691040,726.379639   C1452.924927,725.425476 1459.299927,724.999512 1465.612549,725.026672   C1483.812988,725.104919 1502.011719,725.520630 1519.624390,725.794678   C1487.939453,688.239868 1455.757324,650.095825 1423.434204,611.784607   C1430.560059,607.532532 1437.072754,603.841797 1443.389893,599.842224   C1468.107178,584.193054 1490.380859,565.898865 1506.297729,540.859497   C1522.897339,514.746338 1530.433838,486.586212 1525.022095,455.665802   C1520.390381,429.201416 1504.929810,409.425842 1484.379150,393.618042   C1448.209229,365.795746 1406.344116,354.004364 1361.275879,353.424744   C1316.454834,352.848267 1271.620728,353.296875 1226.792358,353.296021   C1225.216919,353.295990 1223.641479,353.296021 1221.674683,353.296021   C1222.500488,367.571808 1223.278564,381.024017 1224.092896,395.436035  M1632.500000,846.030884   C1612.843018,845.772461 1593.185791,845.272827 1573.529053,845.295715   C1466.218018,845.420776 1358.906738,845.626038 1251.595947,845.918884   C1226.109009,845.988464 1200.622803,846.466309 1175.137207,846.816833   C1151.151611,847.146790 1127.165405,847.477905 1103.182373,847.951843   C1075.708374,848.494751 1048.236816,849.166992 1020.765503,849.836060   C994.293945,850.480835 967.821411,851.106262 941.354065,851.899109   C911.897339,852.781616 882.444580,853.803589 852.992676,854.838928   C825.539307,855.803894 798.087524,856.816711 770.638672,857.900879   C747.518799,858.814087 724.403076,859.833740 701.287598,860.853516   C669.523987,862.254822 637.761047,863.671875 606.000549,865.140991   C592.367432,865.771606 578.735901,866.463928 565.112732,867.279175   C534.386475,869.118042 503.666412,871.062012 472.942505,872.941345   C454.671661,874.058960 436.390717,875.022461 418.127869,876.256287   C390.575531,878.117798 363.031616,880.108398 335.490997,882.137878   C322.475555,883.096985 309.476135,884.273804 298.450439,885.187744   C304.814606,885.187744 313.132446,885.297607 321.446594,885.169067   C362.085571,884.540894 402.723663,883.851074 443.362000,883.179199   C483.334106,882.518311 523.305969,881.842896 563.278320,881.192322   C605.083130,880.511902 646.888306,879.845154 688.693542,879.188782   C710.846069,878.840881 732.998962,878.516418 755.152039,878.201721   C779.804626,877.851562 804.457153,877.493591 829.110413,877.195068   C859.262512,876.829956 889.415283,876.520630 919.567810,876.191650   C950.387085,875.855286 981.205811,875.469727 1012.025696,875.204468   C1056.510376,874.821594 1100.996094,874.227051 1145.481201,874.247681   C1345.949463,874.340393 1546.417603,874.583252 1746.885864,874.864929   C1779.372070,874.910522 1811.857910,875.407532 1844.343750,875.724792   C1880.495728,876.077881 1916.647705,876.447266 1952.799194,876.841797   C1977.286011,877.109070 2001.772461,877.417908 2026.258789,877.733459   C2051.911621,878.064087 2077.564209,878.412109 2103.216553,878.776794   C2124.536377,879.079834 2145.855713,879.407593 2167.175049,879.742859   C2209.646973,880.410706 2252.118896,881.079712 2294.590576,881.770020   C2334.062500,882.411560 2373.533691,883.112793 2413.006104,883.728760   C2443.156250,884.199280 2473.307373,884.656494 2503.459473,884.966370   C2520.241699,885.138855 2537.027100,884.997375 2553.811035,884.997375   C2545.563477,884.691711 2537.313965,883.796082 2529.043213,883.191284   C2496.356934,880.801514 2463.670654,878.401062 2430.971436,876.199585   C2399.263184,874.064880 2367.543945,872.085205 2335.820068,870.193115   C2306.084961,868.419739 2276.341309,866.779724 2246.594727,865.211548   C2219.502441,863.783264 2192.404297,862.455200 2165.302490,861.219604   C2134.206055,859.801758 2103.105225,858.477722 2072.001953,857.219360   C2045.386108,856.142639 2018.766113,855.159546 1992.144409,854.238159   C1961.359131,853.172668 1930.572021,852.149170 1899.781860,851.239929   C1873.814087,850.473083 1847.841919,849.848633 1821.869751,849.246826   C1791.065918,848.533081 1760.261841,847.800781 1729.454468,847.279846   C1697.471802,846.738892 1665.484985,846.440918 1632.500000,846.030884  M598.799866,507.703156   C614.225403,513.842163 629.431335,520.630005 645.135864,525.944641   C662.114380,531.690430 679.792053,535.380493 696.740112,541.203308   C717.720703,548.411499 736.891357,559.048035 751.751099,576.156067   C760.480835,586.206665 765.409546,597.583496 764.835938,611.231812   C763.808899,635.667847 754.624939,656.490112 737.557983,673.796692   C716.598816,695.050171 690.349548,705.081848 661.441528,710.203857   C637.662720,714.416992 616.585205,709.217651 597.121094,695.655701   C590.293030,690.898132 583.111877,686.551025 576.767944,681.213135   C557.909302,665.344910 539.324585,649.147949 520.803223,632.885498   C518.187195,630.588501 516.281433,630.416992 513.442505,632.034180   C505.801697,636.386353 501.902405,644.095093 504.504578,654.438293   C510.070007,676.560242 516.922119,698.100830 541.240906,707.500793   C546.016052,709.346436 550.334534,712.345703 554.945435,714.649109   C573.423218,723.880371 592.845520,730.075073 613.472961,731.907959   C644.357239,734.652161 675.055847,732.825012 705.461365,726.910400   C734.307312,721.299194 761.538147,711.659058 785.640930,694.181519   C833.429565,659.528442 848.607849,590.118835 801.111328,540.696167   C777.999573,516.647278 750.762390,499.173737 719.611084,488.179169   C700.069031,481.282043 679.682861,476.803864 659.763000,470.942780   C638.428711,464.665405 617.899414,456.606445 600.382874,442.320709   C591.693665,435.234161 588.830566,426.458038 590.496277,415.289276   C594.236084,390.213440 625.284546,368.363068 648.483398,368.189789   C696.023315,367.834747 736.949829,383.220062 768.093384,420.661407   C768.940735,421.680145 771.223450,422.339264 772.539856,422.003174   C784.387695,418.978363 790.358215,409.259155 788.555725,396.426758   C786.104553,378.976410 776.089661,365.500092 765.330139,352.455048   C764.552490,351.512238 762.748596,351.149200 761.372620,351.012482   C755.242371,350.403595 749.099976,349.885681 742.951660,349.496521   C712.045105,347.540375 681.148743,345.369995 650.221985,343.806213   C630.114136,342.789429 611.206421,348.120850 593.774658,357.888672   C567.819214,372.432800 549.096069,392.822144 543.457275,423.202789   C539.331482,445.431732 544.394165,464.638031 560.929626,480.704437   C572.044983,491.504456 584.559082,500.123505 598.799866,507.703156  M861.686707,680.098206   C853.636292,695.870300 845.585876,711.642395 837.788513,726.918823   C852.672913,726.918823 867.217102,726.918823 881.753052,726.918823   C892.936279,701.663330 904.203125,676.280212 915.390503,650.862000   C916.539185,648.252075 917.636169,646.622070 921.062378,646.631409   C970.393005,646.765808 1019.724121,646.747375 1069.054932,646.664062   C1072.046875,646.658997 1073.400146,647.478882 1074.246094,650.504211   C1077.648926,662.672607 1081.419922,674.737549 1084.978638,686.862976   C1088.899902,700.224121 1092.737427,713.609802 1096.339111,726.044434   C1123.156982,726.044434 1149.246338,726.044434 1175.569458,726.044434   C1122.764648,606.178955 1081.489502,481.645782 1046.239136,354.729553   C1019.701416,358.061646 993.570007,357.650726 966.990417,354.365631   C974.173157,372.065125 981.184143,388.944916 987.767334,405.989960   C988.758484,408.556305 988.656250,412.295685 987.537964,414.817535   C947.950684,504.087708 906.098389,592.287537 861.686707,680.098206  M2145.782227,679.713074   C2136.159912,655.269409 2126.201416,630.951843 2116.976562,606.359009   C2086.765869,525.817871 2060.884033,443.866913 2038.031372,360.955566   C2036.658447,355.974396 2034.838745,354.657928 2029.579712,355.212708   C2018.504639,356.380920 2007.312500,356.984955 1996.176514,356.887817   C1983.241821,356.774963 1970.315796,355.662811 1957.184814,354.973846   C1957.721802,356.403290 1958.260254,357.943146 1958.873779,359.452515   C1965.070679,374.702576 1971.186401,389.986908 1977.553345,405.165802   C1979.095581,408.842438 1978.917358,411.860596 1977.288940,415.519531   C1931.087646,519.334229 1881.865356,621.694824 1829.771484,722.677979   C1828.945557,724.278992 1828.146973,725.894165 1827.623657,726.931641   C1842.221802,726.931641 1856.770874,726.931641 1871.780518,726.931641   C1872.093994,726.219788 1872.619995,725.023743 1873.146851,723.828064   C1883.876587,699.480286 1894.634766,675.145020 1905.295654,650.767090   C1906.466919,648.088806 1907.704346,646.627625 1911.053955,646.636230   C1960.381348,646.763000 2009.709351,646.753357 2059.036865,646.653687   C2062.135254,646.647400 2063.333008,647.686707 2064.155518,650.583984   C2067.968262,664.018738 2072.053223,677.375977 2075.988037,690.776367   C2079.532715,702.847900 2083.009521,714.939453 2086.425537,726.709961   C2099.972900,726.137268 2112.937988,725.162292 2125.903320,725.160645   C2138.945557,725.158997 2151.987793,726.125732 2165.524170,726.688660   C2158.919189,711.015747 2152.475586,695.725891 2145.782227,679.713074  M1746.961914,433.511292   C1748.165771,415.290649 1749.369507,397.070007 1750.564087,378.988800   C1752.529053,378.711426 1753.174927,378.518311 1753.811646,378.545135   C1774.384277,379.412109 1794.613281,382.459015 1813.977783,389.595734   C1828.635010,394.997589 1842.994385,401.207611 1857.484741,407.061920   C1869.505005,411.918274 1877.668335,407.189667 1878.809448,394.256104   C1879.197754,389.855042 1878.811035,385.211578 1877.831543,380.893646   C1873.346924,361.122894 1862.992065,353.170898 1842.991699,353.381195   C1797.330200,353.861328 1751.667969,354.605713 1706.005981,354.601746   C1662.676880,354.597961 1619.348389,353.722321 1576.018555,353.343658   C1557.452271,353.181396 1542.731079,368.245331 1543.029663,386.784180   C1543.205200,397.677795 1549.863159,403.822906 1560.590576,402.825378   C1562.878540,402.612671 1565.167603,402.021698 1567.369019,401.328278   C1587.184326,395.086517 1606.751709,387.880554 1626.855591,382.789062   C1642.366089,378.860840 1658.542847,377.563599 1675.158569,374.982361   C1682.379761,493.460754 1682.376709,610.411987 1674.026978,726.576782   C1700.565552,726.576782 1726.603760,726.576782 1753.054443,726.576782   C1753.054443,725.623230 1753.103027,723.992554 1753.047119,722.365356   C1751.908691,689.223816 1750.336426,656.090637 1749.701538,622.939636   C1748.498535,560.134216 1747.831909,497.318512 1746.961914,433.511292  M2328.616455,355.138397   C2308.216064,355.138397 2287.815430,355.138397 2267.239258,355.138397   C2267.239258,356.711639 2267.133545,359.341034 2267.254883,361.959961   C2269.105225,401.890747 2271.697021,441.802185 2272.705566,481.753754   C2274.606689,557.065369 2273.089600,632.344299 2267.995117,707.531738   C2266.349365,731.824829 2256.081299,750.918884 2234.635986,763.228882   C2227.872803,767.111206 2220.649902,770.185669 2213.809814,773.943115   C2203.180420,779.781799 2192.609863,785.739746 2182.191162,791.943787   C2176.834717,795.133301 2173.780273,800.077148 2174.479736,806.560181   C2175.236572,813.574158 2179.343018,818.609558 2185.961426,820.171936   C2191.092285,821.383179 2197.182617,822.075012 2202.002686,820.467468   C2228.161377,811.742859 2254.291748,802.829712 2279.968506,792.796204   C2299.300781,785.241882 2316.794434,774.210083 2331.174316,758.819397   C2341.091309,748.205383 2346.349121,735.619995 2345.649902,721.169006   C2343.919922,685.408813 2341.046631,649.694519 2339.822510,613.921082   C2337.119629,534.934814 2339.766113,456.021179 2344.688477,377.171722   C2345.172607,369.416382 2345.583496,361.656464 2346.043457,353.633179   C2340.127930,354.152435 2334.836182,354.616974 2328.616455,355.138397  M1467.145996,969.320374   C1452.610840,957.950012 1435.747559,962.951599 1419.958252,961.818298   C1419.958252,984.591187 1419.958252,1006.615173 1419.958252,1028.647949   C1424.447998,1028.647949 1428.869995,1028.647949 1433.244141,1028.647949   C1433.244141,1024.462158 1433.244141,1020.526123 1433.252441,1016.589844   C1446.521484,1011.923645 1446.520508,1011.924316 1454.481567,1022.860718   C1455.557983,1024.339478 1456.506592,1025.950195 1457.785278,1027.228760   C1458.614136,1028.057739 1459.912720,1028.813232 1461.040405,1028.874756   C1464.773315,1029.078003 1468.524414,1028.951416 1473.032104,1028.951416   C1466.993408,1021.711304 1461.515747,1015.143738 1456.125000,1008.680298   C1459.929932,1005.696716 1463.717529,1003.215393 1466.916260,1000.124573   C1475.613403,991.720520 1477.614868,977.921509 1467.145996,969.320374  M1696.133423,1006.522339   C1700.715820,990.870850 1695.510376,975.299255 1682.710938,966.369751   C1670.805542,958.063965 1655.241211,958.344360 1643.568604,967.074890   C1631.411621,976.167725 1626.358765,992.251404 1631.106201,1006.743896   C1635.619751,1020.522949 1648.030151,1030.058960 1662.334961,1030.739868   C1676.968750,1031.436401 1689.592285,1022.632507 1696.133423,1006.522339  M1306.614136,971.085754   C1305.284058,962.882263 1303.998657,961.942566 1295.046265,962.510315   C1295.046265,984.555969 1295.046265,1006.591736 1295.046265,1028.838501   C1298.857788,1028.838501 1302.767578,1028.838501 1306.488159,1028.838501   C1306.488159,1018.037537 1306.799805,1007.423340 1306.359497,996.840393   C1306.132202,991.379456 1309.329468,990.371643 1313.258179,989.801636   C1317.551514,989.178589 1320.936646,991.569946 1321.305054,995.939880   C1321.750244,1001.218994 1321.673828,1006.566467 1321.461426,1011.869873   C1321.237183,1017.464966 1320.586670,1023.043030 1320.091187,1029.003662   C1324.545166,1029.003662 1328.572266,1029.003662 1332.073120,1029.003662   C1332.073120,1022.842712 1332.086060,1017.025757 1332.069580,1011.208984   C1332.052490,1005.215515 1332.103149,999.219666 1331.948364,993.229431   C1331.767456,986.226807 1327.082275,982.166199 1320.128906,983.189697   C1317.382080,983.594055 1314.752808,984.832458 1312.087891,985.743591   C1310.465576,986.298340 1308.877441,986.953308 1306.687134,987.786438   C1306.687134,981.940796 1306.687134,976.959839 1306.614136,971.085754  M1782.101318,983.712830   C1774.031250,984.728149 1766.992310,987.689880 1764.402710,996.054016   C1761.949707,1003.976807 1767.428589,1008.583374 1773.181885,1012.956116   C1771.113037,1015.167358 1769.047241,1017.375366 1766.784546,1019.793945   C1768.829834,1020.839539 1770.255127,1021.568176 1771.739624,1022.327087   C1766.119873,1028.443481 1765.299683,1032.630371 1769.337402,1036.820068   C1774.884521,1042.576050 1781.738159,1045.145142 1789.722046,1043.333496   C1797.813965,1041.497437 1803.156250,1036.398560 1805.935303,1028.609009   C1807.219238,1025.010376 1805.964111,1022.871033 1802.191406,1022.123413   C1796.982544,1021.091064 1791.766479,1020.077576 1786.597900,1018.866333   C1783.931763,1018.241516 1781.361572,1017.206787 1778.748047,1016.357239   C1778.847168,1015.822571 1778.946289,1015.287903 1779.045288,1014.753174   C1786.644043,1015.386047 1794.011963,1014.973877 1800.289429,1010.190186   C1806.933960,1005.126892 1807.696777,1000.173157 1803.150391,989.612793   C1805.103882,990.160156 1806.597168,990.999878 1807.996094,990.864563   C1809.770264,990.693054 1811.468018,989.729614 1813.198730,989.107605   C1812.519531,987.426697 1812.277588,984.853821 1811.065674,984.259705   C1808.866821,983.181824 1805.642090,982.235474 1803.641968,983.092590   C1798.306519,985.379028 1793.245361,985.224304 1787.887939,983.768127   C1786.335449,983.346069 1784.589111,983.636841 1782.101318,983.712830  M1007.857300,966.633850   C1012.443970,968.025452 1017.006409,969.506409 1021.631531,970.755615   C1023.074951,971.145569 1025.684937,971.457764 1026.020386,970.848022   C1026.780640,969.466064 1027.191895,966.960693 1026.409302,965.873718   C1025.148438,964.122437 1022.830994,962.052124 1020.923706,962.015747   C1004.955261,961.711426 988.976196,961.715149 973.007019,961.999146   C971.008118,962.034668 968.778503,963.974670 967.196289,965.568726   C966.520752,966.249451 967.113647,969.529480 967.333862,969.551086   C969.471924,969.760803 971.717224,969.822937 973.809631,969.366577   C979.189087,968.193481 984.506226,966.734680 990.663818,965.184814   C990.663818,987.326050 990.663818,1008.031982 990.663818,1028.782471   C995.176636,1028.782471 999.590698,1028.782471 1003.348206,1028.782471   C1003.348206,1017.765259 1003.285583,1006.990234 1003.367676,996.216248   C1003.436035,987.241272 1003.693176,978.267761 1003.823975,969.292969   C1003.856262,967.075073 1004.451782,965.688904 1007.857300,966.633850  M1865.982544,984.322693   C1862.634521,985.729004 1859.286499,987.135315 1855.981567,988.523621   C1852.487671,982.221619 1850.912109,981.585449 1843.587769,983.101562   C1843.587769,998.516296 1843.587769,1013.876465 1843.587769,1028.912598   C1847.733032,1028.912598 1851.685913,1028.912598 1855.763062,1028.912598   C1855.763062,1018.135681 1855.748413,1007.693909 1855.770020,997.252075   C1855.779663,992.571472 1858.450928,990.195618 1864.014404,989.821167   C1868.783447,989.500183 1871.895996,991.851379 1871.960327,996.622437   C1872.061157,1004.101929 1871.701172,1011.589539 1871.452148,1019.070923   C1871.343994,1022.318726 1871.026001,1025.559570 1870.806885,1028.752197   C1875.348389,1028.752197 1879.237915,1028.752197 1882.754150,1028.752197   C1882.754150,1016.614868 1882.917725,1004.799805 1882.689819,992.992249   C1882.562012,986.379333 1878.726318,982.995850 1872.120972,983.087341   C1870.327393,983.112122 1868.542114,983.728210 1865.982544,984.322693  M1250.043579,986.511902   C1250.043579,1000.585876 1250.043579,1014.659912 1250.043579,1028.735229   C1254.043579,1028.735229 1258.448486,1028.735229 1262.991699,1028.735229   C1263.524414,1007.812500 1260.373901,987.114624 1263.252808,965.267761   C1269.677612,967.333435 1275.290283,969.216125 1280.961670,970.901245   C1282.225952,971.276978 1284.222900,971.503601 1284.934814,970.816711   C1285.765259,970.015564 1286.005615,968.032471 1285.707153,966.746643   C1285.025391,963.808533 1283.396606,961.784424 1279.834106,961.804993   C1263.854492,961.897339 1247.871948,961.719482 1231.896851,962.002747   C1229.899292,962.038147 1227.674438,963.968872 1226.088379,965.554871   C1225.414917,966.228333 1225.985718,969.488342 1226.215576,969.513428   C1228.345581,969.745667 1230.592041,969.835999 1232.676392,969.380798   C1238.045288,968.208435 1243.348755,966.736694 1250.032471,965.041016   C1250.032471,972.918701 1250.032471,979.218140 1250.043579,986.511902  M1024.362305,1017.760010   C1026.754150,1021.008301 1028.503784,1025.242065 1031.668579,1027.303955   C1038.702393,1031.886963 1046.045288,1028.131348 1052.240723,1026.291992   C1057.194458,1030.527954 1062.160522,1028.002686 1066.044189,1028.861084   C1066.044189,1016.102661 1066.093750,1003.979370 1065.968628,991.857910   C1065.955933,990.627930 1065.223999,988.805054 1064.264648,988.276978   C1053.433594,982.314880 1042.347290,980.581360 1031.206665,987.416565   C1029.837280,988.256714 1029.175415,990.250183 1028.185669,991.709167   C1030.043579,991.761536 1031.954956,992.120544 1033.749023,991.807251   C1038.679321,990.946045 1043.544189,989.094238 1048.465698,988.981934   C1052.891846,988.880920 1055.176392,991.938538 1053.523193,997.066528   C1049.650879,997.066528 1045.815430,996.777161 1042.037231,997.119263   C1029.242554,998.277832 1023.982361,1004.239197 1024.362305,1017.760010  M1561.451294,1028.739624   C1563.374023,1028.739624 1565.296753,1028.739624 1566.827637,1028.739624   C1566.827637,1016.085632 1566.867920,1003.809021 1566.757202,991.533813   C1566.747314,990.456726 1566.031616,988.874084 1565.163818,988.394348   C1554.171143,982.317810 1542.941650,980.536865 1531.654663,987.549805   C1530.362061,988.352844 1529.850342,990.412720 1528.976562,991.889832   C1530.718384,991.916809 1532.758301,992.547974 1534.148438,991.862183   C1539.164673,989.387756 1544.079102,987.239136 1549.860474,988.910706   C1553.861328,990.067566 1555.728027,992.338135 1554.773193,995.825867   C1547.545410,997.035645 1540.519531,997.476318 1533.984619,999.501343   C1526.673096,1001.766968 1523.210938,1010.446228 1525.197266,1018.548584   C1526.843018,1025.261719 1533.100342,1029.812500 1540.654419,1029.111328   C1545.045898,1028.703979 1549.346924,1027.324585 1553.781128,1026.362305   C1554.698730,1030.496216 1558.153198,1028.118896 1561.451294,1028.739624  M1104.244019,1027.932007   C1110.792480,1024.206177 1115.251709,1018.921692 1114.439575,1011.063660   C1113.590820,1002.849792 1107.202026,999.608337 1100.185547,997.586792   C1096.522705,996.531555 1092.661499,996.157410 1089.011841,995.067749   C1087.518311,994.621948 1086.346436,993.098267 1085.028320,992.064880   C1086.405640,990.773560 1087.582031,988.777283 1089.196411,988.316833   C1095.203979,986.603333 1100.705200,988.096130 1105.503052,992.115967   C1106.820557,993.219910 1108.151733,994.307434 1109.571411,995.480774   C1112.512573,991.589355 1111.837158,989.226868 1108.268188,986.855408   C1099.826416,981.246033 1089.182861,980.324646 1081.911255,985.050842   C1078.195801,987.465759 1075.724854,990.733093 1076.109741,995.381531   C1076.477051,999.817383 1079.700562,1002.075562 1083.461548,1003.301025   C1087.069946,1004.476807 1090.921875,1004.884094 1094.586304,1005.915344   C1097.085205,1006.618591 1100.163452,1007.192688 1101.683594,1008.949036   C1103.527954,1011.079651 1105.174194,1014.602539 1104.723145,1017.134094   C1104.322021,1019.386230 1101.186157,1022.301270 1098.818970,1022.786743   C1095.155518,1023.538086 1090.868530,1023.199036 1087.309082,1021.975342   C1083.517944,1020.672119 1080.265381,1017.802002 1076.586914,1015.496277   C1073.320923,1017.553894 1074.584717,1019.997864 1076.413330,1022.425049   C1082.340576,1030.292969 1093.037964,1032.564209 1104.244019,1027.932007  M1498.975098,1010.486328   C1502.949341,1006.727966 1507.331421,1003.308472 1510.800903,999.130920   C1515.872314,993.024841 1513.339111,985.525330 1505.667480,983.244080   C1503.041748,982.463318 1500.045898,982.242920 1497.324585,982.590820   C1487.357666,983.864868 1479.722046,991.810974 1478.117920,1002.109436   C1476.413574,1013.052917 1481.507202,1023.995422 1490.337402,1028.359009   C1498.298462,1032.293213 1509.475708,1029.753052 1514.683472,1022.792603   C1516.497192,1020.368408 1517.596802,1017.950378 1514.218018,1015.870850   C1501.789917,1025.714600 1495.268188,1025.777588 1490.595215,1016.235413   C1493.196411,1014.468079 1495.802979,1012.697144 1498.975098,1010.486328  M1351.906250,985.247375   C1339.038818,994.382751 1336.554077,1011.713562 1346.457886,1023.248962   C1354.494995,1032.610352 1369.827515,1032.503540 1377.121460,1023.015381   C1378.935913,1020.654968 1380.340210,1018.241821 1377.024414,1015.930664   C1363.278687,1025.581665 1358.218628,1025.664429 1353.090576,1016.269043   C1354.463257,1015.378174 1355.978882,1014.626282 1357.214844,1013.552612   C1362.719727,1008.769775 1368.620239,1004.322571 1373.465576,998.933960   C1378.390259,993.457092 1376.836548,987.454956 1370.295898,984.112488   C1364.363037,981.080627 1358.362915,981.935425 1351.906250,985.247375  M1170.953003,982.460510   C1159.493896,981.913513 1150.606934,988.246460 1147.437866,999.217529   C1144.255249,1010.235901 1148.927979,1022.750000 1158.162598,1027.939575   C1166.195068,1032.453613 1178.148926,1029.975342 1183.395996,1022.705566   C1185.069092,1020.387512 1186.180176,1018.096619 1183.122192,1015.981506   C1168.847656,1025.565796 1164.569458,1025.645264 1159.090454,1016.446655   C1162.334961,1014.151245 1165.715332,1012.014648 1168.796143,1009.509705   C1172.014038,1006.893250 1175.208130,1004.156311 1177.948486,1001.061218   C1185.411377,992.632324 1182.835938,985.219666 1170.953003,982.460510  M1123.386841,1026.423584   C1124.088257,1027.225098 1124.746460,1028.668457 1125.498291,1028.719116   C1129.103394,1028.962158 1132.734009,1028.828247 1135.732300,1028.828247   C1135.732300,1015.367920 1135.780273,1002.276672 1135.704102,989.186218   C1135.680054,985.069092 1135.683716,981.479858 1141.583496,983.811523   C1142.326904,984.105286 1143.672607,982.875183 1144.739258,982.351135   C1144.072632,981.388123 1143.608276,979.940491 1142.698120,979.560303   C1140.633301,978.697937 1138.348999,978.361023 1135.950317,977.759338   C1136.186646,972.467712 1136.414185,967.375488 1136.645996,962.184937   C1134.307495,962.184937 1132.354492,962.184937 1130.019287,962.184937   C1128.293579,970.842468 1125.667725,978.968567 1116.517944,983.067078   C1116.787231,983.461609 1117.056641,983.856079 1117.326050,984.250610   C1119.520996,984.250610 1121.715942,984.250610 1123.486206,984.250610   C1123.486206,998.312073 1123.486206,1011.930359 1123.386841,1026.423584  M1587.868530,966.996765   C1585.851562,960.743042 1580.698608,962.632141 1576.424683,962.115234   C1576.424683,984.577576 1576.424683,1006.610229 1576.424683,1028.785889   C1580.472900,1028.785889 1584.548340,1028.785889 1588.360596,1028.785889   C1588.360596,1017.455566 1588.405396,1006.352661 1588.346558,995.250366   C1588.297974,986.101990 1588.126343,976.954346 1587.868530,966.996765  M1720.724243,991.000427   C1727.155151,989.030151 1724.483154,994.897949 1726.032715,997.589478   C1729.979736,997.273193 1733.610229,995.719238 1734.581177,992.067871   C1735.134766,989.985657 1733.500488,986.485046 1731.734009,984.781677   C1726.674561,979.902466 1722.449585,984.305298 1718.367798,987.137756   C1714.857666,981.795166 1712.847778,981.133789 1706.459473,982.811462   C1706.459473,998.132690 1706.459473,1013.365967 1706.459473,1028.627197   C1710.460571,1028.627197 1714.523804,1028.627197 1718.845825,1028.627197   C1718.845825,1027.477539 1718.854858,1026.676147 1718.844360,1025.875122   C1718.716064,1016.066162 1718.514648,1006.257202 1718.522461,996.448364   C1718.523804,994.777771 1719.419067,993.107849 1720.724243,991.000427  M1755.082031,987.695679   C1752.906372,982.262878 1751.764526,981.781616 1743.578247,982.830872   C1743.578247,998.188293 1743.578247,1013.541260 1743.578247,1028.732910   C1747.676514,1028.732910 1751.743164,1028.732910 1755.216675,1028.732910   C1755.216675,1015.073975 1755.216675,1001.799622 1755.082031,987.695679  M1834.412231,1024.766357   C1834.315430,1014.142456 1834.258057,1003.518005 1834.110107,992.894836   C1833.976196,983.281189 1832.056641,981.673523 1822.279785,982.835876   C1822.279785,998.143250 1822.279785,1013.465454 1822.279785,1028.946411   C1825.579956,1028.946411 1829.056030,1029.145996 1832.476196,1028.796143   C1833.260864,1028.715820 1833.852173,1026.745483 1834.412231,1024.766357  M1833.225952,971.490906   C1834.772461,967.805664 1833.894775,964.520142 1830.186523,963.369080   C1828.470093,962.836365 1824.658813,964.302612 1824.157837,965.705444   C1823.385498,967.868164 1823.800781,971.458313 1825.232544,973.174194   C1827.489380,975.878601 1830.621704,974.933228 1833.225952,971.490906  M1751.775391,974.169006   C1752.732422,973.298279 1754.532715,972.383911 1754.490234,971.565002   C1754.356934,968.989380 1754.129883,966.015442 1752.723999,964.077087   C1752.007812,963.089844 1747.668945,963.150085 1746.784912,964.227661   C1745.390137,965.927856 1744.609253,969.204163 1745.308716,971.204956   C1745.852173,972.759583 1749.050293,973.386230 1751.775391,974.169006  z"/>
<path fill="#92C84B" opacity="1.000000" stroke="none" d=" M2634.575684,119.559845   C2639.955322,119.641396 2644.947266,119.641396 2649.939209,119.641396   C2650.175049,120.007149 2650.410645,120.372902 2650.646484,120.738655   C2646.508789,124.824356 2642.492432,129.042221 2638.214844,132.975784   C2584.299561,182.554001 2523.411865,221.661423 2457.273193,252.727783   C2402.991943,278.224670 2346.434326,297.152069 2287.636719,308.998718   C2255.391357,315.495575 2223.009521,321.427582 2190.525635,326.586304   C2170.520508,329.763336 2150.250244,331.683838 2130.022461,332.941223   C2103.785889,334.572144 2077.474121,335.691254 2051.193359,335.722748   C2023.571411,335.755859 1996.020142,333.481598 1968.839966,328.031036   C1967.247192,327.711670 1965.685913,327.235901 1962.584351,326.442688   C1968.997681,317.706116 1974.400024,309.330261 1980.802124,301.804962   C2006.003906,272.181610 2037.839844,251.517715 2072.667236,235.096741   C2108.557617,218.174484 2146.373779,207.336533 2185.264893,200.032852   C2218.829346,193.729492 2252.677002,189.842178 2286.824463,188.872940   C2297.462891,188.570969 2308.117188,188.825912 2318.764160,188.825912   C2318.797607,188.240372 2318.831299,187.654846 2318.864990,187.069305   C2309.165039,185.756561 2299.501465,183.810471 2289.758301,183.250336   C2261.024414,181.598434 2232.247070,179.204422 2203.508545,179.468277   C2155.756592,179.906693 2108.620361,185.901459 2063.221680,201.878113   C2031.755981,212.951462 2002.757568,228.417023 1979.002197,252.144531   C1969.527710,261.607819 1961.859497,272.881958 1953.406372,283.361847   C1952.379028,284.635681 1951.585205,286.097931 1950.683228,287.472931   C1950.183472,287.458374 1949.683716,287.443848 1949.183960,287.429291   C1949.183960,281.667572 1948.933716,275.893127 1949.226807,270.146362   C1950.607056,243.077255 1954.795654,216.430511 1965.055176,191.264374   C1971.375122,175.761826 1979.649170,161.055908 1987.185059,145.667694   C1993.331665,137.587723 1999.044800,129.581696 2005.398438,122.120995   C2030.993530,92.065445 2063.258545,71.412880 2099.243652,56.022305   C2144.566650,36.637959 2191.854736,28.440521 2240.997559,31.181051   C2278.244141,33.258144 2314.333984,41.563438 2349.902588,52.419682   C2401.249268,68.091629 2452.461182,84.227852 2504.010742,99.202660   C2542.566406,110.402832 2582.010498,117.503113 2622.211914,119.676102   C2626.188721,119.891052 2630.195068,119.557358 2634.575684,119.559845  z"/>
<path fill="#FDFDFD" opacity="1.000000" stroke="none" d=" M1224.074707,394.956116   C1223.278564,381.024017 1222.500488,367.571808 1221.674683,353.296021   C1223.641479,353.296021 1225.216919,353.295990 1226.792358,353.296021   C1271.620728,353.296875 1316.454834,352.848267 1361.275879,353.424744   C1406.344116,354.004364 1448.209229,365.795746 1484.379150,393.618042   C1504.929810,409.425842 1520.390381,429.201416 1525.022095,455.665802   C1530.433838,486.586212 1522.897339,514.746338 1506.297729,540.859497   C1490.380859,565.898865 1468.107178,584.193054 1443.389893,599.842224   C1437.072754,603.841797 1430.560059,607.532532 1423.434204,611.784607   C1455.757324,650.095825 1487.939453,688.239868 1519.624390,725.794678   C1502.011719,725.520630 1483.812988,725.104919 1465.612549,725.026672   C1459.299927,724.999512 1452.924927,725.425476 1446.691040,726.379639   C1442.921631,726.956604 1441.025269,725.792236 1438.928589,722.904114   C1418.381592,694.601440 1397.694336,666.400574 1377.036743,638.178406   C1375.969360,636.720154 1374.808716,635.330139 1374.333496,634.725342   C1348.109863,642.056030 1322.537964,649.204529 1295.928589,656.643066   C1297.398926,678.962097 1298.935303,702.282593 1300.438232,725.095825   C1274.546631,725.095825 1248.508179,725.095825 1221.710083,725.095825   C1229.575317,615.772766 1230.272095,505.621307 1224.074707,394.956116  M1293.843262,518.499756   C1293.843262,555.613464 1293.843262,592.727173 1293.843262,630.861877   C1300.146240,628.905701 1304.895996,627.533997 1309.578613,625.961792   C1343.013672,614.736084 1375.212280,600.976929 1403.131836,578.861572   C1429.406250,558.049377 1449.006470,532.619141 1456.552368,499.209961   C1461.479858,477.393768 1461.016968,456.334717 1445.748047,438.223145   C1439.558350,430.881317 1432.972046,423.594543 1425.453857,417.701691   C1396.055176,394.658173 1362.119141,382.168610 1325.362671,377.278656   C1316.812622,376.141205 1307.982300,377.110626 1298.253296,377.110626   C1296.773560,424.309479 1295.312622,470.904633 1293.843262,518.499756  z"/>
<path fill="#91C64C" opacity="1.000000" stroke="none" d=" M1633.000000,846.033813   C1665.484985,846.440918 1697.471802,846.738892 1729.454468,847.279846   C1760.261841,847.800781 1791.065918,848.533081 1821.869751,849.246826   C1847.841919,849.848633 1873.814087,850.473083 1899.781860,851.239929   C1930.572021,852.149170 1961.359131,853.172668 1992.144409,854.238159   C2018.766113,855.159546 2045.386108,856.142639 2072.001953,857.219360   C2103.105225,858.477722 2134.206055,859.801758 2165.302490,861.219604   C2192.404297,862.455200 2219.502441,863.783264 2246.594727,865.211548   C2276.341309,866.779724 2306.084961,868.419739 2335.820068,870.193115   C2367.543945,872.085205 2399.263184,874.064880 2430.971436,876.199585   C2463.670654,878.401062 2496.356934,880.801514 2529.043213,883.191284   C2537.313965,883.796082 2545.563477,884.691711 2553.811035,884.997375   C2537.027100,884.997375 2520.241699,885.138855 2503.459473,884.966370   C2473.307373,884.656494 2443.156250,884.199280 2413.006104,883.728760   C2373.533691,883.112793 2334.062500,882.411560 2294.590576,881.770020   C2252.118896,881.079712 2209.646973,880.410706 2167.175049,879.742859   C2145.855713,879.407593 2124.536377,879.079834 2103.216553,878.776794   C2077.564209,878.412109 2051.911621,878.064087 2026.258789,877.733459   C2001.772461,877.417908 1977.286011,877.109070 1952.799194,876.841797   C1916.647705,876.447266 1880.495728,876.077881 1844.343750,875.724792   C1811.857910,875.407532 1779.372070,874.910522 1746.885864,874.864929   C1546.417603,874.583252 1345.949463,874.340393 1145.481201,874.247681   C1100.996094,874.227051 1056.510376,874.821594 1012.025696,875.204468   C981.205811,875.469727 950.387085,875.855286 919.567810,876.191650   C889.415283,876.520630 859.262512,876.829956 829.110413,877.195068   C804.457153,877.493591 779.804626,877.851562 755.152039,878.201721   C732.998962,878.516418 710.846069,878.840881 688.693542,879.188782   C646.888306,879.845154 605.083130,880.511902 563.278320,881.192322   C523.305969,881.842896 483.334106,882.518311 443.362000,883.179199   C402.723663,883.851074 362.085571,884.540894 321.446594,885.169067   C313.132446,885.297607 304.814606,885.187744 298.450439,885.187744   C309.476135,884.273804 322.475555,883.096985 335.490997,882.137878   C363.031616,880.108398 390.575531,878.117798 418.127869,876.256287   C436.390717,875.022461 454.671661,874.058960 472.942505,872.941345   C503.666412,871.062012 534.386475,869.118042 565.112732,867.279175   C578.735901,866.463928 592.367432,865.771606 606.000549,865.140991   C637.761047,863.671875 669.523987,862.254822 701.287598,860.853516   C724.403076,859.833740 747.518799,858.814087 770.638672,857.900879   C798.087524,856.816711 825.539307,855.803894 852.992676,854.838928   C882.444580,853.803589 911.897339,852.781616 941.354065,851.899109   C967.821411,851.106262 994.293945,850.480835 1020.765503,849.836060   C1048.236816,849.166992 1075.708374,848.494751 1103.182373,847.951843   C1127.165405,847.477905 1151.151611,847.146790 1175.137207,846.816833   C1200.622803,846.466309 1226.109009,845.988464 1251.595947,845.918884   C1358.906738,845.626038 1466.218018,845.420776 1573.529053,845.295715   C1593.185791,845.272827 1612.843018,845.772461 1633.000000,846.033813  z"/>
<path fill="#FDFDFD" opacity="1.000000" stroke="none" d=" M598.488892,507.504333   C584.559082,500.123505 572.044983,491.504456 560.929626,480.704437   C544.394165,464.638031 539.331482,445.431732 543.457275,423.202789   C549.096069,392.822144 567.819214,372.432800 593.774658,357.888672   C611.206421,348.120850 630.114136,342.789429 650.221985,343.806213   C681.148743,345.369995 712.045105,347.540375 742.951660,349.496521   C749.099976,349.885681 755.242371,350.403595 761.372620,351.012482   C762.748596,351.149200 764.552490,351.512238 765.330139,352.455048   C776.089661,365.500092 786.104553,378.976410 788.555725,396.426758   C790.358215,409.259155 784.387695,418.978363 772.539856,422.003174   C771.223450,422.339264 768.940735,421.680145 768.093384,420.661407   C736.949829,383.220062 696.023315,367.834747 648.483398,368.189789   C625.284546,368.363068 594.236084,390.213440 590.496277,415.289276   C588.830566,426.458038 591.693665,435.234161 600.382874,442.320709   C617.899414,456.606445 638.428711,464.665405 659.763000,470.942780   C679.682861,476.803864 700.069031,481.282043 719.611084,488.179169   C750.762390,499.173737 777.999573,516.647278 801.111328,540.696167   C848.607849,590.118835 833.429565,659.528442 785.640930,694.181519   C761.538147,711.659058 734.307312,721.299194 705.461365,726.910400   C675.055847,732.825012 644.357239,734.652161 613.472961,731.907959   C592.845520,730.075073 573.423218,723.880371 554.945435,714.649109   C550.334534,712.345703 546.016052,709.346436 541.240906,707.500793   C516.922119,698.100830 510.070007,676.560242 504.504578,654.438293   C501.902405,644.095093 505.801697,636.386353 513.442505,632.034180   C516.281433,630.416992 518.187195,630.588501 520.803223,632.885498   C539.324585,649.147949 557.909302,665.344910 576.767944,681.213135   C583.111877,686.551025 590.293030,690.898132 597.121094,695.655701   C616.585205,709.217651 637.662720,714.416992 661.441528,710.203857   C690.349548,705.081848 716.598816,695.050171 737.557983,673.796692   C754.624939,656.490112 763.808899,635.667847 764.835938,611.231812   C765.409546,597.583496 760.480835,586.206665 751.751099,576.156067   C736.891357,559.048035 717.720703,548.411499 696.740112,541.203308   C679.792053,535.380493 662.114380,531.690430 645.135864,525.944641   C629.431335,520.630005 614.225403,513.842163 598.488892,507.504333  z"/>
<path fill="#FDFDFD" opacity="1.000000" stroke="none" d=" M861.839844,679.757202   C906.098389,592.287537 947.950684,504.087708 987.537964,414.817535   C988.656250,412.295685 988.758484,408.556305 987.767334,405.989960   C981.184143,388.944916 974.173157,372.065125 966.990417,354.365631   C993.570007,357.650726 1019.701416,358.061646 1046.239136,354.729553   C1081.489502,481.645782 1122.764648,606.178955 1175.569458,726.044434   C1149.246338,726.044434 1123.156982,726.044434 1096.339111,726.044434   C1092.737427,713.609802 1088.899902,700.224121 1084.978638,686.862976   C1081.419922,674.737549 1077.648926,662.672607 1074.246094,650.504211   C1073.400146,647.478882 1072.046875,646.658997 1069.054932,646.664062   C1019.724121,646.747375 970.393005,646.765808 921.062378,646.631409   C917.636169,646.622070 916.539185,648.252075 915.390503,650.862000   C904.203125,676.280212 892.936279,701.663330 881.753052,726.918823   C867.217102,726.918823 852.672913,726.918823 837.788513,726.918823   C845.585876,711.642395 853.636292,695.870300 861.839844,679.757202  M1042.500000,616.199219   C1049.290771,616.199219 1056.081543,616.199219 1064.310059,616.199219   C1045.514526,562.532837 1027.035889,509.770813 1008.557190,457.008820   C1007.966614,457.027679 1007.376038,457.046539 1006.785400,457.065399   C981.642517,509.813660 956.499634,562.561951 930.932983,616.199219   C968.623047,616.199219 1005.061523,616.199219 1042.500000,616.199219  z"/>
<path fill="#FDFDFD" opacity="1.000000" stroke="none" d=" M2145.907227,680.074524   C2152.475586,695.725891 2158.919189,711.015747 2165.524170,726.688660   C2151.987793,726.125732 2138.945557,725.158997 2125.903320,725.160645   C2112.937988,725.162292 2099.972900,726.137268 2086.425537,726.709961   C2083.009521,714.939453 2079.532715,702.847900 2075.988037,690.776367   C2072.053223,677.375977 2067.968262,664.018738 2064.155518,650.583984   C2063.333008,647.686707 2062.135254,646.647400 2059.036865,646.653687   C2009.709351,646.753357 1960.381348,646.763000 1911.053955,646.636230   C1907.704346,646.627625 1906.466919,648.088806 1905.295654,650.767090   C1894.634766,675.145020 1883.876587,699.480286 1873.146851,723.828064   C1872.619995,725.023743 1872.093994,726.219788 1871.780518,726.931641   C1856.770874,726.931641 1842.221802,726.931641 1827.623657,726.931641   C1828.146973,725.894165 1828.945557,724.278992 1829.771484,722.677979   C1881.865356,621.694824 1931.087646,519.334229 1977.288940,415.519531   C1978.917358,411.860596 1979.095581,408.842438 1977.553345,405.165802   C1971.186401,389.986908 1965.070679,374.702576 1958.873779,359.452515   C1958.260254,357.943146 1957.721802,356.403290 1957.184814,354.973846   C1970.315796,355.662811 1983.241821,356.774963 1996.176514,356.887817   C2007.312500,356.984955 2018.504639,356.380920 2029.579712,355.212708   C2034.838745,354.657928 2036.658447,355.974396 2038.031372,360.955566   C2060.884033,443.866913 2086.765869,525.817871 2116.976562,606.359009   C2126.201416,630.951843 2136.159912,655.269409 2145.907227,680.074524  M1985.335693,480.899689   C1963.974365,525.693848 1942.613159,570.488037 1921.016968,615.774841   C1965.680786,615.774841 2009.278076,615.774841 2054.057617,615.774841   C2035.351074,562.394714 2016.906738,509.763153 1998.462402,457.131561   C1997.905640,457.236786 1997.348877,457.342010 1996.792114,457.447235   C1993.101929,465.050232 1989.411743,472.653259 1985.335693,480.899689  z"/>
<path fill="#FDFDFD" opacity="1.000000" stroke="none" d=" M1746.952148,434.009216   C1747.831909,497.318512 1748.498535,560.134216 1749.701538,622.939636   C1750.336426,656.090637 1751.908691,689.223816 1753.047119,722.365356   C1753.103027,723.992554 1753.054443,725.623230 1753.054443,726.576782   C1726.603760,726.576782 1700.565552,726.576782 1674.026978,726.576782   C1682.376709,610.411987 1682.379761,493.460754 1675.158569,374.982361   C1658.542847,377.563599 1642.366089,378.860840 1626.855591,382.789062   C1606.751709,387.880554 1587.184326,395.086517 1567.369019,401.328278   C1565.167603,402.021698 1562.878540,402.612671 1560.590576,402.825378   C1549.863159,403.822906 1543.205200,397.677795 1543.029663,386.784180   C1542.731079,368.245331 1557.452271,353.181396 1576.018555,353.343658   C1619.348389,353.722321 1662.676880,354.597961 1706.005981,354.601746   C1751.667969,354.605713 1797.330200,353.861328 1842.991699,353.381195   C1862.992065,353.170898 1873.346924,361.122894 1877.831543,380.893646   C1878.811035,385.211578 1879.197754,389.855042 1878.809448,394.256104   C1877.668335,407.189667 1869.505005,411.918274 1857.484741,407.061920   C1842.994385,401.207611 1828.635010,394.997589 1813.977783,389.595734   C1794.613281,382.459015 1774.384277,379.412109 1753.811646,378.545135   C1753.174927,378.518311 1752.529053,378.711426 1750.564087,378.988800   C1749.369507,397.070007 1748.165771,415.290649 1746.952148,434.009216  z"/>
<path fill="#FDFDFD" opacity="1.000000" stroke="none" d=" M2329.080322,355.109924   C2334.836182,354.616974 2340.127930,354.152435 2346.043457,353.633179   C2345.583496,361.656464 2345.172607,369.416382 2344.688477,377.171722   C2339.766113,456.021179 2337.119629,534.934814 2339.822510,613.921082   C2341.046631,649.694519 2343.919922,685.408813 2345.649902,721.169006   C2346.349121,735.619995 2341.091309,748.205383 2331.174316,758.819397   C2316.794434,774.210083 2299.300781,785.241882 2279.968506,792.796204   C2254.291748,802.829712 2228.161377,811.742859 2202.002686,820.467468   C2197.182617,822.075012 2191.092285,821.383179 2185.961426,820.171936   C2179.343018,818.609558 2175.236572,813.574158 2174.479736,806.560181   C2173.780273,800.077148 2176.834717,795.133301 2182.191162,791.943787   C2192.609863,785.739746 2203.180420,779.781799 2213.809814,773.943115   C2220.649902,770.185669 2227.872803,767.111206 2234.635986,763.228882   C2256.081299,750.918884 2266.349365,731.824829 2267.995117,707.531738   C2273.089600,632.344299 2274.606689,557.065369 2272.705566,481.753754   C2271.697021,441.802185 2269.105225,401.890747 2267.254883,361.959961   C2267.133545,359.341034 2267.239258,356.711639 2267.239258,355.138397   C2287.815430,355.138397 2308.216064,355.138397 2329.080322,355.109924  z"/>
<path fill="#F9F9FB" opacity="1.000000" stroke="none" d=" M1467.413574,969.560364   C1477.614868,977.921509 1475.613403,991.720520 1466.916260,1000.124573   C1463.717529,1003.215393 1459.929932,1005.696716 1456.125000,1008.680298   C1461.515747,1015.143738 1466.993408,1021.711304 1473.032104,1028.951416   C1468.524414,1028.951416 1464.773315,1029.078003 1461.040405,1028.874756   C1459.912720,1028.813232 1458.614136,1028.057739 1457.785278,1027.228760   C1456.506592,1025.950195 1455.557983,1024.339478 1454.481567,1022.860718   C1446.520508,1011.924316 1446.521484,1011.923645 1433.248291,1016.589966   C1433.244141,1020.526123 1433.244141,1024.462158 1433.244141,1028.647949   C1428.869995,1028.647949 1424.447998,1028.647949 1419.958252,1028.647949   C1419.958252,1006.615173 1419.958252,984.591187 1419.958252,961.818298   C1435.747559,962.951599 1452.610840,957.950012 1467.413574,969.560364  M1440.338135,1008.971680   C1448.162354,1005.716553 1455.256104,1001.476318 1459.460327,993.749207   C1461.992188,989.095459 1463.458008,984.099487 1460.917969,978.973145   C1457.011597,971.089478 1442.459473,964.649963 1432.890503,966.798279   C1432.890503,981.466858 1432.890503,996.281494 1432.890503,1011.582397   C1435.557617,1010.646057 1437.580322,1009.935852 1440.338135,1008.971680  z"/>
<path fill="#F8F9FB" opacity="1.000000" stroke="none" d=" M1696.042236,1006.908813   C1689.592285,1022.632507 1676.968750,1031.436401 1662.334961,1030.739868   C1648.030151,1030.058960 1635.619751,1020.522949 1631.106201,1006.743896   C1626.358765,992.251404 1631.411621,976.167725 1643.568604,967.074890   C1655.241211,958.344360 1670.805542,958.063965 1682.710938,966.369751   C1695.510376,975.299255 1700.715820,990.870850 1696.042236,1006.908813  M1657.974365,966.051697   C1639.503418,974.484985 1637.262695,1009.462463 1654.191040,1022.439148   C1661.106079,1027.739868 1669.261475,1027.014648 1675.870361,1020.709106   C1688.552856,1008.608582 1688.453247,981.918457 1675.673096,969.867798   C1670.808594,965.281067 1665.237549,963.597046 1657.974365,966.051697  z"/>
<path fill="#F9F9FB" opacity="1.000000" stroke="none" d=" M1306.650635,971.532349   C1306.687134,976.959839 1306.687134,981.940796 1306.687134,987.786438   C1308.877441,986.953308 1310.465576,986.298340 1312.087891,985.743591   C1314.752808,984.832458 1317.382080,983.594055 1320.128906,983.189697   C1327.082275,982.166199 1331.767456,986.226807 1331.948364,993.229431   C1332.103149,999.219666 1332.052490,1005.215515 1332.069580,1011.208984   C1332.086060,1017.025757 1332.073120,1022.842712 1332.073120,1029.003662   C1328.572266,1029.003662 1324.545166,1029.003662 1320.091187,1029.003662   C1320.586670,1023.043030 1321.237183,1017.464966 1321.461426,1011.869873   C1321.673828,1006.566467 1321.750244,1001.218994 1321.305054,995.939880   C1320.936646,991.569946 1317.551514,989.178589 1313.258179,989.801636   C1309.329468,990.371643 1306.132202,991.379456 1306.359497,996.840393   C1306.799805,1007.423340 1306.488159,1018.037537 1306.488159,1028.838501   C1302.767578,1028.838501 1298.857788,1028.838501 1295.046265,1028.838501   C1295.046265,1006.591736 1295.046265,984.555969 1295.046265,962.510315   C1303.998657,961.942566 1305.284058,962.882263 1306.650635,971.532349  z"/>
<path fill="#F6F7FA" opacity="1.000000" stroke="none" d=" M1782.516479,983.656799   C1784.589111,983.636841 1786.335449,983.346069 1787.887939,983.768127   C1793.245361,985.224304 1798.306519,985.379028 1803.641968,983.092590   C1805.642090,982.235474 1808.866821,983.181824 1811.065674,984.259705   C1812.277588,984.853821 1812.519531,987.426697 1813.198730,989.107666   C1811.468018,989.729614 1809.770264,990.693054 1807.996094,990.864563   C1806.597168,990.999878 1805.103882,990.160156 1803.150391,989.612793   C1807.696777,1000.173157 1806.933960,1005.126892 1800.289429,1010.190186   C1794.011963,1014.973877 1786.644043,1015.386047 1779.045288,1014.753174   C1778.946289,1015.287903 1778.847168,1015.822571 1778.748047,1016.357239   C1781.361572,1017.206787 1783.931763,1018.241516 1786.597900,1018.866333   C1791.766479,1020.077576 1796.982544,1021.091064 1802.191406,1022.123413   C1805.964111,1022.871033 1807.219238,1025.010376 1805.935303,1028.609009   C1803.156250,1036.398560 1797.813965,1041.497437 1789.722046,1043.333496   C1781.738159,1045.145142 1774.884521,1042.576050 1769.337402,1036.820068   C1765.299683,1032.630371 1766.119873,1028.443481 1771.739624,1022.327087   C1770.255127,1021.568176 1768.829834,1020.839539 1766.784546,1019.793945   C1769.047241,1017.375366 1771.113037,1015.167358 1773.181885,1012.956116   C1767.428589,1008.583374 1761.949707,1003.976807 1764.402710,996.054016   C1766.992310,987.689880 1774.031250,984.728149 1782.516479,983.656799  M1777.478271,989.937317   C1776.459229,991.628906 1775.144897,993.211670 1774.474243,995.031616   C1772.099976,1001.474854 1774.696045,1008.512085 1780.272583,1011.327881   C1785.120972,1013.776306 1791.093506,1012.234070 1794.425415,1007.673584   C1798.316284,1002.348206 1797.599365,994.831116 1792.733032,989.928040   C1788.459229,985.622009 1783.607056,985.441772 1777.478271,989.937317  M1777.151733,1037.389160   C1787.064941,1042.182129 1796.038330,1038.404419 1797.825195,1028.186157   C1793.100952,1026.927856 1788.297974,1025.756470 1783.562622,1024.356323   C1779.132446,1023.046387 1776.536133,1025.528931 1774.568848,1028.736694   C1772.655762,1031.855957 1773.401855,1034.786743 1777.151733,1037.389160  z"/>
<path fill="#FAFAFC" opacity="1.000000" stroke="none" d=" M1007.447998,966.563843   C1004.451782,965.688904 1003.856262,967.075073 1003.823975,969.292969   C1003.693176,978.267761 1003.436035,987.241272 1003.367676,996.216248   C1003.285583,1006.990234 1003.348206,1017.765259 1003.348206,1028.782471   C999.590698,1028.782471 995.176636,1028.782471 990.663818,1028.782471   C990.663818,1008.031982 990.663818,987.326050 990.663818,965.184814   C984.506226,966.734680 979.189087,968.193481 973.809631,969.366577   C971.717224,969.822937 969.471924,969.760803 967.333862,969.551086   C967.113647,969.529480 966.520752,966.249451 967.196289,965.568726   C968.778503,963.974670 971.008118,962.034668 973.007019,961.999146   C988.976196,961.715149 1004.955261,961.711426 1020.923706,962.015747   C1022.830994,962.052124 1025.148438,964.122437 1026.409302,965.873718   C1027.191895,966.960693 1026.780640,969.466064 1026.020386,970.848022   C1025.684937,971.457764 1023.074951,971.145569 1021.631531,970.755615   C1017.006409,969.506409 1012.443970,968.025452 1007.447998,966.563843  z"/>
<path fill="#F8F8FB" opacity="1.000000" stroke="none" d=" M1866.367676,984.197754   C1868.542114,983.728210 1870.327393,983.112122 1872.120972,983.087341   C1878.726318,982.995850 1882.562012,986.379333 1882.689819,992.992249   C1882.917725,1004.799805 1882.754150,1016.614868 1882.754150,1028.752197   C1879.237915,1028.752197 1875.348389,1028.752197 1870.806885,1028.752197   C1871.026001,1025.559570 1871.343994,1022.318726 1871.452148,1019.070923   C1871.701172,1011.589539 1872.061157,1004.101929 1871.960327,996.622437   C1871.895996,991.851379 1868.783447,989.500183 1864.014404,989.821167   C1858.450928,990.195618 1855.779663,992.571472 1855.770020,997.252075   C1855.748413,1007.693909 1855.763062,1018.135681 1855.763062,1028.912598   C1851.685913,1028.912598 1847.733032,1028.912598 1843.587769,1028.912598   C1843.587769,1013.876465 1843.587769,998.516296 1843.587769,983.101562   C1850.912109,981.585449 1852.487671,982.221619 1855.981567,988.523621   C1859.286499,987.135315 1862.634521,985.729004 1866.367676,984.197754  z"/>
<path fill="#FAFAFC" opacity="1.000000" stroke="none" d=" M1250.038086,986.014771   C1250.032471,979.218140 1250.032471,972.918701 1250.032471,965.041016   C1243.348755,966.736694 1238.045288,968.208435 1232.676392,969.380798   C1230.592041,969.835999 1228.345581,969.745667 1226.215576,969.513428   C1225.985718,969.488342 1225.414917,966.228333 1226.088379,965.554871   C1227.674438,963.968872 1229.899292,962.038147 1231.896851,962.002747   C1247.871948,961.719482 1263.854492,961.897339 1279.834106,961.804993   C1283.396606,961.784424 1285.025391,963.808533 1285.707153,966.746643   C1286.005615,968.032471 1285.765259,970.015564 1284.934814,970.816711   C1284.222900,971.503601 1282.225952,971.276978 1280.961670,970.901245   C1275.290283,969.216125 1269.677612,967.333435 1263.252808,965.267761   C1260.373901,987.114624 1263.524414,1007.812500 1262.991699,1028.735229   C1258.448486,1028.735229 1254.043579,1028.735229 1250.043579,1028.735229   C1250.043579,1014.659912 1250.043579,1000.585876 1250.038086,986.014771  z"/>
<path fill="#F7F7FA" opacity="1.000000" stroke="none" d=" M1024.286133,1017.353149   C1023.982361,1004.239197 1029.242554,998.277832 1042.037231,997.119263   C1045.815430,996.777161 1049.650879,997.066528 1053.523193,997.066528   C1055.176392,991.938538 1052.891846,988.880920 1048.465698,988.981934   C1043.544189,989.094238 1038.679321,990.946045 1033.749023,991.807251   C1031.954956,992.120544 1030.043579,991.761536 1028.185669,991.709167   C1029.175415,990.250183 1029.837280,988.256714 1031.206665,987.416565   C1042.347290,980.581360 1053.433594,982.314880 1064.264648,988.276978   C1065.223999,988.805054 1065.955933,990.627930 1065.968628,991.857910   C1066.093750,1003.979370 1066.044189,1016.102661 1066.044189,1028.861084   C1062.160522,1028.002686 1057.194458,1030.527954 1052.240723,1026.291992   C1046.045288,1028.131348 1038.702393,1031.886963 1031.668579,1027.303955   C1028.503784,1025.242065 1026.754150,1021.008301 1024.286133,1017.353149  M1054.103394,1003.619690   C1053.544067,1002.624756 1053.166748,1000.944397 1052.397461,1000.740051   C1043.975342,998.502991 1035.384888,1005.115540 1035.123047,1013.853027   C1034.951904,1019.566345 1038.532837,1023.782715 1043.724243,1023.980408   C1050.504028,1024.238525 1054.316406,1020.846985 1054.285034,1014.532349   C1054.268677,1011.221497 1054.172974,1007.911072 1054.103394,1003.619690  z"/>
<path fill="#F8F8FB" opacity="1.000000" stroke="none" d=" M1560.999390,1028.711426   C1558.153198,1028.118896 1554.698730,1030.496216 1553.781128,1026.362305   C1549.346924,1027.324585 1545.045898,1028.703979 1540.654419,1029.111328   C1533.100342,1029.812500 1526.843018,1025.261719 1525.197266,1018.548584   C1523.210938,1010.446228 1526.673096,1001.766968 1533.984619,999.501343   C1540.519531,997.476318 1547.545410,997.035645 1554.773193,995.825867   C1555.728027,992.338135 1553.861328,990.067566 1549.860474,988.910706   C1544.079102,987.239136 1539.164673,989.387756 1534.148438,991.862183   C1532.758301,992.547974 1530.718384,991.916809 1528.976562,991.889771   C1529.850342,990.412720 1530.362061,988.352844 1531.654663,987.549805   C1542.941650,980.536865 1554.171143,982.317810 1565.163818,988.394348   C1566.031616,988.874084 1566.747314,990.456726 1566.757202,991.533813   C1566.867920,1003.809021 1566.827637,1016.085632 1566.827637,1028.739624   C1565.296753,1028.739624 1563.374023,1028.739624 1560.999390,1028.711426  M1554.960083,1007.562256   C1554.960083,1005.334534 1554.960083,1003.106873 1554.960083,999.467224   C1549.420410,1001.039062 1544.774536,1001.686829 1540.786865,1003.662659   C1536.070923,1005.999207 1534.333496,1013.748962 1536.670532,1018.718323   C1538.717896,1023.071838 1542.310303,1024.618530 1546.928223,1023.801697   C1553.834351,1022.580017 1555.057617,1020.895203 1555.016479,1013.023438   C1555.008667,1011.529114 1554.995117,1010.034851 1554.960083,1007.562256  z"/>
<path fill="#F7F7FA" opacity="1.000000" stroke="none" d=" M1103.894531,1028.072998   C1093.037964,1032.564209 1082.340576,1030.292969 1076.413330,1022.425049   C1074.584717,1019.997864 1073.320923,1017.553894 1076.586914,1015.496277   C1080.265381,1017.802002 1083.517944,1020.672119 1087.309082,1021.975342   C1090.868530,1023.199036 1095.155518,1023.538086 1098.818970,1022.786743   C1101.186157,1022.301270 1104.322021,1019.386230 1104.723145,1017.134094   C1105.174194,1014.602539 1103.527954,1011.079651 1101.683594,1008.949036   C1100.163452,1007.192688 1097.085205,1006.618591 1094.586304,1005.915344   C1090.921875,1004.884094 1087.069946,1004.476807 1083.461548,1003.301025   C1079.700562,1002.075562 1076.477051,999.817383 1076.109741,995.381531   C1075.724854,990.733093 1078.195801,987.465759 1081.911255,985.050842   C1089.182861,980.324646 1099.826416,981.246033 1108.268188,986.855408   C1111.837158,989.226868 1112.512573,991.589355 1109.571411,995.480774   C1108.151733,994.307434 1106.820557,993.219910 1105.503052,992.115967   C1100.705200,988.096130 1095.203979,986.603333 1089.196411,988.316833   C1087.582031,988.777283 1086.405640,990.773560 1085.028320,992.064941   C1086.346436,993.098267 1087.518311,994.621948 1089.011841,995.067749   C1092.661499,996.157410 1096.522705,996.531555 1100.185547,997.586792   C1107.202026,999.608337 1113.590820,1002.849792 1114.439575,1011.063660   C1115.251709,1018.921692 1110.792480,1024.206177 1103.894531,1028.072998  z"/>
<path fill="#F7F7FA" opacity="1.000000" stroke="none" d=" M1498.692383,1010.706299   C1495.802979,1012.697144 1493.196411,1014.468079 1490.595215,1016.235413   C1495.268188,1025.777588 1501.789917,1025.714600 1514.218018,1015.870850   C1517.596802,1017.950378 1516.497192,1020.368408 1514.683472,1022.792603   C1509.475708,1029.753052 1498.298462,1032.293213 1490.337402,1028.359009   C1481.507202,1023.995422 1476.413574,1013.052917 1478.117920,1002.109436   C1479.722046,991.810974 1487.357666,983.864868 1497.324585,982.590820   C1500.045898,982.242920 1503.041748,982.463318 1505.667480,983.244080   C1513.339111,985.525330 1515.872314,993.024841 1510.800903,999.130920   C1507.331421,1003.308472 1502.949341,1006.727966 1498.692383,1010.706299  M1486.997803,999.098450   C1486.997803,1002.971802 1486.997803,1006.845154 1486.997803,1010.718506   C1487.689209,1011.026184 1488.380615,1011.333862 1489.072021,1011.641541   C1495.389404,1005.561035 1501.706909,999.480469 1507.929810,993.490906   C1501.987671,985.833984 1495.987549,985.467163 1490.633057,991.767700   C1489.075317,993.600647 1488.274048,996.076477 1486.997803,999.098450  z"/>
<path fill="#F7F8FA" opacity="1.000000" stroke="none" d=" M1352.242676,985.083374   C1358.362915,981.935425 1364.363037,981.080627 1370.295898,984.112488   C1376.836548,987.454956 1378.390259,993.457092 1373.465576,998.933960   C1368.620239,1004.322571 1362.719727,1008.769775 1357.214844,1013.552612   C1355.978882,1014.626282 1354.463257,1015.378174 1353.090576,1016.269043   C1358.218628,1025.664429 1363.278687,1025.581665 1377.024414,1015.930664   C1380.340210,1018.241821 1378.935913,1020.654968 1377.121460,1023.015381   C1369.827515,1032.503540 1354.494995,1032.610352 1346.457886,1023.248962   C1336.554077,1011.713562 1339.038818,994.382751 1352.242676,985.083374  M1351.854492,1010.573608   C1359.105103,1005.793457 1365.230591,999.892822 1370.071411,992.759216   C1364.810913,986.385620 1360.694580,985.679504 1355.033936,989.955444   C1349.130737,994.414612 1347.344116,1003.962402 1351.854492,1010.573608  z"/>
<path fill="#F7F8FA" opacity="1.000000" stroke="none" d=" M1171.351074,982.544312   C1182.835938,985.219666 1185.411377,992.632324 1177.948486,1001.061218   C1175.208130,1004.156311 1172.014038,1006.893250 1168.796143,1009.509705   C1165.715332,1012.014648 1162.334961,1014.151245 1159.090454,1016.446655   C1164.569458,1025.645264 1168.847656,1025.565796 1183.122192,1015.981506   C1186.180176,1018.096619 1185.069092,1020.387512 1183.395996,1022.705566   C1178.148926,1029.975342 1166.195068,1032.453613 1158.162598,1027.939575   C1148.927979,1022.750000 1144.255249,1010.235901 1147.437866,999.217529   C1150.606934,988.246460 1159.493896,981.913513 1171.351074,982.544312  M1168.310913,987.231995   C1157.100830,989.364441 1152.432373,998.851624 1157.262695,1012.039185   C1164.011108,1005.589233 1170.346069,999.534363 1177.497192,992.699463   C1173.914307,990.431396 1171.482666,988.892151 1168.310913,987.231995  z"/>
<path fill="#F6F7FA" opacity="1.000000" stroke="none" d=" M1123.436523,1025.986084   C1123.486206,1011.930359 1123.486206,998.312073 1123.486206,984.250610   C1121.715942,984.250610 1119.520996,984.250610 1117.326050,984.250610   C1117.056641,983.856079 1116.787231,983.461609 1116.517944,983.067078   C1125.667725,978.968567 1128.293579,970.842468 1130.019287,962.184937   C1132.354492,962.184937 1134.307495,962.184937 1136.645996,962.184937   C1136.414185,967.375488 1136.186646,972.467712 1135.950317,977.759338   C1138.348999,978.361023 1140.633301,978.697937 1142.698120,979.560303   C1143.608276,979.940491 1144.072632,981.388123 1144.739258,982.351074   C1143.672607,982.875183 1142.326904,984.105286 1141.583496,983.811523   C1135.683716,981.479858 1135.680054,985.069092 1135.704102,989.186218   C1135.780273,1002.276672 1135.732300,1015.367920 1135.732300,1028.828247   C1132.734009,1028.828247 1129.103394,1028.962158 1125.498291,1028.719116   C1124.746460,1028.668457 1124.088257,1027.225098 1123.436523,1025.986084  z"/>
<path fill="#FBFBFC" opacity="1.000000" stroke="none" d=" M1587.938965,967.401550   C1588.126343,976.954346 1588.297974,986.101990 1588.346558,995.250366   C1588.405396,1006.352661 1588.360596,1017.455566 1588.360596,1028.785889   C1584.548340,1028.785889 1580.472900,1028.785889 1576.424683,1028.785889   C1576.424683,1006.610229 1576.424683,984.577576 1576.424683,962.115234   C1580.698608,962.632141 1585.851562,960.743042 1587.938965,967.401550  z"/>
<path fill="#F8F9FB" opacity="1.000000" stroke="none" d=" M1720.312744,991.218994   C1719.419067,993.107849 1718.523804,994.777771 1718.522461,996.448364   C1718.514648,1006.257202 1718.716064,1016.066162 1718.844360,1025.875122   C1718.854858,1026.676147 1718.845825,1027.477539 1718.845825,1028.627197   C1714.523804,1028.627197 1710.460571,1028.627197 1706.459473,1028.627197   C1706.459473,1013.365967 1706.459473,998.132690 1706.459473,982.811462   C1712.847778,981.133789 1714.857666,981.795166 1718.367798,987.137756   C1722.449585,984.305298 1726.674561,979.902466 1731.734009,984.781677   C1733.500488,986.485046 1735.134766,989.985657 1734.581177,992.067871   C1733.610229,995.719238 1729.979736,997.273193 1726.032715,997.589478   C1724.483154,994.897949 1727.155151,989.030151 1720.312744,991.218994  z"/>
<path fill="#F7F7FA" opacity="1.000000" stroke="none" d=" M1755.149414,988.110474   C1755.216675,1001.799622 1755.216675,1015.073975 1755.216675,1028.732910   C1751.743164,1028.732910 1747.676514,1028.732910 1743.578247,1028.732910   C1743.578247,1013.541260 1743.578247,998.188293 1743.578247,982.830872   C1751.764526,981.781616 1752.906372,982.262878 1755.149414,988.110474  z"/>
<path fill="#FAFAFC" opacity="1.000000" stroke="none" d=" M1834.472412,1025.205688   C1833.852173,1026.745483 1833.260864,1028.715820 1832.476196,1028.796143   C1829.056030,1029.145996 1825.579956,1028.946411 1822.279785,1028.946411   C1822.279785,1013.465454 1822.279785,998.143250 1822.279785,982.835876   C1832.056641,981.673523 1833.976196,983.281189 1834.110107,992.894836   C1834.258057,1003.518005 1834.315430,1014.142456 1834.472412,1025.205688  z"/>
<path fill="#F3F4F8" opacity="1.000000" stroke="none" d=" M1833.054199,971.829468   C1830.621704,974.933228 1827.489380,975.878601 1825.232544,973.174194   C1823.800781,971.458313 1823.385498,967.868164 1824.157837,965.705444   C1824.658813,964.302612 1828.470093,962.836365 1830.186523,963.369080   C1833.894775,964.520142 1834.772461,967.805664 1833.054199,971.829468  z"/>
<path fill="#F7F8FA" opacity="1.000000" stroke="none" d=" M1751.421875,974.297180   C1749.050293,973.386230 1745.852173,972.759583 1745.308716,971.204956   C1744.609253,969.204163 1745.390137,965.927856 1746.784912,964.227661   C1747.668945,963.150085 1752.007812,963.089844 1752.723999,964.077087   C1754.129883,966.015442 1754.356934,968.989380 1754.490234,971.565002   C1754.532715,972.383911 1752.732422,973.298279 1751.421875,974.297180  z"/>
<path fill="#3E4493" opacity="1.000000" stroke="none" d=" M1293.847534,517.999756   C1295.312622,470.904633 1296.773560,424.309479 1298.253296,377.110626   C1307.982300,377.110626 1316.812622,376.141205 1325.362671,377.278656   C1362.119141,382.168610 1396.055176,394.658173 1425.453857,417.701691   C1432.972046,423.594543 1439.558350,430.881317 1445.748047,438.223145   C1461.016968,456.334717 1461.479858,477.393768 1456.552368,499.209961   C1449.006470,532.619141 1429.406250,558.049377 1403.131836,578.861572   C1375.212280,600.976929 1343.013672,614.736084 1309.578613,625.961792   C1304.895996,627.533997 1300.146240,628.905701 1293.843262,630.861877   C1293.843262,592.727173 1293.843262,555.613464 1293.847534,517.999756  z"/>
<path fill="#3F4593" opacity="1.000000" stroke="none" d=" M1042.000000,616.199219   C1005.061523,616.199219 968.623047,616.199219 930.932983,616.199219   C956.499634,562.561951 981.642517,509.813660 1006.785400,457.065399   C1007.376038,457.046539 1007.966614,457.027679 1008.557190,457.008820   C1027.035889,509.770813 1045.514526,562.532837 1064.310059,616.199219   C1056.081543,616.199219 1049.290771,616.199219 1042.000000,616.199219  z"/>
<path fill="#3F4593" opacity="1.000000" stroke="none" d=" M1985.528564,480.577972   C1989.411743,472.653259 1993.101929,465.050232 1996.792114,457.447235   C1997.348877,457.342010 1997.905640,457.236786 1998.462402,457.131561   C2016.906738,509.763153 2035.351074,562.394714 2054.057617,615.774841   C2009.278076,615.774841 1965.680786,615.774841 1921.016968,615.774841   C1942.613159,570.488037 1963.974365,525.693848 1985.528564,480.577972  z"/>
<path fill="#424895" opacity="1.000000" stroke="none" d=" M1439.970703,1009.098694   C1437.580322,1009.935852 1435.557617,1010.646057 1432.890503,1011.582397   C1432.890503,996.281494 1432.890503,981.466858 1432.890503,966.798279   C1442.459473,964.649963 1457.011597,971.089478 1460.917969,978.973145   C1463.458008,984.099487 1461.992188,989.095459 1459.460327,993.749207   C1455.256104,1001.476318 1448.162354,1005.716553 1439.970703,1009.098694  z"/>
<path fill="#404694" opacity="1.000000" stroke="none" d=" M1658.356689,965.936035   C1665.237549,963.597046 1670.808594,965.281067 1675.673096,969.867798   C1688.453247,981.918457 1688.552856,1008.608582 1675.870361,1020.709106   C1669.261475,1027.014648 1661.106079,1027.739868 1654.191040,1022.439148   C1637.262695,1009.462463 1639.503418,974.484985 1658.356689,965.936035  z"/>
<path fill="#424895" opacity="1.000000" stroke="none" d=" M1777.752686,989.659546   C1783.607056,985.441772 1788.459229,985.622009 1792.733032,989.928040   C1797.599365,994.831116 1798.316284,1002.348206 1794.425415,1007.673584   C1791.093506,1012.234070 1785.120972,1013.776306 1780.272583,1011.327881   C1774.696045,1008.512085 1772.099976,1001.474854 1774.474243,995.031616   C1775.144897,993.211670 1776.459229,991.628906 1777.752686,989.659546  z"/>
<path fill="#434996" opacity="1.000000" stroke="none" d=" M1776.822876,1037.171387   C1773.401855,1034.786743 1772.655762,1031.855957 1774.568848,1028.736694   C1776.536133,1025.528931 1779.132446,1023.046387 1783.562622,1024.356323   C1788.297974,1025.756470 1793.100952,1026.927856 1797.825195,1028.186157   C1796.038330,1038.404419 1787.064941,1042.182129 1776.822876,1037.171387  z"/>
<path fill="#414795" opacity="1.000000" stroke="none" d=" M1054.108154,1004.110107   C1054.172974,1007.911072 1054.268677,1011.221497 1054.285034,1014.532349   C1054.316406,1020.846985 1050.504028,1024.238525 1043.724243,1023.980408   C1038.532837,1023.782715 1034.951904,1019.566345 1035.123047,1013.853027   C1035.384888,1005.115540 1043.975342,998.502991 1052.397461,1000.740051   C1053.166748,1000.944397 1053.544067,1002.624756 1054.108154,1004.110107  z"/>
<path fill="#424895" opacity="1.000000" stroke="none" d=" M1554.972168,1008.051392   C1554.995117,1010.034851 1555.008667,1011.529114 1555.016479,1013.023438   C1555.057617,1020.895203 1553.834351,1022.580017 1546.928223,1023.801697   C1542.310303,1024.618530 1538.717896,1023.071838 1536.670532,1018.718323   C1534.333496,1013.748962 1536.070923,1005.999207 1540.786865,1003.662659   C1544.774536,1001.686829 1549.420410,1001.039062 1554.960083,999.467224   C1554.960083,1003.106873 1554.960083,1005.334534 1554.972168,1008.051392  z"/>
<path fill="#424895" opacity="1.000000" stroke="none" d=" M1487.061890,998.678040   C1488.274048,996.076477 1489.075317,993.600647 1490.633057,991.767700   C1495.987549,985.467163 1501.987671,985.833984 1507.929810,993.490906   C1501.706909,999.480469 1495.389404,1005.561035 1489.072021,1011.641541   C1488.380615,1011.333862 1487.689209,1011.026184 1486.997803,1010.718506   C1486.997803,1006.845154 1486.997803,1002.971802 1487.061890,998.678040  z"/>
<path fill="#454B97" opacity="1.000000" stroke="none" d=" M1351.494141,1010.686035   C1347.344116,1003.962402 1349.130737,994.414612 1355.033936,989.955444   C1360.694580,985.679504 1364.810913,986.385620 1370.071411,992.759216   C1365.230591,999.892822 1359.105103,1005.793457 1351.494141,1010.686035  z"/>
<path fill="#454A97" opacity="1.000000" stroke="none" d=" M1168.681030,987.292480   C1171.482666,988.892151 1173.914307,990.431396 1177.497192,992.699463   C1170.346069,999.534363 1164.011108,1005.589233 1157.262695,1012.039185   C1152.432373,998.851624 1157.100830,989.364441 1168.681030,987.292480  z"/>
</svg>